<?xml version="1.0" encoding="utf-8"?>
<svg width="64" height="64" version="1.1" xmlns="http://www.w3.org/2000/svg">
  <defs>
    <filter id="filter8" x="-.012" y="-.012" width="1.024" height="1.024" color-interpolation-filters="sRGB">
      <feGaussianBlur stdDeviation="0.074081873"/>
    </filter>
    <linearGradient id="linearGradient7" x1="2.5981" x2="10.583" y1="2.8356" y2="11.312" gradientUnits="userSpaceOnUse" href="#linearGradient6"/>
    <linearGradient id="linearGradient6">
      <stop stop-color="#ffffff" offset="0"/>
      <stop stop-color="#ffffff" stop-opacity="0" offset="1"/>
    </linearGradient>
    <linearGradient id="linearGradient8" x1="15.081" x2="12.7" y1="14.816" y2="12.171" gradientUnits="userSpaceOnUse" href="#linearGradient6"/>
    <linearGradient id="linearGradient3" x1="8.4665" x2="8.4665" y1="1.0583" y2="15.875" gradientTransform="matrix(3.7796, 0, 0, 3.7796, -0.000145, -0.000283)" gradientUnits="userSpaceOnUse">
      <stop stop-color="#323131" offset="0"/>
      <stop stop-color="#141414" offset="1"/>
    </linearGradient>
  </defs>
  <g>
    <path d="M 20.26 4.001 C 14.478 4.001 10.517 5.725 7.939 8.535 C 5.374 11.332 4 15.339 4 19.876 L 4 44.124 C 4 48.662 5.373 52.67 7.939 55.465 C 10.517 58.276 14.478 60 20.26 60 L 43.809 60 C 49.591 60 53.551 58.276 56.13 55.465 C 58.695 52.669 60 49.03 60 44.124 L 60 20.787 C 60 14.852 58.695 11.331 56.13 8.535 C 53.551 5.725 49.591 4.001 43.809 4.001 L 25.494 4.001 L 20.26 4.001 Z" fill="url(#linearGradient3)" stroke-width="3.7796"/>
    <g transform="matrix(3.7796, 0, 0, 3.7796, 0.000051, 0.000349)" filter="url(#filter8)" opacity=".35">
      <path d="m5.3603 1.0583c-1.5298 0-2.5775 0.45637-3.2597 1.1999-0.67868 0.73981-1.0423 1.8002-1.0423 3.0008v6.415c0 1.2006 0.36361 2.2609 1.0423 3.0008 0.68219 0.74355 1.7299 1.1999 3.2597 1.1999h6.2305c1.5298 0 2.5775-0.45637 3.2597-1.1999 0.67868-0.73981 1.0242-1.7027 1.0242-3.0008v-6.1742c0-1.5703-0.34552-2.5018-1.0242-3.2416-0.68219-0.74355-1.7299-1.1999-3.2597-1.1999h-4.8456zm-0.00103 0.26406h6.2326c1.4772 0 2.437 0.43133 3.0644 1.1152 0.63411 0.69126 0.95341 1.5307 0.95341 3.0623v6.1742c0 1.2512-0.32181 2.1335-0.95341 2.822-0.6274 0.68381-1.5871 1.1136-3.0644 1.1136h-6.2326c-1.4772 0-2.437-0.42978-3.0644-1.1136-0.62537-0.68172-0.97253-1.6747-0.97253-2.822v-6.4145c0-1.1472 0.34717-2.1403 0.97253-2.822 0.6274-0.68381 1.5871-1.1152 3.0644-1.1152z" fill="url(#linearGradient7)"/>
      <path d="m5.3603 1.0583c-1.5298 0-2.5775 0.45637-3.2597 1.1999-0.67868 0.73981-1.0423 1.8002-1.0423 3.0008v6.415c0 1.2006 0.36361 2.2609 1.0423 3.0008 0.68219 0.74355 1.7299 1.1999 3.2597 1.1999h6.2305c1.5298 0 2.5775-0.45637 3.2597-1.1999 0.67868-0.73981 1.0242-1.7027 1.0242-3.0008v-6.1742c0-1.5703-0.34552-2.5018-1.0242-3.2416-0.68219-0.74355-1.7299-1.1999-3.2597-1.1999h-4.8456zm-0.00103 0.26406h6.2326c1.4772 0 2.437 0.43133 3.0644 1.1152 0.63411 0.69126 0.95341 1.5307 0.95341 3.0623v6.1742c0 1.2512-0.32181 2.1335-0.95341 2.822-0.6274 0.68381-1.5871 1.1136-3.0644 1.1136h-6.2326c-1.4772 0-2.437-0.42978-3.0644-1.1136-0.62537-0.68172-0.97253-1.6747-0.97253-2.822v-6.4145c0-1.1472 0.34717-2.1403 0.97253-2.822 0.6274-0.68381 1.5871-1.1152 3.0644-1.1152z" fill="url(#linearGradient8)" stroke-width="1.0001"/>
    </g>
  </g>
  <g transform="matrix(0.104341, 0, 0, 0.104341, 5.288738, 5.289036)">
    <g>
      <path d="M 88.28 353.1 L 88.28 158.9 L 177.88 210.54 L 177.88 301.02 L 88.28 353.1 Z" style="fill: rgb(222, 101, 71);"/>
      <path d="M 256.44 450.65 L 256.44 348.69 L 177.43 301.02 L 88.28 353.1 L 256.44 450.65 Z" style="fill: rgb(253, 188, 77);"/>
      <path d="M 423.72 353.1 L 423.72 158.9 L 334.12 210.54 L 334.12 301.02 L 423.72 353.1 Z" style="fill: rgb(105, 179, 86);"/>
      <path d="M 256.44 450.65 L 256.44 348.69 L 334.57 301.02 L 423.72 353.1 L 256.44 450.65 Z" style="fill: rgb(209, 233, 147);"/>
      <path d="M 256.44 61.35 L 256.44 163.31 L 177.88 210.98 L 88.28 158.9 L 256.44 61.35 Z" style="fill: rgb(128, 183, 250);"/>
      <path d="M 256.44 61.35 L 256.44 163.31 L 334.12 210.98 L 423.72 158.9 L 256.44 61.35 Z" style="fill: rgb(69, 129, 225);"/>
      <path d="M 340.74 292.64 C 346.03 297.93 350.89 308.52 350.89 316.91 C 350.89 324.86 346.03 335.45 340.74 340.74 C 335.45 346.03 324.86 350.89 316.91 350.89 C 308.52 350.89 297.93 346.03 292.64 340.74 C 291.75 339.86 290.42 338.54 289.54 336.77 C 289.99 338.54 289.99 340.31 289.99 342.06 C 289.99 350.02 285.57 360.6 279.83 365.9 C 274.54 371.19 264.39 376.05 256 376.05 C 247.61 376.05 237.46 371.19 232.17 365.9 C 226.43 360.6 222.01 350.02 222.01 342.06 C 222.01 340.31 222.01 338.54 222.46 337.21 C 221.13 338.54 220.25 339.86 219.36 340.74 C 214.07 346.03 203.48 350.89 195.09 350.89 C 186.71 350.89 176.55 346.03 171.26 340.74 C 165.97 335.45 161.11 324.86 161.11 316.91 C 161.11 308.52 165.97 297.93 171.26 292.64 C 172.14 291.75 173.46 290.42 175.23 289.54 C 173.46 289.99 171.69 289.99 169.94 289.99 C 161.98 289.99 151.4 285.57 146.1 279.83 C 140.81 274.54 135.95 264.39 135.95 256 C 135.95 247.61 140.81 237.46 146.1 232.17 C 151.4 226.43 161.98 222.01 169.94 222.01 C 171.69 222.01 173.46 222.01 174.79 222.46 C 173.46 221.13 172.14 220.25 171.26 219.36 C 165.97 214.07 161.11 203.48 161.11 195.09 C 161.11 187.14 165.97 176.55 171.26 171.26 C 176.55 165.97 187.14 161.11 195.09 161.11 C 203.48 161.11 214.07 165.97 219.36 171.26 C 220.25 172.14 221.58 173.46 222.46 175.23 C 222.01 173.46 222.01 171.69 222.01 169.94 C 222.01 161.98 226.43 151.4 232.17 146.1 C 237.46 140.81 247.61 135.95 256 135.95 C 264.39 135.95 274.54 140.81 279.83 146.1 C 285.57 151.4 289.99 161.98 289.99 169.94 C 289.99 171.69 289.99 173.46 289.54 174.79 C 290.87 173.46 291.75 172.14 292.64 171.26 C 297.93 165.97 308.52 161.11 316.91 161.11 C 324.86 161.11 335.45 165.97 340.74 171.26 C 346.03 176.55 350.89 187.14 350.89 195.09 C 350.89 203.48 346.03 214.07 340.74 219.36 C 339.86 220.25 338.54 221.58 336.77 222.46 C 338.54 222.01 340.31 222.01 342.06 222.01 C 350.02 222.01 360.6 226.43 365.9 232.17 C 371.19 237.46 376.05 247.61 376.05 256 C 376.05 264.39 371.19 274.54 365.9 279.83 C 360.6 285.57 350.02 289.99 342.06 289.99 C 340.31 289.99 338.54 289.99 337.21 289.54 C 338.54 290.87 339.86 291.75 340.74 292.64 Z" style="fill: rgb(47, 47, 47);"/>
      <path d="M 288.22 269.25 L 327.94 269.25 C 331.47 273.22 336.32 275.42 342.06 275.42 C 352.66 275.42 361.05 266.59 361.05 256 C 361.05 245.41 352.66 236.58 342.06 236.58 C 336.32 236.58 331.47 239.23 327.94 242.75 L 288.22 242.75 L 316.47 214.51 C 316.47 214.51 316.47 214.51 316.91 214.51 C 327.5 214.51 335.89 205.68 335.89 195.09 C 335.89 184.5 327.5 176.11 316.91 176.11 C 306.32 176.11 297.49 184.5 297.49 195.09 C 297.49 195.53 297.49 195.53 297.49 195.53 L 269.25 223.78 L 269.25 184.06 C 273.22 180.53 275.42 175.68 275.42 169.94 C 275.42 159.34 266.59 150.95 256 150.95 C 245.41 150.95 236.58 159.34 236.58 169.94 C 236.58 175.68 239.23 180.53 242.75 184.06 L 242.75 223.78 L 214.51 195.53 C 214.51 195.53 214.51 195.53 214.51 195.09 C 214.51 184.5 206.13 176.11 195.09 176.11 C 184.5 176.11 176.11 184.5 176.11 195.09 C 176.11 205.68 184.5 214.51 195.09 214.51 C 195.53 214.51 195.53 214.51 195.53 214.51 L 223.78 242.75 L 184.06 242.75 C 180.53 239.23 175.68 236.58 169.94 236.58 C 159.34 236.58 150.95 245.41 150.95 256 C 150.95 266.59 159.34 275.42 169.94 275.42 C 175.68 275.42 180.53 273.22 184.06 269.25 L 223.78 269.25 L 195.53 297.49 C 195.53 297.49 195.53 297.49 195.09 297.49 C 184.5 297.49 176.11 305.87 176.11 316.91 C 176.11 327.5 184.5 335.89 195.09 335.89 C 205.68 335.89 214.51 327.5 214.51 316.91 C 214.51 316.47 214.51 316.47 214.51 316.47 L 242.75 288.22 L 242.75 327.94 C 238.78 331.47 236.58 336.32 236.58 342.06 C 236.58 352.66 245.41 361.05 256 361.05 C 266.59 361.05 275.42 352.66 275.42 342.06 C 275.42 336.32 272.77 331.47 269.25 327.94 L 269.25 288.22 L 297.49 316.47 C 297.49 316.47 297.49 316.47 297.49 316.91 C 297.49 327.5 305.87 335.89 316.91 335.89 C 327.5 335.89 335.89 327.5 335.89 316.91 C 335.89 305.87 327.5 297.49 316.91 297.49 C 316.47 297.49 316.47 297.49 316.47 297.49 L 288.22 269.25 Z" style="fill: rgb(255, 255, 255);"/>
    </g>
  </g>
</svg>