<?xml version="1.0" encoding="utf-8"?>
<svg width="64" height="64" version="1.1" xmlns="http://www.w3.org/2000/svg">
  <defs>
    <filter id="filter8" x="-.012" y="-.012" width="1.024" height="1.024" color-interpolation-filters="sRGB">
      <feGaussianBlur stdDeviation="0.074081873"/>
    </filter>
    <linearGradient id="linearGradient7" x1="2.5981" x2="10.583" y1="2.8356" y2="11.312" gradientUnits="userSpaceOnUse" href="#linearGradient6"/>
    <linearGradient id="linearGradient6">
      <stop stop-color="#ffffff" offset="0"/>
      <stop stop-color="#ffffff" stop-opacity="0" offset="1"/>
    </linearGradient>
    <linearGradient id="linearGradient8" x1="15.081" x2="12.7" y1="14.816" y2="12.171" gradientUnits="userSpaceOnUse" href="#linearGradient6"/>
    <linearGradient id="linearGradient3" x1="8.4665" x2="8.4665" y1="1.0583" y2="15.875" gradientTransform="matrix(3.7796, 0, 0, 3.7796, -0.000145, -0.000283)" gradientUnits="userSpaceOnUse">
      <stop stop-color="#323131" offset="0"/>
      <stop stop-color="#141414" offset="1"/>
    </linearGradient>
  </defs>
  <g style="transform-origin: 32px 32.0003px;">
    <path d="M 20.26 4.001 C 14.478 4.001 10.517 5.725 7.939 8.535 C 5.374 11.332 4 15.339 4 19.876 L 4 44.124 C 4 48.662 5.373 52.67 7.939 55.465 C 10.517 58.276 14.478 60 20.26 60 L 43.809 60 C 49.591 60 53.551 58.276 56.13 55.465 C 58.695 52.669 60 49.03 60 44.124 L 60 20.787 C 60 14.852 58.695 11.331 56.13 8.535 C 53.551 5.725 49.591 4.001 43.809 4.001 L 25.494 4.001 L 20.26 4.001 Z" fill="url(#linearGradient3)" stroke-width="3.7796"/>
    <g transform="matrix(3.7796, 0, 0, 3.7796, 0.000051, 0.000349)" filter="url(#filter8)" opacity=".35">
      <path d="m5.3603 1.0583c-1.5298 0-2.5775 0.45637-3.2597 1.1999-0.67868 0.73981-1.0423 1.8002-1.0423 3.0008v6.415c0 1.2006 0.36361 2.2609 1.0423 3.0008 0.68219 0.74355 1.7299 1.1999 3.2597 1.1999h6.2305c1.5298 0 2.5775-0.45637 3.2597-1.1999 0.67868-0.73981 1.0242-1.7027 1.0242-3.0008v-6.1742c0-1.5703-0.34552-2.5018-1.0242-3.2416-0.68219-0.74355-1.7299-1.1999-3.2597-1.1999h-4.8456zm-0.00103 0.26406h6.2326c1.4772 0 2.437 0.43133 3.0644 1.1152 0.63411 0.69126 0.95341 1.5307 0.95341 3.0623v6.1742c0 1.2512-0.32181 2.1335-0.95341 2.822-0.6274 0.68381-1.5871 1.1136-3.0644 1.1136h-6.2326c-1.4772 0-2.437-0.42978-3.0644-1.1136-0.62537-0.68172-0.97253-1.6747-0.97253-2.822v-6.4145c0-1.1472 0.34717-2.1403 0.97253-2.822 0.6274-0.68381 1.5871-1.1152 3.0644-1.1152z" fill="url(#linearGradient7)"/>
      <path d="m5.3603 1.0583c-1.5298 0-2.5775 0.45637-3.2597 1.1999-0.67868 0.73981-1.0423 1.8002-1.0423 3.0008v6.415c0 1.2006 0.36361 2.2609 1.0423 3.0008 0.68219 0.74355 1.7299 1.1999 3.2597 1.1999h6.2305c1.5298 0 2.5775-0.45637 3.2597-1.1999 0.67868-0.73981 1.0242-1.7027 1.0242-3.0008v-6.1742c0-1.5703-0.34552-2.5018-1.0242-3.2416-0.68219-0.74355-1.7299-1.1999-3.2597-1.1999h-4.8456zm-0.00103 0.26406h6.2326c1.4772 0 2.437 0.43133 3.0644 1.1152 0.63411 0.69126 0.95341 1.5307 0.95341 3.0623v6.1742c0 1.2512-0.32181 2.1335-0.95341 2.822-0.6274 0.68381-1.5871 1.1136-3.0644 1.1136h-6.2326c-1.4772 0-2.437-0.42978-3.0644-1.1136-0.62537-0.68172-0.97253-1.6747-0.97253-2.822v-6.4145c0-1.1472 0.34717-2.1403 0.97253-2.822 0.6274-0.68381 1.5871-1.1152 3.0644-1.1152z" fill="url(#linearGradient8)" stroke-width="1.0001"/>
    </g>
  </g>
  <linearGradient id="a" gradientUnits="userSpaceOnUse" x1="12" x2="124" y1="62" y2="62" gradientTransform="matrix(0.348214, 0, 0, 0.348214, 10.321482, 10.455704)">
    <stop offset="0" stop-color="#003380"/>
    <stop offset="0.3929" stop-color="#0055d4"/>
    <stop offset="1" stop-color="#003380"/>
  </linearGradient>
  <radialGradient id="b" cx="56" cy="68" gradientUnits="userSpaceOnUse" r="56" gradientTransform="matrix(0.348214, 0, 0, 0.348214, 10.321482, 10.455704)">
    <stop offset="0" stop-color="#55ddff"/>
    <stop offset="1" stop-color="#80b3ff" stop-opacity="0.898039"/>
  </radialGradient>
  <path d="M 29.821 12.545 C 27.504 12.545 25.643 14.406 25.643 16.724 L 25.643 20.902 L 17.286 20.902 C 15.741 20.902 14.5 22.143 14.5 23.688 L 14.5 32.045 L 18.679 32.045 C 20.996 32.045 22.857 33.906 22.857 36.224 C 22.857 38.541 20.996 40.402 18.679 40.402 L 14.5 40.402 L 14.5 48.759 C 14.5 50.304 15.741 51.545 17.286 51.545 L 25.643 51.545 L 25.643 47.366 C 25.643 45.049 27.504 43.188 29.821 43.188 C 32.139 43.188 34 45.049 34 47.366 L 34 51.545 L 42.357 51.545 C 43.902 51.545 45.143 50.304 45.143 48.759 L 45.143 40.402 L 49.321 40.402 C 51.639 40.402 53.5 38.541 53.5 36.224 C 53.5 33.906 51.639 32.045 49.321 32.045 L 45.143 32.045 L 45.143 23.688 C 45.143 22.143 43.902 20.902 42.357 20.902 L 34 20.902 L 34 16.724 C 34 14.406 32.139 12.545 29.821 12.545 Z M 29.821 12.545" fill="url(#a)" style="stroke-width: 0.348;"/>
  <path d="M 29.821 10.456 C 27.504 10.456 25.643 12.316 25.643 14.634 L 25.643 18.813 L 17.286 18.813 C 15.741 18.813 14.5 20.053 14.5 21.599 L 14.5 29.956 L 18.679 29.956 C 20.996 29.956 22.857 31.816 22.857 34.134 C 22.857 36.452 20.996 38.313 18.679 38.313 L 14.5 38.313 L 14.5 46.67 C 14.5 48.215 15.741 49.456 17.286 49.456 L 25.643 49.456 L 25.643 45.277 C 25.643 42.959 27.504 41.099 29.821 41.099 C 32.139 41.099 34 42.959 34 45.277 L 34 49.456 L 42.357 49.456 C 43.902 49.456 45.143 48.215 45.143 46.67 L 45.143 38.313 L 49.321 38.313 C 51.639 38.313 53.5 36.452 53.5 34.134 C 53.5 31.816 51.639 29.956 49.321 29.956 L 45.143 29.956 L 45.143 21.599 C 45.143 20.053 43.902 18.813 42.357 18.813 L 34 18.813 L 34 14.634 C 34 12.316 32.139 10.456 29.821 10.456 Z M 29.821 10.456" fill="url(#b)" style="stroke-width: 0.348;"/>
  <path d="M 29.821 10.456 C 27.504 10.456 25.643 12.316 25.643 14.634 L 25.643 18.813 L 17.286 18.813 C 15.741 18.813 14.5 20.053 14.5 21.599 L 14.5 29.956 L 18.679 29.956 C 20.996 29.956 22.857 31.816 22.857 34.134 L 29.821 34.134 L 29.821 10.456 Z M 29.821 34.134 L 29.821 41.099 C 32.139 41.099 34 42.959 34 45.277 L 34 49.456 L 42.357 49.456 C 43.902 49.456 45.143 48.215 45.143 46.67 L 45.143 38.313 L 49.321 38.313 C 51.639 38.313 53.5 36.452 53.5 34.134 L 29.821 34.134 Z M 29.821 34.134" fill="#0066ff" fill-opacity="0.301961" style="stroke-width: 0.348;"/>
</svg>