<?xml version="1.0" encoding="utf-8"?>
<svg width="64" height="64" version="1.1" xmlns="http://www.w3.org/2000/svg">
  <defs>
    <filter id="filter8" x="-.012" y="-.012" width="1.024" height="1.024" color-interpolation-filters="sRGB">
      <feGaussianBlur stdDeviation="0.074081873"/>
    </filter>
    <linearGradient id="linearGradient7" x1="2.5981" x2="10.583" y1="2.8356" y2="11.312" gradientUnits="userSpaceOnUse" href="#linearGradient6"/>
    <linearGradient id="linearGradient6">
      <stop offset="0" stop-color="#ffffff"/>
      <stop stop-color="#ffffff" stop-opacity="0" offset="1"/>
    </linearGradient>
    <linearGradient id="linearGradient8" x1="15.081" x2="12.7" y1="14.816" y2="12.171" gradientUnits="userSpaceOnUse" href="#linearGradient6"/>
    <linearGradient id="linearGradient3" x1="8.4665" x2="8.4665" y1="1.0583" y2="15.875" gradientTransform="matrix(3.7796, 0, 0, 3.7796, -0.000145, -0.000283)" gradientUnits="userSpaceOnUse">
      <stop stop-color="#323131" offset="0"/>
      <stop stop-color="#141414" offset="1"/>
    </linearGradient>
  </defs>
  <g>
    <path d="M 20.26 4.001 C 14.478 4.001 10.517 5.725 7.939 8.535 C 5.374 11.332 4 15.339 4 19.876 L 4 44.124 C 4 48.662 5.373 52.67 7.939 55.465 C 10.517 58.276 14.478 60 20.26 60 L 43.809 60 C 49.591 60 53.551 58.276 56.13 55.465 C 58.695 52.669 60 49.03 60 44.124 L 60 20.787 C 60 14.852 58.695 11.331 56.13 8.535 C 53.551 5.725 49.591 4.001 43.809 4.001 L 25.494 4.001 L 20.26 4.001 Z" fill="url(#linearGradient3)" stroke-width="3.7796"/>
    <g transform="matrix(3.7796, 0, 0, 3.7796, 0.000051, 0.000349)" filter="url(#filter8)" opacity=".35">
      <path d="m5.3603 1.0583c-1.5298 0-2.5775 0.45637-3.2597 1.1999-0.67868 0.73981-1.0423 1.8002-1.0423 3.0008v6.415c0 1.2006 0.36361 2.2609 1.0423 3.0008 0.68219 0.74355 1.7299 1.1999 3.2597 1.1999h6.2305c1.5298 0 2.5775-0.45637 3.2597-1.1999 0.67868-0.73981 1.0242-1.7027 1.0242-3.0008v-6.1742c0-1.5703-0.34552-2.5018-1.0242-3.2416-0.68219-0.74355-1.7299-1.1999-3.2597-1.1999h-4.8456zm-0.00103 0.26406h6.2326c1.4772 0 2.437 0.43133 3.0644 1.1152 0.63411 0.69126 0.95341 1.5307 0.95341 3.0623v6.1742c0 1.2512-0.32181 2.1335-0.95341 2.822-0.6274 0.68381-1.5871 1.1136-3.0644 1.1136h-6.2326c-1.4772 0-2.437-0.42978-3.0644-1.1136-0.62537-0.68172-0.97253-1.6747-0.97253-2.822v-6.4145c0-1.1472 0.34717-2.1403 0.97253-2.822 0.6274-0.68381 1.5871-1.1152 3.0644-1.1152z" fill="url(#linearGradient7)"/>
      <path d="m5.3603 1.0583c-1.5298 0-2.5775 0.45637-3.2597 1.1999-0.67868 0.73981-1.0423 1.8002-1.0423 3.0008v6.415c0 1.2006 0.36361 2.2609 1.0423 3.0008 0.68219 0.74355 1.7299 1.1999 3.2597 1.1999h6.2305c1.5298 0 2.5775-0.45637 3.2597-1.1999 0.67868-0.73981 1.0242-1.7027 1.0242-3.0008v-6.1742c0-1.5703-0.34552-2.5018-1.0242-3.2416-0.68219-0.74355-1.7299-1.1999-3.2597-1.1999h-4.8456zm-0.00103 0.26406h6.2326c1.4772 0 2.437 0.43133 3.0644 1.1152 0.63411 0.69126 0.95341 1.5307 0.95341 3.0623v6.1742c0 1.2512-0.32181 2.1335-0.95341 2.822-0.6274 0.68381-1.5871 1.1136-3.0644 1.1136h-6.2326c-1.4772 0-2.437-0.42978-3.0644-1.1136-0.62537-0.68172-0.97253-1.6747-0.97253-2.822v-6.4145c0-1.1472 0.34717-2.1403 0.97253-2.822 0.6274-0.68381 1.5871-1.1152 3.0644-1.1152z" fill="url(#linearGradient8)" stroke-width="1.0001"/>
    </g>
  </g>
  <path d="M 41.64 15 C 43.724 15 46.577 16.16 47.919 17.501 L 49.078 18.661 C 50.498 20.159 51.384 22.66 51.54 24.822 L 51.54 26.243 C 51.228 30.71 48.114 34.098 44.493 35.334 C 42.408 36.064 41.758 35.634 41.145 36.103 L 33.446 41.757 C 33.094 42.031 32.977 42.07 32.794 42.226 C 32.247 46.577 28.444 49 24.666 49 C 21.93 49 19.273 47.723 17.853 45.001 C 17.345 44.037 17.306 43.685 17.123 43.229 L 13.307 41.679 C 12.994 41.562 12.616 41.34 12.538 40.871 L 12.46 40.415 L 12.46 32.208 C 12.499 31.401 12.955 30.984 13.581 30.984 C 13.723 30.984 13.88 31.023 14.075 31.049 C 16.42 32.013 18.817 32.899 21.123 33.902 L 21.735 33.629 C 23.012 33.094 23.742 33.016 25.122 33.016 C 25.317 32.755 25.591 32.364 25.747 32.13 L 29.174 27.245 C 29.434 26.893 30.359 25.591 30.671 25.044 C 30.906 21.617 31.988 19.846 34.098 17.697 C 35.752 16.121 38.683 15 41.64 15 Z M 24.939 34.709 C 23.624 34.709 23.246 34.866 21.696 35.517 C 21.514 35.595 21.319 35.634 21.162 35.634 C 20.693 35.634 20.237 35.361 19.846 35.217 C 17.97 34.449 16.043 33.68 14.153 32.899 L 14.153 40.18 L 17.97 41.718 C 18.935 42.187 18.7 43.033 19.351 44.22 C 20.432 46.343 22.543 47.307 24.705 47.307 C 27.636 47.307 30.554 45.495 31.062 42.226 L 31.14 41.797 C 31.245 41.067 31.753 40.871 32.404 40.376 L 40.142 34.709 C 41.262 33.902 42.188 34.332 43.959 33.707 C 46.955 32.677 49.574 29.863 49.847 26.125 L 49.847 24.9 C 49.73 23.168 48.961 21.162 47.84 19.846 L 46.721 18.739 C 45.378 17.501 43.151 16.693 40.95 16.693 C 39.804 16.693 38.605 16.928 37.562 17.423 C 34.293 19.038 32.521 21.656 32.208 25.747 C 31.988 26.164 30.75 27.936 30.515 28.248 L 27.128 33.094 C 26.555 33.707 26.555 34.592 25.591 34.709 L 24.939 34.709 Z M 24.588 45.613 C 23.742 45.613 22.855 45.183 22.36 44.845 C 21.93 44.532 21.084 43.841 20.928 43.294 C 21.852 43.529 23.129 44.415 24.549 44.415 C 25.317 44.415 26.165 44.115 27.011 43.333 C 27.74 42.643 28.131 41.64 28.131 40.637 C 27.975 38.175 26.204 37.132 24.132 36.56 C 24.197 36.443 24.171 36.403 24.353 36.403 L 24.783 36.403 C 27.597 36.403 29.434 38.605 29.434 40.989 C 29.434 43.294 27.819 45.613 24.588 45.613 Z M 36.26 25.2 C 36.26 22.399 38.527 20.08 41.34 20.08 C 44.142 20.08 46.46 22.399 46.46 25.2 C 46.46 28.014 44.142 30.28 41.34 30.28 C 38.527 30.28 36.26 28.014 36.26 25.2 Z M 37.953 25.2 C 37.953 27.089 39.452 28.587 41.34 28.587 C 43.229 28.587 44.767 27.089 44.767 25.2 C 44.767 23.311 43.229 21.774 41.34 21.774 C 39.452 21.774 37.953 23.311 37.953 25.2 Z" style="stroke-width: 1; fill: rgb(255, 255, 255); filter: none;"/>
</svg>