<?xml version="1.0" encoding="utf-8"?>
<svg width="64" height="64" version="1.1" xmlns="http://www.w3.org/2000/svg">
  <defs>
    <filter id="filter8" x="-.012" y="-.012" width="1.024" height="1.024" color-interpolation-filters="sRGB">
      <feGaussianBlur stdDeviation="0.074081873"/>
    </filter>
    <linearGradient id="linearGradient7" x1="2.5981" x2="10.583" y1="2.8356" y2="11.312" gradientUnits="userSpaceOnUse" href="#linearGradient6"/>
    <linearGradient id="linearGradient6">
      <stop stop-color="#ffffff" offset="0"/>
      <stop stop-color="#ffffff" stop-opacity="0" offset="1"/>
    </linearGradient>
    <linearGradient id="linearGradient8" x1="15.081" x2="12.7" y1="14.816" y2="12.171" gradientUnits="userSpaceOnUse" href="#linearGradient6"/>
    <linearGradient id="linearGradient3" x1="8.4665" x2="8.4665" y1="1.0583" y2="15.875" gradientTransform="matrix(3.7796, 0, 0, 3.7796, -0.000145, -0.000283)" gradientUnits="userSpaceOnUse">
      <stop stop-color="#323131" offset="0"/>
      <stop stop-color="#141414" offset="1"/>
    </linearGradient>
  </defs>
  <g>
    <path d="M 20.26 4.001 C 14.478 4.001 10.517 5.725 7.939 8.535 C 5.374 11.332 4 15.339 4 19.876 L 4 44.124 C 4 48.662 5.373 52.67 7.939 55.465 C 10.517 58.276 14.478 60 20.26 60 L 43.809 60 C 49.591 60 53.551 58.276 56.13 55.465 C 58.695 52.669 60 49.03 60 44.124 L 60 20.787 C 60 14.852 58.695 11.331 56.13 8.535 C 53.551 5.725 49.591 4.001 43.809 4.001 L 25.494 4.001 L 20.26 4.001 Z" fill="url(#linearGradient3)" stroke-width="3.7796"/>
    <g transform="matrix(3.7796, 0, 0, 3.7796, 0.000051, 0.000349)" filter="url(#filter8)" opacity=".35">
      <path d="m5.3603 1.0583c-1.5298 0-2.5775 0.45637-3.2597 1.1999-0.67868 0.73981-1.0423 1.8002-1.0423 3.0008v6.415c0 1.2006 0.36361 2.2609 1.0423 3.0008 0.68219 0.74355 1.7299 1.1999 3.2597 1.1999h6.2305c1.5298 0 2.5775-0.45637 3.2597-1.1999 0.67868-0.73981 1.0242-1.7027 1.0242-3.0008v-6.1742c0-1.5703-0.34552-2.5018-1.0242-3.2416-0.68219-0.74355-1.7299-1.1999-3.2597-1.1999h-4.8456zm-0.00103 0.26406h6.2326c1.4772 0 2.437 0.43133 3.0644 1.1152 0.63411 0.69126 0.95341 1.5307 0.95341 3.0623v6.1742c0 1.2512-0.32181 2.1335-0.95341 2.822-0.6274 0.68381-1.5871 1.1136-3.0644 1.1136h-6.2326c-1.4772 0-2.437-0.42978-3.0644-1.1136-0.62537-0.68172-0.97253-1.6747-0.97253-2.822v-6.4145c0-1.1472 0.34717-2.1403 0.97253-2.822 0.6274-0.68381 1.5871-1.1152 3.0644-1.1152z" fill="url(#linearGradient7)"/>
      <path d="m5.3603 1.0583c-1.5298 0-2.5775 0.45637-3.2597 1.1999-0.67868 0.73981-1.0423 1.8002-1.0423 3.0008v6.415c0 1.2006 0.36361 2.2609 1.0423 3.0008 0.68219 0.74355 1.7299 1.1999 3.2597 1.1999h6.2305c1.5298 0 2.5775-0.45637 3.2597-1.1999 0.67868-0.73981 1.0242-1.7027 1.0242-3.0008v-6.1742c0-1.5703-0.34552-2.5018-1.0242-3.2416-0.68219-0.74355-1.7299-1.1999-3.2597-1.1999h-4.8456zm-0.00103 0.26406h6.2326c1.4772 0 2.437 0.43133 3.0644 1.1152 0.63411 0.69126 0.95341 1.5307 0.95341 3.0623v6.1742c0 1.2512-0.32181 2.1335-0.95341 2.822-0.6274 0.68381-1.5871 1.1136-3.0644 1.1136h-6.2326c-1.4772 0-2.437-0.42978-3.0644-1.1136-0.62537-0.68172-0.97253-1.6747-0.97253-2.822v-6.4145c0-1.1472 0.34717-2.1403 0.97253-2.822 0.6274-0.68381 1.5871-1.1152 3.0644-1.1152z" fill="url(#linearGradient8)" stroke-width="1.0001"/>
    </g>
  </g>
  <linearGradient id="a" gradientUnits="userSpaceOnUse" x1="58.922295" x2="80.291817" y1="99.982971" y2="91.974609">
    <stop offset="0" stop-color="#1d7a4f"/>
    <stop offset="0.0932" stop-color="#29af71"/>
    <stop offset="0.4559" stop-color="#218d5b"/>
    <stop offset="1" stop-color="#155a3a"/>
  </linearGradient>
  <linearGradient id="b" gradientUnits="userSpaceOnUse" x1="69.95385" x2="56.994293" y1="66.548935" y2="70.581924">
    <stop offset="0" stop-color="#26a269"/>
    <stop offset="0.3" stop-color="#57e389"/>
    <stop offset="0.65" stop-color="#33d17a"/>
    <stop offset="1" stop-color="#33d17a"/>
  </linearGradient>
  <g transform="matrix(0.369528, 0, 0, 0.369528, 9.043829, 5.394315)">
    <path d="m 60 48 l 5.5 66 c 1.191406 1.402344 2.5 2 4.5 2 h 26 v -68 z m 0 0" fill="#deddda"/>
    <path d="m 88.246094 48 h 20 c 4.417968 0 8 3.582031 8 8 v 52 c 0 4.417969 -3.582032 8 -8 8 h -20 c -4.417969 0 -8 -3.582031 -8 -8 v -52 c 0 -4.417969 3.582031 -8 8 -8 z m 0 0" fill="#deddda"/>
    <path d="m 16 28 h 20 c 4.417969 0 8 3.582031 8 8 v 52 c 0 4.417969 -3.582031 8 -8 8 h -20 c -4.417969 0 -8 -3.582031 -8 -8 v -52 c 0 -4.417969 3.582031 -8 8 -8 z m 0 0" fill="#33d17a"/>
    <g fill="#77767b">
      <path d="m 86 85 h 18 v 3 h -18 z m 0 0"/>
      <path d="m 86 100 v -15 h 3 v 15 z m 0 0"/>
      <path d="m 101 100 v -15 h 3 v 15 z m 0 0"/>
      <path d="m 86 95 h 18 v 3 h -18 z m 0 0"/>
      <path d="m 83 79 h 23 v 3 h -23 z m 0 0"/>
      <path d="m 83 64 h 23 v 3 h -23 z m 0 0"/>
      <path d="m 83 71 h 19 v 3 h -19 z m 0 0"/>
      <path d="m 99 80 v -8 h 3 v 8 z m 0 0"/>
      <path d="m 86.550781 79.613281 l 3.882813 -14.492187 l 2.898437 0.777344 l -3.882812 14.488281 z m 0 0"/>
      <path d="m 69 85 h 10 v 3 h -10 z m 0 0"/>
      <path d="m 69 100 v -15 h 3 v 15 z m 0 0"/>
      <path d="m 78 98 v -13 h 3 v 13 z m 0 0"/>
      <path d="m 69 95 h 10 v 3 h -10 z m 0 0"/>
      <path d="m 69 79 h 11 v 3 h -11 z m 0 0"/>
      <path d="m 71 74 h 7 v 3 h -7 z m 0 0"/>
      <path d="m 67 69 h 15 v 3 h -15 z m 0 0"/>
      <path d="m 69 64 h 11 v 3 h -11 z m 0 0"/>
    </g>
    <path d="m 80 99 c 0.699219 1.746094 0.183594 4.136719 -2 5 l -9 6 c -1.480469 0.730469 -4 4 0 5.949219 c -3.402344 -0.445313 -4.125 -2.871094 -5 -4.949219 l -16 -43 l 26 16 z m 0 0" fill="url(#a)"/>
    <path d="m 34 28 v 68 h 41 c 2 0 4.195312 1.28125 5 3 c 0 0 -17.667969 -57.175781 -20 -63.945312 c -1.410156 -3.644532 -3.144531 -7.054688 -7.054688 -7.054688 z m 0 0" fill="url(#b)"/>
    <path d="m 38 71 h -9 v -22 h 9 c 6.074219 0 11 4.925781 11 11 s -4.925781 11 -11 11 z m 0 0" fill="none" stroke="#26a269" stroke-width="6"/>
    <path d="m 38 73 h -9 v -22 h 9 c 6.074219 0 11 4.925781 11 11 s -4.925781 11 -11 11 z m 0 0" fill="none" stroke="#ffffff" stroke-width="6"/>
  </g>
</svg>