<?xml version="1.0" encoding="utf-8"?>
<svg width="64" height="64" version="1.1" xmlns="http://www.w3.org/2000/svg">
  <defs>
    <filter id="filter8" x="-.012" y="-.012" width="1.024" height="1.024" color-interpolation-filters="sRGB">
      <feGaussianBlur stdDeviation="0.074081873"/>
    </filter>
    <linearGradient id="linearGradient7" x1="2.5981" x2="10.583" y1="2.8356" y2="11.312" gradientUnits="userSpaceOnUse" href="#linearGradient6"/>
    <linearGradient id="linearGradient6">
      <stop stop-color="#ffffff" offset="0"/>
      <stop stop-color="#ffffff" stop-opacity="0" offset="1"/>
    </linearGradient>
    <linearGradient id="linearGradient8" x1="15.081" x2="12.7" y1="14.816" y2="12.171" gradientUnits="userSpaceOnUse" href="#linearGradient6"/>
    <linearGradient id="linearGradient3" x1="8.4665" x2="8.4665" y1="1.0583" y2="15.875" gradientTransform="matrix(3.7796, 0, 0, 3.7796, -0.000145, -0.000283)" gradientUnits="userSpaceOnUse">
      <stop stop-color="#323131" offset="0"/>
      <stop stop-color="#141414" offset="1"/>
    </linearGradient>
    <linearGradient id="a" x1="8.466" x2="8.466" y1="2.381" y2="5.684" gradientUnits="userSpaceOnUse" gradientTransform="matrix(1, 0, 0, 1, -3.45657, -26.718972)">
      <stop offset="0" stop-color="#7cc1ea"/>
      <stop offset="1" stop-color="#56a1d3"/>
    </linearGradient>
    <filter id="b" width="1.065" height="1.092" x="-.032" y="-.046" color-interpolation-filters="sRGB">
      <feGaussianBlur stdDeviation=".137"/>
    </filter>
    <linearGradient id="c" x1="445.28" x2="445.28" y1="179.28" y2="200.07" gradientTransform="matrix(0.38956, 0, 0, 0.38184, -169.236571, -90.150972)" gradientUnits="userSpaceOnUse">
      <stop offset="0" stop-color="#88ccf2"/>
      <stop offset="1" stop-color="#67b1de"/>
    </linearGradient>
    <filter id="d" width="1.013" height="1.151" x="-.007" y="-.076" color-interpolation-filters="sRGB">
      <feGaussianBlur stdDeviation=".042"/>
    </filter>
    <filter id="e" width="1.014" height="1.087" x="-.007" y="-.043" color-interpolation-filters="sRGB">
      <feGaussianBlur stdDeviation=".045"/>
    </filter>
  </defs>
  <g>
    <path d="M 20.26 4.001 C 14.478 4.001 10.517 5.725 7.939 8.535 C 5.374 11.332 4 15.339 4 19.876 L 4 44.124 C 4 48.662 5.373 52.67 7.939 55.465 C 10.517 58.276 14.478 60 20.26 60 L 43.809 60 C 49.591 60 53.551 58.276 56.13 55.465 C 58.695 52.669 60 49.03 60 44.124 L 60 20.787 C 60 14.852 58.695 11.331 56.13 8.535 C 53.551 5.725 49.591 4.001 43.809 4.001 L 25.494 4.001 L 20.26 4.001 Z" fill="url(#linearGradient3)" stroke-width="3.7796"/>
    <g transform="matrix(3.7796, 0, 0, 3.7796, 0.000051, 0.000349)" filter="url(#filter8)" opacity=".35">
      <path d="m5.3603 1.0583c-1.5298 0-2.5775 0.45637-3.2597 1.1999-0.67868 0.73981-1.0423 1.8002-1.0423 3.0008v6.415c0 1.2006 0.36361 2.2609 1.0423 3.0008 0.68219 0.74355 1.7299 1.1999 3.2597 1.1999h6.2305c1.5298 0 2.5775-0.45637 3.2597-1.1999 0.67868-0.73981 1.0242-1.7027 1.0242-3.0008v-6.1742c0-1.5703-0.34552-2.5018-1.0242-3.2416-0.68219-0.74355-1.7299-1.1999-3.2597-1.1999h-4.8456zm-0.00103 0.26406h6.2326c1.4772 0 2.437 0.43133 3.0644 1.1152 0.63411 0.69126 0.95341 1.5307 0.95341 3.0623v6.1742c0 1.2512-0.32181 2.1335-0.95341 2.822-0.6274 0.68381-1.5871 1.1136-3.0644 1.1136h-6.2326c-1.4772 0-2.437-0.42978-3.0644-1.1136-0.62537-0.68172-0.97253-1.6747-0.97253-2.822v-6.4145c0-1.1472 0.34717-2.1403 0.97253-2.822 0.6274-0.68381 1.5871-1.1152 3.0644-1.1152z" fill="url(#linearGradient7)"/>
      <path d="m5.3603 1.0583c-1.5298 0-2.5775 0.45637-3.2597 1.1999-0.67868 0.73981-1.0423 1.8002-1.0423 3.0008v6.415c0 1.2006 0.36361 2.2609 1.0423 3.0008 0.68219 0.74355 1.7299 1.1999 3.2597 1.1999h6.2305c1.5298 0 2.5775-0.45637 3.2597-1.1999 0.67868-0.73981 1.0242-1.7027 1.0242-3.0008v-6.1742c0-1.5703-0.34552-2.5018-1.0242-3.2416-0.68219-0.74355-1.7299-1.1999-3.2597-1.1999h-4.8456zm-0.00103 0.26406h6.2326c1.4772 0 2.437 0.43133 3.0644 1.1152 0.63411 0.69126 0.95341 1.5307 0.95341 3.0623v6.1742c0 1.2512-0.32181 2.1335-0.95341 2.822-0.6274 0.68381-1.5871 1.1136-3.0644 1.1136h-6.2326c-1.4772 0-2.437-0.42978-3.0644-1.1136-0.62537-0.68172-0.97253-1.6747-0.97253-2.822v-6.4145c0-1.1472 0.34717-2.1403 0.97253-2.822 0.6274-0.68381 1.5871-1.1152 3.0644-1.1152z" fill="url(#linearGradient8)" stroke-width="1.0001"/>
    </g>
  </g>
  <g transform="matrix(2.671968, 0, 0, 2.502744, 18.613476, 77.681665)" style="">
    <path fill="url(#a)" d="M -1.512 -24.338 L 1.453 -24.338 C 2.203 -24.338 2.357 -24.254 2.723 -23.708 C 3.02 -23.267 3.563 -23.279 4.479 -23.279 L 11.529 -23.279 C 12.167 -23.282 12.685 -22.765 12.681 -22.127 L 12.681 -15.171 C 12.683 -14.534 12.166 -14.018 11.529 -14.019 L -1.513 -14.019 C -2.148 -14.019 -2.664 -14.535 -2.663 -15.171 L -2.663 -23.186 C -2.664 -23.822 -2.148 -24.338 -1.513 -24.338 L -1.512 -24.338 Z" style="stroke-width: 1;"/>
    <rect width="14.287" height="10.054" x="-2.134" y="-22.75" fill="none" stroke="#000" stroke-width=".265" filter="url(#b)" opacity=".1" rx="0.529" ry="0.529" style="stroke-width: 0.265;"/>
    <rect width="14.287" height="10.054" x="-2.134" y="-22.75" fill="#fff" rx="0.529" ry="0.529" style="stroke-width: 1;"/>
    <rect width="15.346" height="10.054" x="-2.663" y="-22.221" fill="url(#c)" rx="1.058" ry="1.058" style="stroke-width: 1;"/>
    <path fill="#fff" d="M -1.605 -22.221 C -2.191 -22.221 -2.663 -21.749 -2.663 -21.163 L -2.663 -20.898 C -2.663 -21.485 -2.191 -21.957 -1.605 -21.957 L 11.624 -21.957 C 12.21 -21.957 12.682 -21.485 12.682 -20.898 L 12.682 -21.163 C 12.682 -21.749 12.21 -22.221 11.624 -22.221 L -1.605 -22.221 Z" filter="url(#d)" opacity=".15" style="stroke-width: 1;"/>
    <path d="M -1.605 -12.167 C -2.191 -12.167 -2.663 -12.639 -2.663 -13.225 L -2.663 -13.49 C -2.663 -12.903 -2.191 -12.431 -1.605 -12.431 L 11.624 -12.431 C 12.21 -12.431 12.682 -12.903 12.682 -13.49 L 12.682 -13.225 C 12.682 -12.639 12.21 -12.167 11.624 -12.167 L -1.605 -12.167 Z" filter="url(#d)" opacity=".1" style="stroke-width: 1;"/>
    <path fill="#fff" d="M -1.513 -24.338 C -2.148 -24.338 -2.664 -23.822 -2.663 -23.186 L -2.663 -22.926 C -2.661 -23.56 -2.147 -24.073 -1.513 -24.073 L 1.454 -24.073 C 2.204 -24.073 2.358 -23.99 2.724 -23.443 C 3.021 -23.003 3.564 -23.015 4.48 -23.015 L 11.53 -23.015 C 12.163 -23.018 12.679 -22.508 12.682 -21.875 L 12.682 -22.128 C 12.685 -22.765 12.168 -23.282 11.53 -23.279 L 4.48 -23.279 C 3.564 -23.279 3.021 -23.267 2.725 -23.708 C 2.358 -24.254 2.205 -24.338 1.455 -24.338 L -1.513 -24.338 Z" filter="url(#e)" opacity=".25" style="stroke-width: 1;"/>
  </g>
</svg>