<?xml version="1.0" encoding="utf-8"?>
<svg width="64" height="64" version="1.1" xmlns="http://www.w3.org/2000/svg">
  <defs>
    <filter id="filter8" x="-.012" y="-.012" width="1.024" height="1.024" color-interpolation-filters="sRGB">
      <feGaussianBlur stdDeviation="0.074081873"/>
    </filter>
    <linearGradient id="linearGradient7" x1="2.5981" x2="10.583" y1="2.8356" y2="11.312" gradientUnits="userSpaceOnUse" href="#linearGradient6"/>
    <linearGradient id="linearGradient6">
      <stop stop-color="#ffffff" offset="0"/>
      <stop stop-color="#ffffff" stop-opacity="0" offset="1"/>
    </linearGradient>
    <linearGradient id="linearGradient8" x1="15.081" x2="12.7" y1="14.816" y2="12.171" gradientUnits="userSpaceOnUse" href="#linearGradient6"/>
    <linearGradient id="linearGradient3" x1="8.4665" x2="8.4665" y1="1.0583" y2="15.875" gradientTransform="matrix(3.7796, 0, 0, 3.7796, -0.000145, -0.000283)" gradientUnits="userSpaceOnUse">
      <stop stop-color="#323131" offset="0"/>
      <stop stop-color="#141414" offset="1"/>
    </linearGradient>
  </defs>
  <g>
    <path d="M 20.26 4.001 C 14.478 4.001 10.517 5.725 7.939 8.535 C 5.374 11.332 4 15.339 4 19.876 L 4 44.124 C 4 48.662 5.373 52.67 7.939 55.465 C 10.517 58.276 14.478 60 20.26 60 L 43.809 60 C 49.591 60 53.551 58.276 56.13 55.465 C 58.695 52.669 60 49.03 60 44.124 L 60 20.787 C 60 14.852 58.695 11.331 56.13 8.535 C 53.551 5.725 49.591 4.001 43.809 4.001 L 25.494 4.001 L 20.26 4.001 Z" fill="url(#linearGradient3)" stroke-width="3.7796"/>
    <g transform="matrix(3.7796, 0, 0, 3.7796, 0.000051, 0.000349)" filter="url(#filter8)" opacity=".35">
      <path d="m5.3603 1.0583c-1.5298 0-2.5775 0.45637-3.2597 1.1999-0.67868 0.73981-1.0423 1.8002-1.0423 3.0008v6.415c0 1.2006 0.36361 2.2609 1.0423 3.0008 0.68219 0.74355 1.7299 1.1999 3.2597 1.1999h6.2305c1.5298 0 2.5775-0.45637 3.2597-1.1999 0.67868-0.73981 1.0242-1.7027 1.0242-3.0008v-6.1742c0-1.5703-0.34552-2.5018-1.0242-3.2416-0.68219-0.74355-1.7299-1.1999-3.2597-1.1999h-4.8456zm-0.00103 0.26406h6.2326c1.4772 0 2.437 0.43133 3.0644 1.1152 0.63411 0.69126 0.95341 1.5307 0.95341 3.0623v6.1742c0 1.2512-0.32181 2.1335-0.95341 2.822-0.6274 0.68381-1.5871 1.1136-3.0644 1.1136h-6.2326c-1.4772 0-2.437-0.42978-3.0644-1.1136-0.62537-0.68172-0.97253-1.6747-0.97253-2.822v-6.4145c0-1.1472 0.34717-2.1403 0.97253-2.822 0.6274-0.68381 1.5871-1.1152 3.0644-1.1152z" fill="url(#linearGradient7)"/>
      <path d="m5.3603 1.0583c-1.5298 0-2.5775 0.45637-3.2597 1.1999-0.67868 0.73981-1.0423 1.8002-1.0423 3.0008v6.415c0 1.2006 0.36361 2.2609 1.0423 3.0008 0.68219 0.74355 1.7299 1.1999 3.2597 1.1999h6.2305c1.5298 0 2.5775-0.45637 3.2597-1.1999 0.67868-0.73981 1.0242-1.7027 1.0242-3.0008v-6.1742c0-1.5703-0.34552-2.5018-1.0242-3.2416-0.68219-0.74355-1.7299-1.1999-3.2597-1.1999h-4.8456zm-0.00103 0.26406h6.2326c1.4772 0 2.437 0.43133 3.0644 1.1152 0.63411 0.69126 0.95341 1.5307 0.95341 3.0623v6.1742c0 1.2512-0.32181 2.1335-0.95341 2.822-0.6274 0.68381-1.5871 1.1136-3.0644 1.1136h-6.2326c-1.4772 0-2.437-0.42978-3.0644-1.1136-0.62537-0.68172-0.97253-1.6747-0.97253-2.822v-6.4145c0-1.1472 0.34717-2.1403 0.97253-2.822 0.6274-0.68381 1.5871-1.1152 3.0644-1.1152z" fill="url(#linearGradient8)" stroke-width="1.0001"/>
    </g>
  </g>
  <g transform="matrix(0.456384, 0, 0, 0.456384, 0.575634, 5.332394)">
    <g transform="matrix(0.140625, 0, 0, 0.140625, -29.232911, -159.699557)" aria-label="a" style="font-style: normal; font-variant: normal; font-weight: bold; font-stretch: normal; font-size: 322.102px; line-height: 1.25; font-family: Montserrat; font-feature-settings: normal; text-align: start; letter-spacing: 0px; word-spacing: 0px; writing-mode: lr-tb; text-anchor: start; fill: rgb(129, 61, 156); fill-opacity: 1; stroke: none; stroke-width: 1; display: inline;" id="g1059">
      <path d="m 812.20261,1309.7929 c -27.70079,0 -55.72369,7.4083 -74.72772,20.9366 l 18.03773,35.1092 c 12.56198,-9.9852 31.56602,-16.1051 49.92584,-16.1051 27.05659,0 42.19199,14.4169 42.19199,35.9977 l -50.00981,-0.2354 c -52.82417,-0.2486 -74.40225,26.624 -74.40225,57.2238 0,29.9555 22.04572,51.6578 62.6306,51.6578 25.44607,0 52.4405,-7.5298 61.78146,-23.3128 l 0.003,21.3432 53.33034,-0.01 -0.006,-104.013 c -0.003,-52.5026 -35.93005,-78.5921 -88.75482,-78.5921 z m -11.67969,151.6087 c -17.71562,0 -28.34499,-8.3747 -28.34499,-20.9367 0,-11.5956 7.40547,-23.1197 30.91845,-22.9689 l 44.53407,0.2354 0.003,16.1495 c 0.003,16.8142 -30.36157,27.5207 -47.11089,27.5207 z" style="fill:#813d9c;stroke-width:1" id="path1057"/>
    </g>
    <g aria-label="a" style="font-style: normal; font-weight: normal; font-size: 40px; line-height: 1000%; font-family: sans-serif; letter-spacing: 0px; word-spacing: 0px; fill: rgb(129, 61, 156); fill-opacity: 1; stroke: none; stroke-width: 1px; stroke-linecap: butt; stroke-linejoin: miter; stroke-opacity: 1; display: inline;" id="g1063" transform="matrix(1, 0, 0, 1, 2.694113, -175.923877)">
      <path d="m 55.305889,221.92387 c -0.944974,0.77446 -1.612023,1.05106 -2.445832,1.05106 -1.278503,0 -1.667605,-0.77447 -1.667605,-3.20851 v -10.78724 c 0,-2.8766 -0.277936,-4.48085 -1.111745,-5.80851 -1.22291,-1.99149 -4.573306,-3.04255 -7.852936,-3.04255 -5.225182,0 -9.33863,2.71064 -9.33863,6.19575 0,1.27234 1.056163,2.37871 2.39025,2.37871 1.334086,0 2.501413,-1.10637 2.501413,-2.3234 0,-0.22127 -0.05563,-0.49787 -0.111176,-0.8851 -0.111177,-0.49787 -0.16676,-0.94042 -0.16676,-1.32766 0,-1.49362 1.778783,-2.71064 4.002271,-2.71064 2.723757,0 4.672684,1.60425 4.672684,4.59149 v 4.39862 c -7.655771,2.24877 -9.953459,2.84819 -12.343697,4.95032 -1.22292,1.10637 -2.001135,2.98723 -2.001135,4.81276 0,3.48511 2.445832,5.91915 5.836637,5.91915 2.445831,0 5.172972,-1.1617 8.563777,-4.0383 0.277937,2.93191 1.790584,4.0383 4.069655,4.0383 1.889959,0 3.057287,-0.66383 5.002829,-2.76596 z m -9.128066,-3.1532 c 0,1.65958 -0.277936,2.26809 -1.445263,2.93191 -1.389682,0.77448 -3.338597,1.21703 -4.505924,1.21703 -1.945553,0 -3.501982,-1.88085 -3.501982,-4.25958 v -0.22127 c 0.05563,-3.31915 2.949483,-4.39712 9.453169,-6.6652 z" style="font-style:normal;font-variant:normal;font-weight:normal;font-stretch:normal;font-family:'Nimbus Roman';-inkscape-font-specification:'Nimbus Roman, ';fill:#813d9c;stroke-width:1.38632321px" id="path1061"/>
    </g>
    <path style="font-style: normal; font-variant: normal; font-weight: normal; font-stretch: normal; font-size: medium; line-height: 1000%; font-family: Satisfy; letter-spacing: 0px; word-spacing: 0px; fill: rgb(129, 61, 156); fill-opacity: 1; stroke: none; stroke-width: 1.526; stroke-linecap: butt; stroke-linejoin: miter; stroke-opacity: 1; display: inline;" d="M 86.313 64.674 C 85.399 64.594 84.247 64.912 82.856 65.628 C 81.465 66.343 80.054 67.416 78.624 68.846 C 77.193 70.237 75.862 71.926 74.63 73.913 C 73.438 75.9 72.564 78.105 72.008 80.529 C 71.57 82.317 71.412 83.867 71.531 85.178 C 71.65 86.45 71.928 87.503 72.365 88.337 C 72.802 89.132 73.339 89.708 73.975 90.066 C 74.61 90.463 75.206 90.662 75.763 90.662 C 76.955 90.583 78.147 90.324 79.339 89.887 C 80.372 89.49 81.465 88.874 82.617 88.039 C 83.77 87.165 84.823 85.933 85.776 84.344 C 85.737 85.417 85.796 86.311 85.955 87.026 C 86.154 87.741 86.353 88.318 86.551 88.755 C 86.79 89.271 87.088 89.669 87.445 89.947 C 87.803 90.185 88.22 90.344 88.697 90.424 C 89.174 90.543 89.671 90.583 90.187 90.543 C 90.744 90.503 91.28 90.404 91.797 90.245 C 92.313 90.086 92.77 89.887 93.168 89.649 C 93.764 89.251 94.499 88.576 95.373 87.622 C 96.287 86.629 97.201 85.556 98.115 84.403 C 99.069 83.211 99.982 82.039 100.857 80.887 C 101.731 79.695 102.446 78.701 103.002 77.906 C 103.479 77.271 103.758 76.714 103.837 76.237 C 103.956 75.761 103.936 75.403 103.777 75.165 C 103.618 74.926 103.38 74.847 103.062 74.926 C 102.744 74.966 102.426 75.165 102.108 75.522 C 101.87 75.84 101.473 76.337 100.916 77.012 C 100.4 77.688 99.804 78.463 99.128 79.337 C 98.453 80.211 97.717 81.125 96.923 82.079 C 96.168 82.993 95.433 83.847 94.717 84.642 C 94.002 85.397 93.327 86.033 92.691 86.549 C 92.055 87.026 91.538 87.265 91.141 87.265 C 90.664 87.265 90.287 87.165 90.008 86.967 C 89.77 86.728 89.591 86.43 89.472 86.072 C 89.353 85.715 89.273 85.337 89.234 84.94 C 89.234 84.503 89.253 84.105 89.293 83.748 C 89.412 83.152 89.512 82.655 89.591 82.258 C 89.671 81.86 89.73 81.523 89.77 81.244 C 89.85 80.926 89.909 80.628 89.949 80.35 C 90.028 80.032 90.108 79.695 90.187 79.337 C 90.585 77.509 90.903 76.019 91.141 74.867 C 91.379 73.714 91.558 72.8 91.677 72.125 C 91.797 71.449 91.856 70.992 91.856 70.754 C 91.856 70.476 91.836 70.297 91.797 70.217 C 91.717 70.178 91.558 70.158 91.32 70.158 C 91.121 70.158 90.823 70.178 90.426 70.217 C 90.068 70.257 89.611 70.337 89.055 70.456 C 89.889 69.184 90.207 68.171 90.009 67.416 C 89.85 66.621 89.492 66.025 88.936 65.628 C 88.26 65.191 87.386 64.873 86.313 64.674 L 86.313 64.674 Z M 84.909 68.402 C 85.061 68.41 85.19 68.459 85.3 68.548 C 85.419 68.707 85.498 68.926 85.538 69.204 C 85.578 69.442 85.558 69.78 85.478 70.217 C 85.439 70.615 85.26 71.131 84.942 71.767 C 85.26 71.688 85.578 71.628 85.896 71.588 C 86.214 71.548 86.472 71.489 86.671 71.409 C 86.909 71.33 87.128 71.27 87.326 71.231 C 87.485 71.191 87.505 71.509 87.386 72.184 C 87.306 72.82 87.167 73.635 86.969 74.628 C 86.77 75.622 86.531 76.655 86.253 77.728 C 85.975 78.801 85.737 79.734 85.538 80.529 C 85.498 80.728 85.319 81.046 85.002 81.483 C 84.723 81.92 84.346 82.397 83.869 82.913 C 83.432 83.43 82.915 83.927 82.319 84.403 C 81.763 84.88 81.187 85.278 80.591 85.596 C 80.034 85.874 79.478 86.033 78.922 86.072 C 78.365 86.072 77.869 85.854 77.432 85.417 C 77.193 85.178 77.034 84.682 76.955 83.927 C 76.875 83.132 76.895 82.218 77.014 81.185 C 77.173 80.152 77.432 79.059 77.789 77.906 C 78.147 76.714 78.624 75.602 79.22 74.569 C 80.65 72.065 81.902 70.356 82.975 69.442 C 83.809 68.727 84.455 68.38 84.909 68.402 L 84.909 68.402 Z" id="path1065"/>
    <g transform="matrix(1, 0, 0, 1, 1.796942, -173.923876)" id="g1069" style="fill: rgb(129, 61, 156); display: inline;">
      <path style="color:#000000;font-style:normal;font-variant:normal;font-weight:normal;font-stretch:normal;font-size:medium;line-height:normal;font-family:sans-serif;font-variant-ligatures:normal;font-variant-position:normal;font-variant-caps:normal;font-variant-numeric:normal;font-variant-alternates:normal;font-feature-settings:normal;text-indent:0;text-align:start;text-decoration:none;text-decoration-line:none;text-decoration-style:solid;text-decoration-color:#000000;letter-spacing:normal;word-spacing:normal;text-transform:none;writing-mode:lr-tb;direction:ltr;text-orientation:mixed;dominant-baseline:auto;baseline-shift:baseline;text-anchor:start;white-space:normal;shape-padding:0;clip-rule:nonzero;display:inline;overflow:visible;visibility:visible;opacity:1;isolation:auto;mix-blend-mode:normal;color-interpolation:sRGB;color-interpolation-filters:linearRGB;solid-color:#000000;solid-opacity:1;vector-effect:none;fill:#813d9c;fill-opacity:1;fill-rule:evenodd;stroke:none;stroke-width:4;stroke-linecap:round;stroke-linejoin:miter;stroke-miterlimit:4;stroke-dasharray:none;stroke-dashoffset:0;stroke-opacity:1;color-rendering:auto;image-rendering:auto;shape-rendering:auto;text-rendering:auto;enable-background:accumulate" d="m 37,68 c -2.704645,-0.03825 -2.704645,4.03825 0,4 h 9.880859 c 0.01107,0.001 0.285634,0.0327 0.585938,0.197266 0.306304,0.16789 0.485897,0.188343 0.537109,0.939453 v -0.01953 L 48.25,78.310547 C 47.789324,78.134111 47.480469,78.058594 47.480469,78.058594 L 47.244141,78 H 38 c -4.333333,0 -5.896484,4.367188 -5.896484,4.367188 L 32,82.675781 V 85 c 0,3.03333 1.431289,5.127712 2.939453,6.070312 C 36.447617,92.012912 38,92 38,92 h 7.591797 l 3.392578,-2.203125 0.01953,0.320313 c 0.08969,2.735348 4.223189,2.492675 3.992188,-0.234376 l -1,-17.009765 v -0.0098 c -0.140818,-2.06533 -1.461734,-3.545828 -2.607422,-4.173828 -1.145688,-0.62799 -2.257813,-0.685547 -2.257813,-0.685547 L 47.064453,68 Z m 1,14 h 8.644531 c 0.106906,0.0312 0.525263,0.141312 1.03711,0.482422 0.558515,0.372213 0.877827,0.68942 0.894531,1.355469 L 48.714844,85.201172 44.408203,88 H 38 C 38,88 37.552383,87.9871 37.060547,87.679688 36.568711,87.372288 36,86.96667 36,85 V 83.435547 C 36.102847,83.130577 36.534758,82 38,82 Z" transform="translate(0,172)" id="path1067"/>
    </g>
    <g id="g985" style="font-style: normal; font-variant: normal; font-weight: bold; font-stretch: normal; font-size: 322.102px; line-height: 1.25; font-family: Montserrat; font-feature-settings: normal; text-align: start; letter-spacing: 0px; word-spacing: 0px; writing-mode: lr-tb; text-anchor: start; fill: rgb(255, 255, 255); fill-opacity: 1; stroke: none; stroke-width: 1; display: inline;" aria-label="a" transform="matrix(0.140625, 0, 0, 0.140625, -29.232911, -157.699557)">
      <path id="path983" style="fill:#ffffff;stroke-width:1" d="m 812.20261,1309.7929 c -27.70079,0 -55.72369,7.4083 -74.72772,20.9366 l 18.03773,35.1092 c 12.56198,-9.9852 31.56602,-16.1051 49.92584,-16.1051 27.05659,0 42.19199,14.4169 42.19199,35.9977 l -50.00981,-0.2354 c -52.82417,-0.2486 -74.40225,26.624 -74.40225,57.2238 0,29.9555 22.04572,51.6578 62.6306,51.6578 25.44607,0 52.4405,-7.5298 61.78146,-23.3128 l 0.003,21.3432 53.33034,-0.01 -0.006,-104.013 c -0.003,-52.5026 -35.93005,-78.5921 -88.75482,-78.5921 z m -11.67969,151.6087 c -17.71562,0 -28.34499,-8.3747 -28.34499,-20.9367 0,-11.5956 7.40547,-23.1197 30.91845,-22.9689 l 44.53407,0.2354 0.003,16.1495 c 0.003,16.8142 -30.36157,27.5207 -47.11089,27.5207 z"/>
    </g>
    <g transform="matrix(1, 0, 0, 1, 2.694113, -173.923876)" id="text993" style="font-style: normal; font-weight: normal; font-size: 40px; line-height: 1000%; font-family: sans-serif; letter-spacing: 0px; word-spacing: 0px; fill: rgb(0, 0, 0); fill-opacity: 1; stroke: none; stroke-width: 1px; stroke-linecap: butt; stroke-linejoin: miter; stroke-opacity: 1; display: inline;" aria-label="a">
      <path id="path995" style="font-style:normal;font-variant:normal;font-weight:normal;font-stretch:normal;font-family:'Nimbus Roman';-inkscape-font-specification:'Nimbus Roman, ';fill:#ffffff;stroke-width:1.38632321px" d="m 55.305889,221.92387 c -0.944974,0.77446 -1.612023,1.05106 -2.445832,1.05106 -1.278503,0 -1.667605,-0.77447 -1.667605,-3.20851 v -10.78724 c 0,-2.8766 -0.277936,-4.48085 -1.111745,-5.80851 -1.22291,-1.99149 -4.573306,-3.04255 -7.852936,-3.04255 -5.225182,0 -9.33863,2.71064 -9.33863,6.19575 0,1.27234 1.056163,2.37871 2.39025,2.37871 1.334086,0 2.501413,-1.10637 2.501413,-2.3234 0,-0.22127 -0.05563,-0.49787 -0.111176,-0.8851 -0.111177,-0.49787 -0.16676,-0.94042 -0.16676,-1.32766 0,-1.49362 1.778783,-2.71064 4.002271,-2.71064 2.723757,0 4.672684,1.60425 4.672684,4.59149 v 4.39862 c -7.655771,2.24877 -9.953459,2.84819 -12.343697,4.95032 -1.22292,1.10637 -2.001135,2.98723 -2.001135,4.81276 0,3.48511 2.445832,5.91915 5.836637,5.91915 2.445831,0 5.172972,-1.1617 8.563777,-4.0383 0.277937,2.93191 1.790584,4.0383 4.069655,4.0383 1.889959,0 3.057287,-0.66383 5.002829,-2.76596 z m -9.128066,-3.1532 c 0,1.65958 -0.277936,2.26809 -1.445263,2.93191 -1.389682,0.77448 -3.338597,1.21703 -4.505924,1.21703 -1.945553,0 -3.501982,-1.88085 -3.501982,-4.25958 v -0.22127 c 0.05563,-3.31915 2.949483,-4.39712 9.453169,-6.6652 z"/>
    </g>
    <path id="path1011" d="M 86.313 66.674 C 85.399 66.594 84.247 66.912 82.856 67.628 C 81.465 68.343 80.054 69.416 78.624 70.846 C 77.193 72.237 75.862 73.926 74.63 75.913 C 73.438 77.9 72.564 80.105 72.008 82.529 C 71.57 84.317 71.412 85.867 71.531 87.178 C 71.65 88.45 71.928 89.503 72.365 90.337 C 72.802 91.132 73.339 91.708 73.975 92.066 C 74.61 92.463 75.206 92.662 75.763 92.662 C 76.955 92.583 78.147 92.324 79.339 91.887 C 80.372 91.49 81.465 90.874 82.617 90.039 C 83.77 89.165 84.823 87.933 85.776 86.344 C 85.737 87.417 85.796 88.311 85.955 89.026 C 86.154 89.741 86.353 90.318 86.551 90.755 C 86.79 91.271 87.088 91.669 87.445 91.947 C 87.803 92.185 88.22 92.344 88.697 92.424 C 89.174 92.543 89.671 92.583 90.187 92.543 C 90.744 92.503 91.28 92.404 91.797 92.245 C 92.313 92.086 92.77 91.887 93.168 91.649 C 93.764 91.251 94.499 90.576 95.373 89.622 C 96.287 88.629 97.201 87.556 98.115 86.403 C 99.069 85.211 99.982 84.039 100.857 82.887 C 101.731 81.695 102.446 80.701 103.002 79.906 C 103.479 79.271 103.758 78.714 103.837 78.237 C 103.956 77.761 103.936 77.403 103.777 77.165 C 103.618 76.926 103.38 76.847 103.062 76.926 C 102.744 76.966 102.426 77.165 102.108 77.522 C 101.87 77.84 101.473 78.337 100.916 79.012 C 100.4 79.688 99.804 80.463 99.128 81.337 C 98.453 82.211 97.717 83.125 96.923 84.079 C 96.168 84.993 95.433 85.847 94.717 86.642 C 94.002 87.397 93.327 88.033 92.691 88.549 C 92.055 89.026 91.538 89.265 91.141 89.265 C 90.664 89.265 90.287 89.165 90.008 88.967 C 89.77 88.728 89.591 88.43 89.472 88.072 C 89.353 87.715 89.273 87.337 89.234 86.94 C 89.234 86.503 89.253 86.105 89.293 85.748 C 89.412 85.152 89.512 84.655 89.591 84.258 C 89.671 83.86 89.73 83.523 89.77 83.244 C 89.85 82.926 89.909 82.628 89.949 82.35 C 90.028 82.032 90.108 81.695 90.187 81.337 C 90.585 79.509 90.903 78.019 91.141 76.867 C 91.379 75.714 91.558 74.8 91.677 74.125 C 91.797 73.449 91.856 72.992 91.856 72.754 C 91.856 72.476 91.836 72.297 91.797 72.217 C 91.717 72.178 91.558 72.158 91.32 72.158 C 91.121 72.158 90.823 72.178 90.426 72.217 C 90.068 72.257 89.611 72.337 89.055 72.456 C 89.889 71.184 90.207 70.171 90.009 69.416 C 89.85 68.621 89.492 68.025 88.936 67.628 C 88.26 67.191 87.386 66.873 86.313 66.674 L 86.313 66.674 Z M 84.909 70.402 C 85.061 70.41 85.19 70.459 85.3 70.548 C 85.419 70.707 85.498 70.926 85.538 71.204 C 85.578 71.442 85.558 71.78 85.478 72.217 C 85.439 72.615 85.26 73.131 84.942 73.767 C 85.26 73.688 85.578 73.628 85.896 73.588 C 86.214 73.548 86.472 73.489 86.671 73.409 C 86.909 73.33 87.128 73.27 87.326 73.231 C 87.485 73.191 87.505 73.509 87.386 74.184 C 87.306 74.82 87.167 75.635 86.969 76.628 C 86.77 77.622 86.531 78.655 86.253 79.728 C 85.975 80.801 85.737 81.734 85.538 82.529 C 85.498 82.728 85.319 83.046 85.002 83.483 C 84.723 83.92 84.346 84.397 83.869 84.913 C 83.432 85.43 82.915 85.927 82.319 86.403 C 81.763 86.88 81.187 87.278 80.591 87.596 C 80.034 87.874 79.478 88.033 78.922 88.072 C 78.365 88.072 77.869 87.854 77.432 87.417 C 77.193 87.178 77.034 86.682 76.955 85.927 C 76.875 85.132 76.895 84.218 77.014 83.185 C 77.173 82.152 77.432 81.059 77.789 79.906 C 78.147 78.714 78.624 77.602 79.22 76.569 C 80.65 74.065 81.902 72.356 82.975 71.442 C 83.809 70.727 84.455 70.38 84.909 70.402 L 84.909 70.402 Z" style="font-style: normal; font-variant: normal; font-weight: normal; font-stretch: normal; font-size: medium; line-height: 1000%; font-family: Satisfy; letter-spacing: 0px; word-spacing: 0px; fill: rgb(255, 255, 255); fill-opacity: 1; stroke: none; stroke-width: 1.526; stroke-linecap: butt; stroke-linejoin: miter; stroke-opacity: 1; display: inline;"/>
    <g transform="matrix(1, 0, 0, 1, 1.796942, -171.923876)" id="g1022" style="display: inline;">
      <path id="path1016" transform="translate(0,172)" d="m 37,68 c -2.704645,-0.03825 -2.704645,4.03825 0,4 h 9.880859 c 0.01107,0.001 0.285634,0.0327 0.585938,0.197266 0.306304,0.16789 0.485897,0.188343 0.537109,0.939453 v -0.01953 L 48.25,78.310547 C 47.789324,78.134111 47.480469,78.058594 47.480469,78.058594 L 47.244141,78 H 38 c -4.333333,0 -5.896484,4.367188 -5.896484,4.367188 L 32,82.675781 V 85 c 0,3.03333 1.431289,5.127712 2.939453,6.070312 C 36.447617,92.012912 38,92 38,92 h 7.591797 l 3.392578,-2.203125 0.01953,0.320313 c 0.08969,2.735348 4.223189,2.492675 3.992188,-0.234376 l -1,-17.009765 v -0.0098 c -0.140818,-2.06533 -1.461734,-3.545828 -2.607422,-4.173828 -1.145688,-0.62799 -2.257813,-0.685547 -2.257813,-0.685547 L 47.064453,68 Z m 1,14 h 8.644531 c 0.106906,0.0312 0.525263,0.141312 1.03711,0.482422 0.558515,0.372213 0.877827,0.68942 0.894531,1.355469 L 48.714844,85.201172 44.408203,88 H 38 C 38,88 37.552383,87.9871 37.060547,87.679688 36.568711,87.372288 36,86.96667 36,85 V 83.435547 C 36.102847,83.130577 36.534758,82 38,82 Z" style="color:#000000;font-style:normal;font-variant:normal;font-weight:normal;font-stretch:normal;font-size:medium;line-height:normal;font-family:sans-serif;font-variant-ligatures:normal;font-variant-position:normal;font-variant-caps:normal;font-variant-numeric:normal;font-variant-alternates:normal;font-feature-settings:normal;text-indent:0;text-align:start;text-decoration:none;text-decoration-line:none;text-decoration-style:solid;text-decoration-color:#000000;letter-spacing:normal;word-spacing:normal;text-transform:none;writing-mode:lr-tb;direction:ltr;text-orientation:mixed;dominant-baseline:auto;baseline-shift:baseline;text-anchor:start;white-space:normal;shape-padding:0;clip-rule:nonzero;display:inline;overflow:visible;visibility:visible;opacity:1;isolation:auto;mix-blend-mode:normal;color-interpolation:sRGB;color-interpolation-filters:linearRGB;solid-color:#000000;solid-opacity:1;vector-effect:none;fill:#ffffff;fill-opacity:1;fill-rule:evenodd;stroke:none;stroke-width:4;stroke-linecap:round;stroke-linejoin:miter;stroke-miterlimit:4;stroke-dasharray:none;stroke-dashoffset:0;stroke-opacity:1;color-rendering:auto;image-rendering:auto;shape-rendering:auto;text-rendering:auto;enable-background:accumulate"/>
    </g>
  </g>
</svg>