<?xml version="1.0" encoding="utf-8"?>
<svg width="64" height="64" version="1.1" xmlns="http://www.w3.org/2000/svg">
  <defs>
    <filter id="filter8" x="-.012" y="-.012" width="1.024" height="1.024" color-interpolation-filters="sRGB">
      <feGaussianBlur stdDeviation="0.074081873"/>
    </filter>
    <linearGradient id="linearGradient7" x1="2.5981" x2="10.583" y1="2.8356" y2="11.312" gradientUnits="userSpaceOnUse" href="#linearGradient6"/>
    <linearGradient id="linearGradient6">
      <stop stop-color="#ffffff" offset="0"/>
      <stop stop-color="#ffffff" stop-opacity="0" offset="1"/>
    </linearGradient>
    <linearGradient id="linearGradient8" x1="15.081" x2="12.7" y1="14.816" y2="12.171" gradientUnits="userSpaceOnUse" href="#linearGradient6"/>
    <linearGradient id="linearGradient3" x1="8.4665" x2="8.4665" y1="1.0583" y2="15.875" gradientTransform="matrix(3.7796, 0, 0, 3.7796, -0.000145, -0.000283)" gradientUnits="userSpaceOnUse">
      <stop stop-color="#323131" offset="0"/>
      <stop stop-color="#141414" offset="1"/>
    </linearGradient>
  </defs>
  <g>
    <path d="M 20.26 4.001 C 14.478 4.001 10.517 5.725 7.939 8.535 C 5.374 11.332 4 15.339 4 19.876 L 4 44.124 C 4 48.662 5.373 52.67 7.939 55.465 C 10.517 58.276 14.478 60 20.26 60 L 43.809 60 C 49.591 60 53.551 58.276 56.13 55.465 C 58.695 52.669 60 49.03 60 44.124 L 60 20.787 C 60 14.852 58.695 11.331 56.13 8.535 C 53.551 5.725 49.591 4.001 43.809 4.001 L 25.494 4.001 L 20.26 4.001 Z" fill="url(#linearGradient3)" stroke-width="3.7796"/>
    <g transform="matrix(3.7796, 0, 0, 3.7796, 0.000051, 0.000349)" filter="url(#filter8)" opacity=".35">
      <path d="m5.3603 1.0583c-1.5298 0-2.5775 0.45637-3.2597 1.1999-0.67868 0.73981-1.0423 1.8002-1.0423 3.0008v6.415c0 1.2006 0.36361 2.2609 1.0423 3.0008 0.68219 0.74355 1.7299 1.1999 3.2597 1.1999h6.2305c1.5298 0 2.5775-0.45637 3.2597-1.1999 0.67868-0.73981 1.0242-1.7027 1.0242-3.0008v-6.1742c0-1.5703-0.34552-2.5018-1.0242-3.2416-0.68219-0.74355-1.7299-1.1999-3.2597-1.1999h-4.8456zm-0.00103 0.26406h6.2326c1.4772 0 2.437 0.43133 3.0644 1.1152 0.63411 0.69126 0.95341 1.5307 0.95341 3.0623v6.1742c0 1.2512-0.32181 2.1335-0.95341 2.822-0.6274 0.68381-1.5871 1.1136-3.0644 1.1136h-6.2326c-1.4772 0-2.437-0.42978-3.0644-1.1136-0.62537-0.68172-0.97253-1.6747-0.97253-2.822v-6.4145c0-1.1472 0.34717-2.1403 0.97253-2.822 0.6274-0.68381 1.5871-1.1152 3.0644-1.1152z" fill="url(#linearGradient7)"/>
      <path d="m5.3603 1.0583c-1.5298 0-2.5775 0.45637-3.2597 1.1999-0.67868 0.73981-1.0423 1.8002-1.0423 3.0008v6.415c0 1.2006 0.36361 2.2609 1.0423 3.0008 0.68219 0.74355 1.7299 1.1999 3.2597 1.1999h6.2305c1.5298 0 2.5775-0.45637 3.2597-1.1999 0.67868-0.73981 1.0242-1.7027 1.0242-3.0008v-6.1742c0-1.5703-0.34552-2.5018-1.0242-3.2416-0.68219-0.74355-1.7299-1.1999-3.2597-1.1999h-4.8456zm-0.00103 0.26406h6.2326c1.4772 0 2.437 0.43133 3.0644 1.1152 0.63411 0.69126 0.95341 1.5307 0.95341 3.0623v6.1742c0 1.2512-0.32181 2.1335-0.95341 2.822-0.6274 0.68381-1.5871 1.1136-3.0644 1.1136h-6.2326c-1.4772 0-2.437-0.42978-3.0644-1.1136-0.62537-0.68172-0.97253-1.6747-0.97253-2.822v-6.4145c0-1.1472 0.34717-2.1403 0.97253-2.822 0.6274-0.68381 1.5871-1.1152 3.0644-1.1152z" fill="url(#linearGradient8)" stroke-width="1.0001"/>
    </g>
  </g>
  <g transform="matrix(0.483019, 0, 0, 0.483019, 34.743588, -1.549054)">
    <g transform="matrix(1, 0, 0, 1, -75.776429, -21.493254)">
      <g>
        <g transform="matrix(1, 0, 0, 1, 37.555916, 19.872942)">
          <path d="M 6.521 28.078 L 58.56 28.078 C 60.771 28.078 62.56 29.867 62.56 32.078 L 62.56 38.078 C 62.56 40.289 60.771 42.078 58.56 42.078 L 6.521 42.078 C 4.31 42.078 2.521 40.289 2.521 38.078 L 2.521 32.078 C 2.521 29.867 4.31 28.078 6.521 28.078 Z M 6.521 28.078" fill="#77767b" style="stroke-width: 1;"/>
          <path d="M 6.521 46.078 L 58.56 46.078 C 60.771 46.078 62.56 44.289 62.56 42.078 L 62.56 34.078 C 62.56 31.867 60.771 30.078 58.56 30.078 L 6.521 30.078 C 4.31 30.078 2.521 31.867 2.521 34.078 L 2.521 42.078 C 2.521 44.289 4.31 46.078 6.521 46.078 Z M 6.521 46.078" fill="#6fb182" style="stroke-width: 1;"/>
          <path d="M 2.521 61.078 L 2.521 63.078 C 2.521 66.957 5.642 70.078 9.521 70.078 C 13.4 70.078 16.521 66.957 16.521 63.078 L 16.521 61.078 L 2.521 61.078 Z M 2.521 61.078" fill="#5e5c64" style="stroke-width: 1;"/>
          <path d="M 9.521 54.078 C 13.388 54.078 16.521 57.211 16.521 61.078 C 16.521 64.945 13.388 68.078 9.521 68.078 C 5.654 68.078 2.521 64.945 2.521 61.078 C 2.521 57.211 5.654 54.078 9.521 54.078 Z M 9.521 54.078" fill="#9a9996" style="stroke-width: 1;"/>
          <path d="M 25.533 61.078 L 25.533 63.078 C 25.533 66.957 28.654 70.078 32.533 70.078 C 36.408 70.078 39.533 66.957 39.533 63.078 L 39.533 61.078 L 25.533 61.078 Z M 25.533 61.078" fill="#5e5c64" style="stroke-width: 1;"/>
          <path d="M 32.521 54.078 C 36.388 54.078 39.521 57.211 39.521 61.078 C 39.521 64.945 36.388 68.078 32.521 68.078 C 28.654 68.078 25.521 64.945 25.521 61.078 C 25.521 57.211 28.654 54.078 32.521 54.078 Z M 32.521 54.078" fill="#9a9996" style="stroke-width: 1;"/>
          <path d="M 48.521 61.078 L 48.521 63.078 C 48.521 66.957 51.642 70.078 55.521 70.078 C 59.4 70.078 62.521 66.957 62.521 63.078 L 62.521 61.078 L 48.521 61.078 Z M 48.521 61.078" fill="#5e5c64" style="stroke-width: 1;"/>
          <path d="M 55.521 54.078 C 59.388 54.078 62.521 57.211 62.521 61.078 C 62.521 64.945 59.388 68.078 55.521 68.078 C 51.654 68.078 48.521 64.945 48.521 61.078 C 48.521 57.211 51.654 54.078 55.521 54.078 Z M 55.521 54.078" fill="#9a9996" style="stroke-width: 1;"/>
          <path d="M 2.521 83.078 L 2.521 85.078 C 2.521 88.957 5.642 92.078 9.521 92.078 C 13.4 92.078 16.521 88.957 16.521 85.078 L 16.521 83.078 L 2.521 83.078 Z M 2.521 83.078" fill="#3d3846" style="stroke-width: 1;"/>
          <path d="M 25.533 83.078 L 25.533 85.078 C 25.533 88.957 28.654 92.078 32.533 92.078 C 36.408 92.078 39.533 88.957 39.533 85.078 L 39.533 83.078 L 25.533 83.078 Z M 25.533 83.078" fill="#3d3846" style="stroke-width: 1;"/>
          <path d="M 9.521 76.078 C 13.388 76.078 16.521 79.211 16.521 83.078 C 16.521 86.945 13.388 90.078 9.521 90.078 C 5.654 90.078 2.521 86.945 2.521 83.078 C 2.521 79.211 5.654 76.078 9.521 76.078 Z M 9.521 76.078" fill="#5e5c64" style="stroke-width: 1;"/>
          <path d="M 32.521 76.078 C 36.388 76.078 39.521 79.211 39.521 83.078 C 39.521 86.945 36.388 90.078 32.521 90.078 C 28.654 90.078 25.521 86.945 25.521 83.078 C 25.521 79.211 28.654 76.078 32.521 76.078 Z M 32.521 76.078" fill="#5e5c64" style="stroke-width: 1;"/>
          <path d="M 2.521 105.078 L 2.521 107.078 C 2.521 110.957 5.642 114.078 9.521 114.078 C 13.4 114.078 16.521 110.957 16.521 107.078 L 16.521 105.078 L 2.521 105.078 Z M 2.521 105.078" fill="#3d3846" style="stroke-width: 1;"/>
          <path d="M 9.521 98.078 C 13.388 98.078 16.521 101.211 16.521 105.078 C 16.521 108.945 13.388 112.078 9.521 112.078 C 5.654 112.078 2.521 108.945 2.521 105.078 C 2.521 101.211 5.654 98.078 9.521 98.078 Z M 9.521 98.078" fill="#5e5c64" style="stroke-width: 1;"/>
          <path d="M 25.533 105.078 L 25.533 107.078 C 25.533 110.957 28.654 114.078 32.533 114.078 C 36.408 114.078 39.533 110.957 39.533 107.078 L 39.533 105.078 L 25.533 105.078 Z M 25.533 105.078" fill="#3d3846" style="stroke-width: 1;"/>
          <path d="M 32.521 98.078 C 36.388 98.078 39.521 101.211 39.521 105.078 C 39.521 108.945 36.388 112.078 32.521 112.078 C 28.654 112.078 25.521 108.945 25.521 105.078 C 25.521 101.211 28.654 98.078 32.521 98.078 Z M 32.521 98.078" fill="#5e5c64" style="stroke-width: 1;"/>
          <path d="M 55.521 96.078 C 59.388 96.078 62.521 99.211 62.521 103.078 L 62.521 107.078 C 62.521 110.945 59.388 114.078 55.521 114.078 C 51.654 114.078 48.521 110.945 48.521 107.078 L 48.521 103.078 C 48.521 99.211 51.654 96.078 55.521 96.078 Z M 55.521 96.078" fill="#c64600" style="stroke-width: 1;"/>
          <path d="M 55.521 76.078 C 59.388 76.078 62.521 79.211 62.521 83.078 L 62.521 105.078 C 62.521 108.945 59.388 112.078 55.521 112.078 C 51.654 112.078 48.521 108.945 48.521 105.078 L 48.521 83.078 C 48.521 79.211 51.654 76.078 55.521 76.078 Z M 55.521 76.078" fill="#ff7800" style="stroke-width: 1;"/>
        </g>
      </g>
    </g>
  </g>
</svg>