<?xml version="1.0" encoding="utf-8"?>
<svg width="64" height="64" version="1.1" xmlns="http://www.w3.org/2000/svg">
  <defs>
    <filter id="filter8" x="-.012" y="-.012" width="1.024" height="1.024" color-interpolation-filters="sRGB">
      <feGaussianBlur stdDeviation="0.074081873"/>
    </filter>
    <linearGradient id="linearGradient7" x1="2.5981" x2="10.583" y1="2.8356" y2="11.312" gradientUnits="userSpaceOnUse" href="#linearGradient6"/>
    <linearGradient id="linearGradient6">
      <stop stop-color="#ffffff" offset="0"/>
      <stop stop-color="#ffffff" stop-opacity="0" offset="1"/>
    </linearGradient>
    <linearGradient id="linearGradient8" x1="15.081" x2="12.7" y1="14.816" y2="12.171" gradientUnits="userSpaceOnUse" href="#linearGradient6"/>
    <linearGradient id="linearGradient3" x1="8.4665" x2="8.4665" y1="1.0583" y2="15.875" gradientTransform="matrix(3.7796, 0, 0, 3.7796, -0.000145, -0.000283)" gradientUnits="userSpaceOnUse">
      <stop stop-color="#323131" offset="0"/>
      <stop stop-color="#141414" offset="1"/>
    </linearGradient>
    <linearGradient x2="1" gradientTransform="matrix(0, 2.480772, -4.961544, 0, 45.200977, 21.25032)" gradientUnits="userSpaceOnUse" id="linearGradient1383" href="#paint3_linear-2-6-5"/>
    <linearGradient gradientTransform="matrix(0,6,-12,0,-64,209.99687)" gradientUnits="userSpaceOnUse" x2="1" id="paint3_linear-2-6-5">
      <stop id="stop91-0-7-4" stop-color="#C01C27"/>
      <stop id="stop93-2-5-7" stop-color="#E01B24" offset="1"/>
    </linearGradient>
  </defs>
  <g>
    <path d="M 20.26 4.001 C 14.478 4.001 10.517 5.725 7.939 8.535 C 5.374 11.332 4 15.339 4 19.876 L 4 44.124 C 4 48.662 5.373 52.67 7.939 55.465 C 10.517 58.276 14.478 60 20.26 60 L 43.809 60 C 49.591 60 53.551 58.276 56.13 55.465 C 58.695 52.669 60 49.03 60 44.124 L 60 20.787 C 60 14.852 58.695 11.331 56.13 8.535 C 53.551 5.725 49.591 4.001 43.809 4.001 L 25.494 4.001 L 20.26 4.001 Z" fill="url(#linearGradient3)" stroke-width="3.7796"/>
    <g transform="matrix(3.7796, 0, 0, 3.7796, 0.000051, 0.000349)" filter="url(#filter8)" opacity=".35">
      <path d="m5.3603 1.0583c-1.5298 0-2.5775 0.45637-3.2597 1.1999-0.67868 0.73981-1.0423 1.8002-1.0423 3.0008v6.415c0 1.2006 0.36361 2.2609 1.0423 3.0008 0.68219 0.74355 1.7299 1.1999 3.2597 1.1999h6.2305c1.5298 0 2.5775-0.45637 3.2597-1.1999 0.67868-0.73981 1.0242-1.7027 1.0242-3.0008v-6.1742c0-1.5703-0.34552-2.5018-1.0242-3.2416-0.68219-0.74355-1.7299-1.1999-3.2597-1.1999h-4.8456zm-0.00103 0.26406h6.2326c1.4772 0 2.437 0.43133 3.0644 1.1152 0.63411 0.69126 0.95341 1.5307 0.95341 3.0623v6.1742c0 1.2512-0.32181 2.1335-0.95341 2.822-0.6274 0.68381-1.5871 1.1136-3.0644 1.1136h-6.2326c-1.4772 0-2.437-0.42978-3.0644-1.1136-0.62537-0.68172-0.97253-1.6747-0.97253-2.822v-6.4145c0-1.1472 0.34717-2.1403 0.97253-2.822 0.6274-0.68381 1.5871-1.1152 3.0644-1.1152z" fill="url(#linearGradient7)"/>
      <path d="m5.3603 1.0583c-1.5298 0-2.5775 0.45637-3.2597 1.1999-0.67868 0.73981-1.0423 1.8002-1.0423 3.0008v6.415c0 1.2006 0.36361 2.2609 1.0423 3.0008 0.68219 0.74355 1.7299 1.1999 3.2597 1.1999h6.2305c1.5298 0 2.5775-0.45637 3.2597-1.1999 0.67868-0.73981 1.0242-1.7027 1.0242-3.0008v-6.1742c0-1.5703-0.34552-2.5018-1.0242-3.2416-0.68219-0.74355-1.7299-1.1999-3.2597-1.1999h-4.8456zm-0.00103 0.26406h6.2326c1.4772 0 2.437 0.43133 3.0644 1.1152 0.63411 0.69126 0.95341 1.5307 0.95341 3.0623v6.1742c0 1.2512-0.32181 2.1335-0.95341 2.822-0.6274 0.68381-1.5871 1.1136-3.0644 1.1136h-6.2326c-1.4772 0-2.437-0.42978-3.0644-1.1136-0.62537-0.68172-0.97253-1.6747-0.97253-2.822v-6.4145c0-1.1472 0.34717-2.1403 0.97253-2.822 0.6274-0.68381 1.5871-1.1152 3.0644-1.1152z" fill="url(#linearGradient8)" stroke-width="1.0001"/>
    </g>
  </g>
  <rect ry="13.072" id="rect1371" rx="13.072" height="11.577" width="11.577" style="display: inline; fill: rgb(245, 194, 17); stroke-width: 0.413;" x="36.962" y="14.635"/>
  <path id="path1373" d="M 40.24 21.665 L 45.201 21.665 L 45.201 22.077 C 45.201 22.991 44.461 23.731 43.547 23.731 L 41.893 23.731 C 40.98 23.731 40.24 22.991 40.24 22.077 L 40.24 21.665 Z" style="display: inline; fill: url(&quot;#linearGradient1383&quot;); stroke-width: 0.413;"/>
  <rect id="rect1375" height="0.827" width="4.962" style="display: inline; fill: rgb(255, 255, 255); stroke-width: 0.413;" x="40.24" y="21.25"/>
  <path id="path1377" d="M 40.24 19.183 C 40.24 18.955 40.425 18.77 40.653 18.77 C 40.881 18.77 41.066 18.955 41.066 19.183 L 41.066 20.423 L 40.24 20.423 L 40.24 19.183 Z" style="display: inline; fill: rgb(180, 86, 0); stroke-width: 0.413;"/>
  <path id="path1379" d="M 44.374 19.183 C 44.374 18.955 44.559 18.77 44.788 18.77 C 45.016 18.77 45.201 18.955 45.201 19.183 L 45.201 20.423 L 44.374 20.423 L 44.374 19.183 Z" style="display: inline; fill: rgb(180, 86, 0); stroke-width: 0.413;"/>
  <path style="color: rgb(0, 0, 0); font-style: normal; font-variant: normal; font-weight: normal; font-stretch: normal; font-size: medium; line-height: normal; font-family: sans-serif; font-feature-settings: normal; text-indent: 0px; text-align: start; text-decoration: rgb(0, 0, 0); letter-spacing: normal; word-spacing: normal; text-transform: none; writing-mode: lr-tb; direction: ltr; text-orientation: mixed; dominant-baseline: auto; baseline-shift: baseline; text-anchor: start; white-space: normal; clip-rule: nonzero; display: inline; overflow: visible; visibility: visible; opacity: 1; isolation: auto; mix-blend-mode: normal; color-interpolation: srgb; color-interpolation-filters: linearrgb; vector-effect: none; fill: rgb(98, 160, 234); fill-opacity: 1; fill-rule: nonzero; stroke: none; stroke-width: 1.654; stroke-linecap: butt; stroke-linejoin: round; stroke-miterlimit: 4; stroke-dasharray: none; stroke-dashoffset: 0; stroke-opacity: 1; color-rendering: auto; image-rendering: auto; shape-rendering: auto; text-rendering: auto;" d="M 17.115 15.462 L 17.115 22.491 C 17.115 22.491 17.167 23.656 15.918 24.28 L 16.659 25.759 C 18.718 24.729 18.769 22.491 18.769 22.491 L 18.769 22.077 L 23.731 22.077 L 23.731 22.904 C 23.731 22.904 23.719 23.387 23.536 23.826 C 23.353 24.266 23.193 24.558 22.49 24.558 L 22.077 24.558 L 21.25 26.212 L 22.077 26.212 L 22.49 26.212 C 23.855 26.212 24.729 25.263 25.063 24.463 C 25.396 23.662 25.385 22.904 25.385 22.904 L 25.385 15.462 L 17.115 15.462 Z M 18.769 17.116 L 23.731 17.116 L 23.731 17.943 L 18.769 17.943 L 18.769 17.116 Z M 18.769 19.596 L 23.731 19.596 L 23.731 20.423 L 18.769 20.423 L 18.769 19.596 Z" id="path1385"/>
  <path style="color: rgb(0, 0, 0); font-style: normal; font-variant: normal; font-weight: normal; font-stretch: normal; font-size: medium; line-height: normal; font-family: sans-serif; font-feature-settings: normal; text-indent: 0px; text-align: start; text-decoration: rgb(0, 0, 0); letter-spacing: normal; word-spacing: normal; text-transform: none; writing-mode: lr-tb; direction: ltr; text-orientation: mixed; dominant-baseline: auto; baseline-shift: baseline; text-anchor: start; white-space: normal; clip-rule: nonzero; display: inline; overflow: visible; visibility: visible; opacity: 1; isolation: auto; mix-blend-mode: normal; color-interpolation: srgb; color-interpolation-filters: linearrgb; vector-effect: none; fill: rgb(38, 162, 105); fill-opacity: 1; fill-rule: nonzero; stroke: none; stroke-width: 1.654; stroke-linecap: butt; stroke-linejoin: miter; stroke-miterlimit: 4; stroke-dasharray: none; stroke-dashoffset: 0; stroke-opacity: 1; color-rendering: auto; image-rendering: auto; shape-rendering: auto; text-rendering: auto;" d="M 44.404 36.135 C 43.947 36.135 43.577 36.505 43.577 36.962 C 43.577 37.419 43.947 37.789 44.404 37.789 C 44.861 37.789 45.231 37.419 45.231 36.962 C 45.231 36.505 44.861 36.135 44.404 36.135 Z M 42.75 38.616 C 42.293 38.616 41.923 38.986 41.923 39.443 C 41.923 39.9 42.293 40.27 42.75 40.27 C 43.207 40.27 43.577 39.9 43.577 39.443 C 43.577 38.986 43.207 38.616 42.75 38.616 Z M 46.058 38.616 C 45.601 38.616 45.231 38.986 45.231 39.443 C 45.231 39.9 45.601 40.27 46.058 40.27 C 46.515 40.27 46.885 39.9 46.885 39.443 C 46.885 38.986 46.515 38.616 46.058 38.616 Z M 48.539 41.096 L 46.885 41.923 L 46.885 43.577 L 45.231 43.577 L 45.231 42.75 L 45.231 41.923 L 43.577 42.75 L 43.577 43.577 L 40.269 43.576 L 40.299 45.231 C 40.299 45.697 39.939 46.057 39.472 46.057 C 39.006 46.057 38.645 45.697 38.645 45.23 L 36.991 45.23 C 36.991 46.591 38.112 47.711 39.472 47.711 C 40.832 47.711 41.953 46.591 41.953 45.23 L 48.539 45.231 L 48.539 41.096 Z M 41.953 42.749 L 40.299 43.576 L 41.953 43.576 L 41.953 42.749 Z" id="path1389"/>
  <path id="path1391" d="M 36.991 45.23 L 38.645 44.403 L 38.645 45.23 L 36.991 45.23 Z" style="display: inline; fill: rgb(38, 162, 105); stroke-width: 0.413;"/>
  <path style="fill: none; fill-rule: evenodd; stroke-width: 1.654; stroke-linejoin: miter; stroke-miterlimit: 4; stroke-dasharray: none; stroke-opacity: 1; display: inline; transform-box: fill-box; transform-origin: 50% 50%; stroke: rgba(150, 149, 147, 0.275); stroke-linecap: round;" d="M 10.5 31.173 L 53.5 31.173" id="path1397" transform="matrix(1, 0, 0, 1, 0, -0.000002)"/>
  <path id="path1395" d="M 32 11.327 L 32 52.673" style="fill: none; fill-rule: evenodd; stroke-width: 1.654; stroke-linejoin: miter; stroke-miterlimit: 4; stroke-dasharray: none; stroke-opacity: 1; display: inline; transform-box: fill-box; transform-origin: 50% 50%; stroke: rgba(150, 149, 147, 0.275); stroke-linecap: round;" transform="matrix(1, 0, 0, 1, -0.000004, 0)"/>
  <path d="M 20.49 41.159 C 20.49 40.85 20.439 40.581 20.337 40.354 C 20.235 40.123 20.101 39.929 19.934 39.771 C 19.869 39.707 19.8 39.646 19.726 39.591 C 19.615 39.508 19.537 39.443 19.49 39.397 C 19.305 39.221 19.166 39.017 19.074 38.786 C 18.981 38.555 18.935 38.309 18.935 38.051 C 18.935 37.782 18.983 37.535 19.081 37.308 C 19.178 37.081 19.314 36.88 19.49 36.704 C 19.638 36.556 19.846 36.417 20.115 36.288 C 20.328 36.186 20.566 36.135 20.83 36.135 C 21.093 36.135 21.336 36.186 21.558 36.288 C 21.808 36.399 22.016 36.538 22.183 36.704 C 22.359 36.88 22.495 37.081 22.593 37.308 C 22.69 37.535 22.738 37.782 22.738 38.051 C 22.738 38.333 22.69 38.585 22.593 38.807 C 22.495 39.024 22.359 39.221 22.183 39.397 C 22.136 39.443 22.053 39.508 21.933 39.591 C 21.896 39.619 21.831 39.679 21.739 39.771 C 21.549 39.957 21.408 40.162 21.315 40.389 C 21.228 40.611 21.183 40.868 21.183 41.159 C 21.498 41.159 21.771 41.106 22.003 41 C 22.239 40.889 22.433 40.757 22.586 40.604 C 22.645 40.544 22.703 40.477 22.759 40.403 C 22.842 40.287 22.907 40.206 22.953 40.16 C 23.134 39.98 23.34 39.843 23.571 39.751 C 23.802 39.654 24.048 39.605 24.307 39.605 C 24.575 39.605 24.822 39.654 25.049 39.751 C 25.276 39.848 25.477 39.984 25.653 40.16 C 25.82 40.327 25.958 40.535 26.069 40.785 C 26.166 41.002 26.215 41.243 26.215 41.507 C 26.215 41.77 26.166 42.011 26.069 42.228 C 25.958 42.478 25.82 42.686 25.653 42.853 C 25.477 43.029 25.276 43.165 25.049 43.262 C 24.822 43.359 24.575 43.408 24.307 43.408 C 24.048 43.408 23.802 43.362 23.571 43.269 C 23.34 43.172 23.134 43.033 22.953 42.853 C 22.907 42.807 22.842 42.726 22.759 42.61 C 22.703 42.536 22.645 42.469 22.586 42.409 C 22.396 42.228 22.187 42.092 21.961 41.999 C 21.739 41.902 21.479 41.854 21.183 41.854 C 21.183 42.168 21.237 42.444 21.343 42.679 C 21.454 42.911 21.586 43.103 21.739 43.255 C 21.799 43.316 21.866 43.373 21.94 43.429 C 22.056 43.512 22.136 43.577 22.183 43.623 C 22.363 43.803 22.5 44.009 22.593 44.241 C 22.69 44.472 22.738 44.717 22.738 44.976 C 22.738 45.245 22.69 45.492 22.593 45.719 C 22.495 45.946 22.359 46.147 22.183 46.323 C 22.016 46.489 21.808 46.628 21.558 46.739 C 21.341 46.837 21.1 46.885 20.837 46.885 C 20.573 46.885 20.332 46.837 20.115 46.739 C 19.865 46.628 19.657 46.489 19.49 46.323 C 19.314 46.147 19.178 45.946 19.081 45.719 C 18.983 45.492 18.935 45.245 18.935 44.976 C 18.935 44.717 18.981 44.472 19.074 44.241 C 19.171 44.009 19.31 43.803 19.49 43.623 C 19.537 43.577 19.617 43.512 19.733 43.429 C 19.807 43.373 19.874 43.316 19.934 43.255 C 20.115 43.066 20.251 42.86 20.344 42.638 C 20.441 42.411 20.49 42.15 20.49 41.854 C 20.198 41.854 19.937 41.902 19.705 41.999 C 19.479 42.092 19.275 42.228 19.095 42.409 C 19.03 42.473 18.97 42.543 18.914 42.617 C 18.831 42.728 18.766 42.807 18.72 42.853 C 18.544 43.038 18.34 43.177 18.109 43.269 C 17.878 43.362 17.633 43.408 17.373 43.408 C 17.105 43.408 16.858 43.359 16.631 43.262 C 16.404 43.165 16.203 43.029 16.027 42.853 C 15.875 42.705 15.736 42.496 15.611 42.228 C 15.509 42.016 15.458 41.777 15.458 41.513 C 15.458 41.25 15.509 41.007 15.611 40.785 C 15.722 40.535 15.861 40.327 16.027 40.16 C 16.203 39.984 16.404 39.848 16.631 39.751 C 16.858 39.654 17.105 39.605 17.373 39.605 C 17.656 39.605 17.906 39.654 18.123 39.751 C 18.345 39.848 18.544 39.984 18.72 40.16 C 18.766 40.206 18.831 40.29 18.914 40.41 C 18.942 40.447 19.002 40.512 19.095 40.604 C 19.28 40.789 19.486 40.928 19.712 41.021 C 19.939 41.113 20.198 41.159 20.49 41.159 Z" style="font-style: normal; font-weight: normal; font-size: medium; line-height: 1000%; font-family: sans-serif; letter-spacing: 0px; word-spacing: 0px; fill: rgb(163, 71, 186); fill-opacity: 1; stroke: none; stroke-width: 0.355; stroke-linecap: butt; stroke-linejoin: miter; stroke-opacity: 1; display: inline;" id="path1476"/>
</svg>