<?xml version="1.0" encoding="utf-8"?>
<svg width="64" height="64" version="1.1" xmlns="http://www.w3.org/2000/svg">
  <defs>
    <filter id="filter8" x="-.012" y="-.012" width="1.024" height="1.024" color-interpolation-filters="sRGB">
      <feGaussianBlur stdDeviation="0.074081873"/>
    </filter>
    <linearGradient id="linearGradient7" x1="2.5981" x2="10.583" y1="2.8356" y2="11.312" gradientUnits="userSpaceOnUse" href="#linearGradient6"/>
    <linearGradient id="linearGradient6">
      <stop stop-color="#ffffff" offset="0"/>
      <stop stop-color="#ffffff" stop-opacity="0" offset="1"/>
    </linearGradient>
    <linearGradient id="linearGradient8" x1="15.081" x2="12.7" y1="14.816" y2="12.171" gradientUnits="userSpaceOnUse" href="#linearGradient6"/>
    <linearGradient id="linearGradient3" x1="8.4665" x2="8.4665" y1="1.0583" y2="15.875" gradientTransform="matrix(3.7796, 0, 0, 3.7796, -0.000145, -0.000283)" gradientUnits="userSpaceOnUse">
      <stop stop-color="#323131" offset="0"/>
      <stop stop-color="#141414" offset="1"/>
    </linearGradient>
    <filter id="c" width="1.211" height="1.487" x="-.105" y="-.243" color-interpolation-filters="sRGB">
      <feGaussianBlur stdDeviation=".834"/>
    </filter>
    <linearGradient id="d" x1="30.875" x2="30.875" y1="26.166" y2="49.821" gradientUnits="userSpaceOnUse" gradientTransform="matrix(1, 0, 0, 1, -0.24976, 0.496451)" spreadMethod="pad">
      <stop offset="0"/>
      <stop offset="1" stop-opacity=".75"/>
    </linearGradient>
    <filter id="e" width="1.125" height="1.041" x="-.062" y="-.02" color-interpolation-filters="sRGB">
      <feGaussianBlur stdDeviation=".193"/>
    </filter>
  </defs>
  <g>
    <path d="M 20.26 4.001 C 14.478 4.001 10.517 5.725 7.939 8.535 C 5.374 11.332 4 15.339 4 19.876 L 4 44.124 C 4 48.662 5.373 52.67 7.939 55.465 C 10.517 58.276 14.478 60 20.26 60 L 43.809 60 C 49.591 60 53.551 58.276 56.13 55.465 C 58.695 52.669 60 49.03 60 44.124 L 60 20.787 C 60 14.852 58.695 11.331 56.13 8.535 C 53.551 5.725 49.591 4.001 43.809 4.001 L 25.494 4.001 L 20.26 4.001 Z" fill="url(#linearGradient3)" stroke-width="3.7796"/>
    <g transform="matrix(3.7796, 0, 0, 3.7796, 0.000051, 0.000349)" filter="url(#filter8)" opacity=".35">
      <path d="m5.3603 1.0583c-1.5298 0-2.5775 0.45637-3.2597 1.1999-0.67868 0.73981-1.0423 1.8002-1.0423 3.0008v6.415c0 1.2006 0.36361 2.2609 1.0423 3.0008 0.68219 0.74355 1.7299 1.1999 3.2597 1.1999h6.2305c1.5298 0 2.5775-0.45637 3.2597-1.1999 0.67868-0.73981 1.0242-1.7027 1.0242-3.0008v-6.1742c0-1.5703-0.34552-2.5018-1.0242-3.2416-0.68219-0.74355-1.7299-1.1999-3.2597-1.1999h-4.8456zm-0.00103 0.26406h6.2326c1.4772 0 2.437 0.43133 3.0644 1.1152 0.63411 0.69126 0.95341 1.5307 0.95341 3.0623v6.1742c0 1.2512-0.32181 2.1335-0.95341 2.822-0.6274 0.68381-1.5871 1.1136-3.0644 1.1136h-6.2326c-1.4772 0-2.437-0.42978-3.0644-1.1136-0.62537-0.68172-0.97253-1.6747-0.97253-2.822v-6.4145c0-1.1472 0.34717-2.1403 0.97253-2.822 0.6274-0.68381 1.5871-1.1152 3.0644-1.1152z" fill="url(#linearGradient7)"/>
      <path d="m5.3603 1.0583c-1.5298 0-2.5775 0.45637-3.2597 1.1999-0.67868 0.73981-1.0423 1.8002-1.0423 3.0008v6.415c0 1.2006 0.36361 2.2609 1.0423 3.0008 0.68219 0.74355 1.7299 1.1999 3.2597 1.1999h6.2305c1.5298 0 2.5775-0.45637 3.2597-1.1999 0.67868-0.73981 1.0242-1.7027 1.0242-3.0008v-6.1742c0-1.5703-0.34552-2.5018-1.0242-3.2416-0.68219-0.74355-1.7299-1.1999-3.2597-1.1999h-4.8456zm-0.00103 0.26406h6.2326c1.4772 0 2.437 0.43133 3.0644 1.1152 0.63411 0.69126 0.95341 1.5307 0.95341 3.0623v6.1742c0 1.2512-0.32181 2.1335-0.95341 2.822-0.6274 0.68381-1.5871 1.1136-3.0644 1.1136h-6.2326c-1.4772 0-2.437-0.42978-3.0644-1.1136-0.62537-0.68172-0.97253-1.6747-0.97253-2.822v-6.4145c0-1.1472 0.34717-2.1403 0.97253-2.822 0.6274-0.68381 1.5871-1.1152 3.0644-1.1152z" fill="url(#linearGradient8)" stroke-width="1.0001"/>
    </g>
  </g>
  <path fill="#fe5c54" d="M 22.751 15.108 L 22.751 13.886 L 29.193 13.886 L 29.193 15.108 L 26.7 15.108 L 26.7 21.979 L 25.25 21.979 L 25.25 15.108 L 22.751 15.108 Z M 31.654 22.055 C 31.027 22.055 30.524 21.856 30.144 21.458 C 29.764 21.059 29.574 20.496 29.574 19.768 L 29.574 15.907 L 30.985 15.907 L 30.985 19.552 C 30.985 19.957 31.09 20.276 31.3 20.508 C 31.513 20.74 31.805 20.856 32.175 20.856 C 32.551 20.856 32.861 20.734 33.104 20.492 C 33.346 20.249 33.468 19.907 33.468 19.465 L 33.468 15.907 L 34.885 15.907 L 34.885 21.98 L 33.544 21.98 L 33.533 20.763 C 33.171 21.625 32.544 22.056 31.653 22.056 M 39.067 22.105 C 38.455 22.105 37.928 21.976 37.487 21.719 C 37.048 21.462 36.709 21.1 36.471 20.633 C 36.235 20.166 36.117 19.616 36.117 18.982 C 36.117 18.359 36.233 17.812 36.465 17.342 C 36.7 16.867 37.031 16.497 37.459 16.233 C 37.889 15.965 38.394 15.831 38.974 15.831 C 39.467 15.831 39.924 15.939 40.344 16.157 C 40.767 16.37 41.107 16.703 41.364 17.157 C 41.621 17.605 41.75 18.185 41.75 18.895 L 41.75 19.34 L 37.524 19.34 C 37.542 19.88 37.692 20.291 37.975 20.573 C 38.261 20.855 38.631 20.997 39.083 20.997 C 39.394 20.997 39.66 20.93 39.882 20.796 C 40.106 20.662 40.265 20.466 40.36 20.209 L 41.658 20.475 C 41.513 20.964 41.212 21.359 40.756 21.66 C 40.303 21.956 39.74 22.105 39.066 22.105 M 37.529 18.379 L 40.375 18.379 C 40.331 17.944 40.192 17.596 39.957 17.336 C 39.725 17.071 39.399 16.939 38.979 16.939 C 38.547 16.939 38.205 17.078 37.952 17.358 C 37.702 17.633 37.561 17.973 37.529 18.378" aria-label="Tue" filter="url(#c)" opacity=".25" style="stroke-width: 1;"/>
  <path fill="#fe5c54" stroke="#fff" stroke-linecap="round" stroke-linejoin="round" stroke-width=".2" d="M 22.251 14.719 L 22.251 13.497 L 28.693 13.497 L 28.693 14.719 L 26.2 14.719 L 26.2 21.59 L 24.75 21.59 L 24.75 14.719 L 22.251 14.719 Z M 31.154 21.666 C 30.527 21.666 30.024 21.467 29.644 21.069 C 29.264 20.67 29.074 20.107 29.074 19.379 L 29.074 15.517 L 30.485 15.517 L 30.485 19.162 C 30.485 19.567 30.59 19.886 30.8 20.118 C 31.013 20.35 31.305 20.466 31.675 20.466 C 32.051 20.466 32.361 20.344 32.604 20.102 C 32.846 19.859 32.968 19.517 32.968 19.075 L 32.968 15.517 L 34.385 15.517 L 34.385 21.59 L 33.044 21.59 L 33.033 20.373 C 32.671 21.235 32.044 21.666 31.153 21.666 M 38.567 21.715 C 37.955 21.715 37.428 21.586 36.987 21.329 C 36.548 21.072 36.209 20.71 35.971 20.243 C 35.735 19.776 35.617 19.226 35.617 18.592 C 35.617 17.969 35.733 17.422 35.965 16.952 C 36.2 16.477 36.531 16.107 36.959 15.843 C 37.389 15.575 37.894 15.441 38.474 15.441 C 38.967 15.441 39.424 15.549 39.844 15.767 C 40.267 15.98 40.607 16.313 40.864 16.767 C 41.121 17.215 41.25 17.795 41.25 18.505 L 41.25 18.95 L 37.024 18.95 C 37.042 19.49 37.192 19.901 37.475 20.183 C 37.761 20.465 38.131 20.607 38.583 20.607 C 38.894 20.607 39.16 20.54 39.382 20.406 C 39.606 20.272 39.765 20.076 39.86 19.819 L 41.158 20.085 C 41.013 20.574 40.712 20.969 40.256 21.27 C 39.803 21.566 39.24 21.715 38.566 21.715 M 37.029 17.989 L 39.875 17.989 C 39.831 17.554 39.692 17.206 39.457 16.946 C 39.225 16.681 38.899 16.549 38.479 16.549 C 38.047 16.549 37.705 16.688 37.452 16.968 C 37.202 17.243 37.061 17.583 37.029 17.988" aria-label="Tue" style="stroke-width: 0.2;"/>
  <path fill="#fe5c54" d="M 22.251 14.719 L 22.251 13.497 L 28.693 13.497 L 28.693 14.719 L 26.2 14.719 L 26.2 21.59 L 24.75 21.59 L 24.75 14.719 L 22.251 14.719 Z M 31.154 21.666 C 30.527 21.666 30.024 21.467 29.644 21.069 C 29.264 20.67 29.074 20.107 29.074 19.379 L 29.074 15.517 L 30.485 15.517 L 30.485 19.162 C 30.485 19.567 30.59 19.886 30.8 20.118 C 31.013 20.35 31.305 20.466 31.675 20.466 C 32.051 20.466 32.361 20.344 32.604 20.102 C 32.846 19.859 32.968 19.517 32.968 19.075 L 32.968 15.517 L 34.385 15.517 L 34.385 21.59 L 33.044 21.59 L 33.033 20.373 C 32.671 21.235 32.044 21.666 31.153 21.666 M 38.567 21.715 C 37.955 21.715 37.428 21.586 36.987 21.329 C 36.548 21.072 36.209 20.71 35.971 20.243 C 35.735 19.776 35.617 19.226 35.617 18.592 C 35.617 17.969 35.733 17.422 35.965 16.952 C 36.2 16.477 36.531 16.107 36.959 15.843 C 37.389 15.575 37.894 15.441 38.474 15.441 C 38.967 15.441 39.424 15.549 39.844 15.767 C 40.267 15.98 40.607 16.313 40.864 16.767 C 41.121 17.215 41.25 17.795 41.25 18.505 L 41.25 18.95 L 37.024 18.95 C 37.042 19.49 37.192 19.901 37.475 20.183 C 37.761 20.465 38.131 20.607 38.583 20.607 C 38.894 20.607 39.16 20.54 39.382 20.406 C 39.606 20.272 39.765 20.076 39.86 19.819 L 41.158 20.085 C 41.013 20.574 40.712 20.969 40.256 21.27 C 39.803 21.566 39.24 21.715 38.566 21.715 M 37.029 17.989 L 39.875 17.989 C 39.831 17.554 39.692 17.206 39.457 16.946 C 39.225 16.681 38.899 16.549 38.479 16.549 C 38.047 16.549 37.705 16.688 37.452 16.968 C 37.202 17.243 37.061 17.583 37.029 17.988" aria-label="Tue" style="stroke-width: 1;"/>
  <path fill="#373737" stroke="#fff" stroke-linecap="round" stroke-linejoin="round" stroke-width=".7" d="M 34.992 26.475 L 34.992 50.504 L 32.647 50.504 L 32.647 28.719 L 32.633 28.729 L 26.263 33.629 L 26.263 31.049 L 32.251 26.474 L 34.992 26.475 Z" aria-label="1" style="stroke-width: 0.7;"/>
  <path stroke="#000" stroke-linecap="round" stroke-linejoin="round" stroke-width=".3" d="M 34.992 26.475 L 34.992 50.504 L 32.647 50.504 L 32.647 28.719 L 32.633 28.729 L 26.263 33.629 L 26.263 31.049 L 32.251 26.474 L 34.992 26.475 Z" aria-label="1" style="stroke-width: 0.3; fill: rgb(255, 255, 255);"/>
  <path fill="url(#d)" d="M 32.47 27.126 L 26.911 31.372 L 26.911 32.312 L 32.238 28.214 L 32.267 28.192 L 32.281 28.182 C 32.695 27.901 33.258 28.173 33.294 28.672 C 33.295 28.688 33.296 28.704 33.296 28.72 L 33.296 49.855 L 34.341 49.855 L 34.341 27.125 L 32.47 27.126 Z" filter="url(#e)" style="stroke-width: 1; fill-opacity: 0.21;"/>
</svg>