<?xml version="1.0" encoding="utf-8"?>
<svg width="64" height="64" version="1.1" xmlns="http://www.w3.org/2000/svg">
  <defs>
    <filter id="filter8" x="-.012" y="-.012" width="1.024" height="1.024" color-interpolation-filters="sRGB">
      <feGaussianBlur stdDeviation="0.074081873"/>
    </filter>
    <linearGradient id="linearGradient7" x1="2.5981" x2="10.583" y1="2.8356" y2="11.312" gradientUnits="userSpaceOnUse" href="#linearGradient6"/>
    <linearGradient id="linearGradient6">
      <stop stop-color="#ffffff" offset="0"/>
      <stop stop-color="#ffffff" stop-opacity="0" offset="1"/>
    </linearGradient>
    <linearGradient id="linearGradient8" x1="15.081" x2="12.7" y1="14.816" y2="12.171" gradientUnits="userSpaceOnUse" href="#linearGradient6"/>
    <linearGradient id="linearGradient3" x1="8.4665" x2="8.4665" y1="1.0583" y2="15.875" gradientTransform="matrix(3.7796, 0, 0, 3.7796, -0.000145, -0.000283)" gradientUnits="userSpaceOnUse">
      <stop stop-color="#323131" offset="0"/>
      <stop stop-color="#141414" offset="1"/>
    </linearGradient>
    <linearGradient id="linearGradient1001" gradientUnits="userSpaceOnUse" gradientTransform="matrix(0.625043, -0.278798, 0.278798, 0.625043, -1235.571537, -14.45636)" x1="1660.8571" y1="806.29718" x2="1662.9901" y2="812.88245" href="#linearGradient950"/>
    <linearGradient id="linearGradient950">
      <stop id="stop946" offset="0" style="stop-color:#9a9996;stop-opacity:1"/>
      <stop id="stop948" offset="1" style="stop-color:#77767b;stop-opacity:1"/>
    </linearGradient>
  </defs>
  <g style="transform-origin: 32px 32.0003px;">
    <path d="M 20.26 4.001 C 14.478 4.001 10.517 5.725 7.939 8.535 C 5.374 11.332 4 15.339 4 19.876 L 4 44.124 C 4 48.662 5.373 52.67 7.939 55.465 C 10.517 58.276 14.478 60 20.26 60 L 43.809 60 C 49.591 60 53.551 58.276 56.13 55.465 C 58.695 52.669 60 49.03 60 44.124 L 60 20.787 C 60 14.852 58.695 11.331 56.13 8.535 C 53.551 5.725 49.591 4.001 43.809 4.001 L 25.494 4.001 L 20.26 4.001 Z" fill="url(#linearGradient3)" stroke-width="3.7796"/>
    <g transform="matrix(3.7796, 0, 0, 3.7796, 0.000051, 0.000349)" filter="url(#filter8)" opacity=".35">
      <path d="m5.3603 1.0583c-1.5298 0-2.5775 0.45637-3.2597 1.1999-0.67868 0.73981-1.0423 1.8002-1.0423 3.0008v6.415c0 1.2006 0.36361 2.2609 1.0423 3.0008 0.68219 0.74355 1.7299 1.1999 3.2597 1.1999h6.2305c1.5298 0 2.5775-0.45637 3.2597-1.1999 0.67868-0.73981 1.0242-1.7027 1.0242-3.0008v-6.1742c0-1.5703-0.34552-2.5018-1.0242-3.2416-0.68219-0.74355-1.7299-1.1999-3.2597-1.1999h-4.8456zm-0.00103 0.26406h6.2326c1.4772 0 2.437 0.43133 3.0644 1.1152 0.63411 0.69126 0.95341 1.5307 0.95341 3.0623v6.1742c0 1.2512-0.32181 2.1335-0.95341 2.822-0.6274 0.68381-1.5871 1.1136-3.0644 1.1136h-6.2326c-1.4772 0-2.437-0.42978-3.0644-1.1136-0.62537-0.68172-0.97253-1.6747-0.97253-2.822v-6.4145c0-1.1472 0.34717-2.1403 0.97253-2.822 0.6274-0.68381 1.5871-1.1152 3.0644-1.1152z" fill="url(#linearGradient7)"/>
      <path d="m5.3603 1.0583c-1.5298 0-2.5775 0.45637-3.2597 1.1999-0.67868 0.73981-1.0423 1.8002-1.0423 3.0008v6.415c0 1.2006 0.36361 2.2609 1.0423 3.0008 0.68219 0.74355 1.7299 1.1999 3.2597 1.1999h6.2305c1.5298 0 2.5775-0.45637 3.2597-1.1999 0.67868-0.73981 1.0242-1.7027 1.0242-3.0008v-6.1742c0-1.5703-0.34552-2.5018-1.0242-3.2416-0.68219-0.74355-1.7299-1.1999-3.2597-1.1999h-4.8456zm-0.00103 0.26406h6.2326c1.4772 0 2.437 0.43133 3.0644 1.1152 0.63411 0.69126 0.95341 1.5307 0.95341 3.0623v6.1742c0 1.2512-0.32181 2.1335-0.95341 2.822-0.6274 0.68381-1.5871 1.1136-3.0644 1.1136h-6.2326c-1.4772 0-2.437-0.42978-3.0644-1.1136-0.62537-0.68172-0.97253-1.6747-0.97253-2.822v-6.4145c0-1.1472 0.34717-2.1403 0.97253-2.822 0.6274-0.68381 1.5871-1.1152 3.0644-1.1152z" fill="url(#linearGradient8)" stroke-width="1.0001"/>
    </g>
  </g>
  <path style="color: rgb(0, 0, 0); font-style: normal; font-variant: normal; font-weight: normal; font-stretch: normal; font-size: medium; line-height: normal; font-family: sans-serif; font-feature-settings: normal; text-indent: 0px; text-align: start; text-decoration: rgb(0, 0, 0); letter-spacing: normal; word-spacing: normal; text-transform: none; writing-mode: lr-tb; direction: ltr; text-orientation: mixed; dominant-baseline: auto; baseline-shift: baseline; text-anchor: start; white-space: normal; clip-rule: nonzero; display: inline; overflow: visible; visibility: visible; opacity: 0.2; isolation: auto; mix-blend-mode: normal; color-interpolation: srgb; color-interpolation-filters: linearrgb; fill: rgb(0, 0, 0); fill-opacity: 1; fill-rule: evenodd; stroke: none; stroke-width: 1.369; stroke-linecap: round; stroke-linejoin: miter; stroke-miterlimit: 4; stroke-dasharray: none; stroke-dashoffset: 0; stroke-opacity: 1; color-rendering: auto; image-rendering: auto; shape-rendering: auto; text-rendering: auto;" d="M 40.895 22.431 C 40.795 22.428 40.698 22.469 40.63 22.544 L 33.122 30.629 C 32.555 30.258 31.841 30.191 31.215 30.451 L 26.356 25.052 C 26.218 24.895 26.017 24.809 25.808 24.819 C 25.282 24.844 24.98 25.43 25.265 25.873 C 25.287 25.907 25.312 25.938 25.339 25.968 L 30.197 31.366 C 29.892 31.926 29.866 32.596 30.125 33.178 C 30.298 33.563 30.585 33.885 30.947 34.101 L 26.895 44.519 C 26.797 44.764 27 45.023 27.261 44.985 C 27.385 44.968 27.489 44.884 27.533 44.767 L 31.584 34.349 C 32.004 34.436 32.44 34.39 32.832 34.215 C 33.866 33.754 34.331 32.542 33.869 31.508 C 33.803 31.362 33.72 31.224 33.622 31.097 L 41.131 23.009 C 41.314 22.819 41.221 22.503 40.965 22.44 C 40.942 22.435 40.919 22.432 40.895 22.431 Z" id="path928"/>
  <path id="path987" d="M 32 31.659 L 25.85 24.825" style="display: inline; fill: rgb(192, 191, 188); fill-rule: evenodd; stroke: url(&quot;#linearGradient1001&quot;); stroke-width: 1.369; stroke-linecap: round; stroke-linejoin: miter; stroke-opacity: 1;"/>
  <path style="display: inline; fill: none; fill-rule: evenodd; stroke: rgb(255, 255, 255); stroke-width: 0.684; stroke-linecap: round; stroke-linejoin: miter; stroke-opacity: 1;" d="M 32 31.659 L 40.883 22.092" id="path989"/>
  <path id="path991" d="M 32 31.659 L 27.217 43.959" style="display: inline; fill: none; fill-rule: evenodd; stroke: rgb(237, 51, 59); stroke-width: 0.684; stroke-linecap: round; stroke-linejoin: miter; stroke-opacity: 1;"/>
  <circle transform="matrix(0.913268, -0.40736, 0.40736, 0.913268, -40.000288, -195.341383)" style="color: rgb(0, 0, 0); clip-rule: nonzero; display: inline; overflow: visible; visibility: visible; opacity: 1; color-interpolation: srgb; color-interpolation-filters: linearrgb; fill: rgb(213, 211, 207); fill-opacity: 1; fill-rule: nonzero; stroke: none; stroke-width: 2.655; stroke-linecap: round; stroke-linejoin: round; stroke-miterlimit: 4; stroke-dasharray: none; stroke-dashoffset: 0; stroke-opacity: 1; marker: none; color-rendering: auto; image-rendering: auto; shape-rendering: auto; text-rendering: auto;" id="circle993" cx="-26.715" cy="236.642" r="2.05"/>
  <circle cy="31.659" cx="32.01" id="circle995" style="color: rgb(0, 0, 0); clip-rule: nonzero; display: inline; overflow: visible; visibility: visible; opacity: 1; color-interpolation: srgb; color-interpolation-filters: linearrgb; fill: rgb(19, 28, 26); fill-opacity: 1; fill-rule: nonzero; stroke: none; stroke-width: 2.738; stroke-linecap: round; stroke-linejoin: round; stroke-miterlimit: 4; stroke-dasharray: none; stroke-dashoffset: 0; stroke-opacity: 1; marker: none; color-rendering: auto; image-rendering: auto; shape-rendering: auto; text-rendering: auto;" r="0.684"/>
  <circle style="color: rgb(0, 0, 0); clip-rule: nonzero; display: inline; overflow: visible; visibility: visible; opacity: 1; color-interpolation: srgb; color-interpolation-filters: linearrgb; fill: rgb(19, 28, 26); fill-opacity: 1; fill-rule: nonzero; stroke: none; stroke-width: 2.738; stroke-linecap: round; stroke-linejoin: round; stroke-miterlimit: 4; stroke-dasharray: none; stroke-dashoffset: 0; stroke-opacity: 1; marker: none; color-rendering: auto; image-rendering: auto; shape-rendering: auto; text-rendering: auto;" id="circle997" cx="32.01" cy="31.659" r="0.683"/>
  <path style="display: inline; opacity: 0.1; fill: rgb(0, 0, 0); fill-opacity: 1; stroke: none; stroke-width: 0.004; stroke-linecap: butt; stroke-linejoin: miter; stroke-miterlimit: 4; stroke-dasharray: none; stroke-dashoffset: 0; stroke-opacity: 1; marker: none; paint-order: normal;" d="M 32 13.209 C 21.81 13.209 13.55 21.469 13.55 31.659 C 13.553 31.792 13.558 31.926 13.564 32.059 C 13.719 21.985 21.926 13.898 32 13.892 C 42.03 13.897 50.218 21.914 50.436 31.942 C 50.441 31.847 50.446 31.753 50.45 31.659 C 50.45 21.469 42.19 13.209 32 13.209 Z" id="circle1003"/>
</svg>