<?xml version="1.0" encoding="utf-8"?>
<svg width="64" height="64" version="1.1" xmlns="http://www.w3.org/2000/svg">
  <defs>
    <filter id="filter8" x="-.012" y="-.012" width="1.024" height="1.024" color-interpolation-filters="sRGB">
      <feGaussianBlur stdDeviation="0.074081873"/>
    </filter>
    <linearGradient id="linearGradient7" x1="2.5981" x2="10.583" y1="2.8356" y2="11.312" gradientUnits="userSpaceOnUse" href="#linearGradient6"/>
    <linearGradient id="linearGradient6">
      <stop stop-color="#ffffff" offset="0"/>
      <stop stop-color="#ffffff" stop-opacity="0" offset="1"/>
    </linearGradient>
    <linearGradient id="linearGradient8" x1="15.081" x2="12.7" y1="14.816" y2="12.171" gradientUnits="userSpaceOnUse" href="#linearGradient6"/>
    <linearGradient id="linearGradient3" x1="8.4665" x2="8.4665" y1="1.0583" y2="15.875" gradientTransform="matrix(3.7796, 0, 0, 3.7796, -0.000145, -0.000283)" gradientUnits="userSpaceOnUse">
      <stop stop-color="#323131" offset="0"/>
      <stop stop-color="#141414" offset="1"/>
    </linearGradient>
    <filter style="color-interpolation-filters:sRGB" id="filter19261" x="-0.067230882" y="-0.067230562" width="1.1344618" height="1.1344611">
      <feGaussianBlur stdDeviation="2.0800048" id="feGaussianBlur19263"/>
    </filter>
    <clipPath clipPathUnits="userSpaceOnUse" id="clipPath19267">
      <rect style="fill: rgb(246, 245, 244); stroke-width: 0.132; stroke-linecap: round; stroke-linejoin: round;" id="rect19269" width="36.404" height="36.404" x="24.818" y="55.794" rx="8" ry="8" transform="matrix(0.965926, 0.258818, -0.25882, 0.965926, 68.291535, -71.820771)" clip-path="none"/>
    </clipPath>
    <linearGradient id="linearGradient74817" gradientUnits="userSpaceOnUse" gradientTransform="matrix(0.48131, 0, 0, 0.396711, 69.515989, -90.653776)" x1="23.747229" y1="265.56152" x2="69.936226" y2="223.12723" href="#linearGradient72741"/>
    <linearGradient id="linearGradient72741">
      <stop style="stop-color:#ffbe6f;stop-opacity:1" offset="0" id="stop72735"/>
      <stop style="stop-color:#c061cb;stop-opacity:1" offset="0.4748" id="stop72737"/>
      <stop style="stop-color:#1c71d8;stop-opacity:1" offset="1" id="stop72739"/>
    </linearGradient>
    <clipPath clipPathUnits="userSpaceOnUse" id="clipPath18807">
      <rect style="fill:url(#linearGradient18811);fill-opacity:1;stroke-width:0.377954;stroke-linecap:round;stroke-linejoin:round" id="rect18809" width="88.00106" height="68" x="-4.0005341" y="209.99997" rx="2" ry="2"/>
    </clipPath>
    <linearGradient id="linearGradient18811" gradientUnits="userSpaceOnUse" gradientTransform="matrix(1.3750166,0,0,1.1333337,-20.500732,-34.800121)" x1="32" y1="259.99997" x2="68.443031" y2="223.55695" href="#linearGradient11538"/>
    <linearGradient id="linearGradient11538">
      <stop style="stop-color:#f66151;stop-opacity:1" offset="0" id="stop11534"/>
      <stop style="stop-color:#f6d32d;stop-opacity:1" offset="1" id="stop11536"/>
    </linearGradient>
    <linearGradient id="linearGradient74819" gradientUnits="userSpaceOnUse" x1="212.80272" y1="161.29305" x2="290.80272" y2="161.29305" href="#linearGradient33151"/>
    <linearGradient id="linearGradient33151">
      <stop style="stop-color:#ffffff;stop-opacity:1;" offset="0" id="stop33147"/>
      <stop style="stop-color:#ffffff;stop-opacity:0;" offset="1" id="stop33149"/>
    </linearGradient>
    <linearGradient id="linearGradient74821" gradientUnits="userSpaceOnUse" x1="202.23254" y1="172.83113" x2="240.79819" y2="172.83113" href="#linearGradient33151"/>
    <linearGradient id="linearGradient74823" gradientUnits="userSpaceOnUse" gradientTransform="matrix(0.425048, 0, 0, 0.425048, -223.176486, -51.461118)" x1="24" y1="238" x2="38" y2="238" href="#linearGradient33151"/>
  </defs>
  <g>
    <path d="M 20.26 4.001 C 14.478 4.001 10.517 5.725 7.939 8.535 C 5.374 11.332 4 15.339 4 19.876 L 4 44.124 C 4 48.662 5.373 52.67 7.939 55.465 C 10.517 58.276 14.478 60 20.26 60 L 43.809 60 C 49.591 60 53.551 58.276 56.13 55.465 C 58.695 52.669 60 49.03 60 44.124 L 60 20.787 C 60 14.852 58.695 11.331 56.13 8.535 C 53.551 5.725 49.591 4.001 43.809 4.001 L 25.494 4.001 L 20.26 4.001 Z" fill="url(#linearGradient3)" stroke-width="3.7796"/>
    <g transform="matrix(3.7796, 0, 0, 3.7796, 0.000051, 0.000349)" filter="url(#filter8)" opacity=".35">
      <path d="m5.3603 1.0583c-1.5298 0-2.5775 0.45637-3.2597 1.1999-0.67868 0.73981-1.0423 1.8002-1.0423 3.0008v6.415c0 1.2006 0.36361 2.2609 1.0423 3.0008 0.68219 0.74355 1.7299 1.1999 3.2597 1.1999h6.2305c1.5298 0 2.5775-0.45637 3.2597-1.1999 0.67868-0.73981 1.0242-1.7027 1.0242-3.0008v-6.1742c0-1.5703-0.34552-2.5018-1.0242-3.2416-0.68219-0.74355-1.7299-1.1999-3.2597-1.1999h-4.8456zm-0.00103 0.26406h6.2326c1.4772 0 2.437 0.43133 3.0644 1.1152 0.63411 0.69126 0.95341 1.5307 0.95341 3.0623v6.1742c0 1.2512-0.32181 2.1335-0.95341 2.822-0.6274 0.68381-1.5871 1.1136-3.0644 1.1136h-6.2326c-1.4772 0-2.437-0.42978-3.0644-1.1136-0.62537-0.68172-0.97253-1.6747-0.97253-2.822v-6.4145c0-1.1472 0.34717-2.1403 0.97253-2.822 0.6274-0.68381 1.5871-1.1152 3.0644-1.1152z" fill="url(#linearGradient7)"/>
      <path d="m5.3603 1.0583c-1.5298 0-2.5775 0.45637-3.2597 1.1999-0.67868 0.73981-1.0423 1.8002-1.0423 3.0008v6.415c0 1.2006 0.36361 2.2609 1.0423 3.0008 0.68219 0.74355 1.7299 1.1999 3.2597 1.1999h6.2305c1.5298 0 2.5775-0.45637 3.2597-1.1999 0.67868-0.73981 1.0242-1.7027 1.0242-3.0008v-6.1742c0-1.5703-0.34552-2.5018-1.0242-3.2416-0.68219-0.74355-1.7299-1.1999-3.2597-1.1999h-4.8456zm-0.00103 0.26406h6.2326c1.4772 0 2.437 0.43133 3.0644 1.1152 0.63411 0.69126 0.95341 1.5307 0.95341 3.0623v6.1742c0 1.2512-0.32181 2.1335-0.95341 2.822-0.6274 0.68381-1.5871 1.1136-3.0644 1.1136h-6.2326c-1.4772 0-2.437-0.42978-3.0644-1.1136-0.62537-0.68172-0.97253-1.6747-0.97253-2.822v-6.4145c0-1.1472 0.34717-2.1403 0.97253-2.822 0.6274-0.68381 1.5871-1.1152 3.0644-1.1152z" fill="url(#linearGradient8)" stroke-width="1.0001"/>
    </g>
  </g>
  <g transform="matrix(1, 0, 0, 1, -58.628465, 22.341704)">
    <rect style="fill: rgb(246, 245, 244); stroke-width: 0.132; stroke-linecap: round; stroke-linejoin: round; display: inline;" id="rect74791" width="36.404" height="36.404" x="24.818" y="55.794" rx="8" ry="8" transform="matrix(0.965926, 0.258819, -0.258819, 0.965926, 68.291108, -72.171678)"/>
    <rect style="opacity: 1; fill: rgb(0, 0, 0); fill-opacity: 0.13; stroke: rgb(0, 0, 0); stroke-width: 1.4; stroke-linecap: round; stroke-linejoin: round; stroke-opacity: 0.13; filter: url(&quot;#filter19261&quot;); display: inline;" id="rect74793" width="36.404" height="36.404" x="72.492" y="-7.414" rx="8" ry="8" clip-path="url(#clipPath19267)"/>
    <rect style="fill: rgb(246, 245, 244); stroke-width: 0.132; stroke-linecap: round; stroke-linejoin: round; display: inline;" id="rect74795" width="36.404" height="36.404" x="72.492" y="-7.764" rx="8" ry="8"/>
    <rect style="fill: url(&quot;#linearGradient74817&quot;); fill-opacity: 1; stroke-width: 0.132; stroke-linecap: round; stroke-linejoin: round; display: inline;" id="rect74797" width="30.804" height="23.803" x="75.292" y="-4.964" rx="2" ry="2"/>
    <g id="g74803" clip-path="url(#clipPath18807)" transform="matrix(0.350039, 0, 0, 0.350039, 76.692048, -78.472375)" style="display: inline;">
      <rect style="opacity:0.568457;fill:url(#linearGradient74819);fill-opacity:1;stroke-width:0.377952;stroke-linecap:round;stroke-linejoin:round" id="rect74799" width="78" height="78" x="212.80272" y="122.29305" rx="8" ry="8" transform="rotate(45)" clip-path="none"/>
      <rect style="opacity:0.363132;fill:url(#linearGradient74821);fill-opacity:1;stroke-width:0.377952;stroke-linecap:round;stroke-linejoin:round" id="rect74801" width="78" height="78" x="202.23254" y="151.32085" rx="8" ry="8" transform="rotate(45)" clip-path="none"/>
    </g>
    <circle style="opacity: 0.768678; fill: url(&quot;#linearGradient74823&quot;); fill-opacity: 1; stroke-width: 0.132; stroke-linecap: round; stroke-linejoin: round; display: inline;" id="circle74805" cx="-210" cy="48" r="2.975" transform="matrix(0, -1, 1, 0, 37.092988, -208.663471)"/>
  </g>
</svg>