<?xml version="1.0" encoding="utf-8"?>
<svg width="64" height="64" version="1.1" xmlns="http://www.w3.org/2000/svg">
  <defs>
    <filter id="filter8" x="-.012" y="-.012" width="1.024" height="1.024" color-interpolation-filters="sRGB">
      <feGaussianBlur stdDeviation="0.074081873"/>
    </filter>
    <linearGradient id="linearGradient7" x1="2.5981" x2="10.583" y1="2.8356" y2="11.312" gradientUnits="userSpaceOnUse" href="#linearGradient6"/>
    <linearGradient id="linearGradient6">
      <stop stop-color="#ffffff" offset="0"/>
      <stop stop-color="#ffffff" stop-opacity="0" offset="1"/>
    </linearGradient>
    <linearGradient id="linearGradient8" x1="15.081" x2="12.7" y1="14.816" y2="12.171" gradientUnits="userSpaceOnUse" href="#linearGradient6"/>
    <linearGradient id="linearGradient3" x1="8.4665" x2="8.4665" y1="1.0583" y2="15.875" gradientTransform="matrix(3.7796, 0, 0, 3.7796, -0.000145, -0.000283)" gradientUnits="userSpaceOnUse">
      <stop stop-color="#323131" offset="0"/>
      <stop stop-color="#141414" offset="1"/>
    </linearGradient>
    <linearGradient id="paint0_linear_9_2" x1="12" y1="3.5" x2="12" y2="12.5" gradientUnits="userSpaceOnUse" gradientTransform="matrix(1, 0, 0, 1, 28.790734, 15.518526)">
      <stop stop-color="#A5A7FE"/>
      <stop offset="0.5048" stop-color="#3F92FF"/>
      <stop offset="1" stop-color="#3B90FB"/>
    </linearGradient>
    <linearGradient id="paint1_linear_9_2" x1="21.94" y1="7.93284" x2="2.05997" y2="7.93284" gradientUnits="userSpaceOnUse" gradientTransform="matrix(1, 0, 0, 1, 28.790734, 15.518526)">
      <stop stop-color="#4091FE"/>
      <stop offset="0.1942" stop-color="#4091FE" stop-opacity="0"/>
      <stop offset="0.81" stop-color="#4091FE" stop-opacity="0"/>
      <stop offset="1" stop-color="#4091FE"/>
    </linearGradient>
    <linearGradient id="paint2_linear_9_2" x1="12" y1="12.5" x2="12" y2="21" gradientUnits="userSpaceOnUse" gradientTransform="matrix(1, 0, 0, 1, 28.790734, 15.518526)">
      <stop stop-color="#489CFD"/>
      <stop offset="1" stop-color="#308BFE"/>
    </linearGradient>
  </defs>
  <g>
    <path d="M 20.26 4.001 C 14.478 4.001 10.517 5.725 7.939 8.535 C 5.374 11.332 4 15.339 4 19.876 L 4 44.124 C 4 48.662 5.373 52.67 7.939 55.465 C 10.517 58.276 14.478 60 20.26 60 L 43.809 60 C 49.591 60 53.551 58.276 56.13 55.465 C 58.695 52.669 60 49.03 60 44.124 L 60 20.787 C 60 14.852 58.695 11.331 56.13 8.535 C 53.551 5.725 49.591 4.001 43.809 4.001 L 25.494 4.001 L 20.26 4.001 Z" fill="url(#linearGradient3)" stroke-width="3.7796"/>
    <g transform="matrix(3.7796, 0, 0, 3.7796, 0.000051, 0.000349)" filter="url(#filter8)" opacity=".35">
      <path d="m5.3603 1.0583c-1.5298 0-2.5775 0.45637-3.2597 1.1999-0.67868 0.73981-1.0423 1.8002-1.0423 3.0008v6.415c0 1.2006 0.36361 2.2609 1.0423 3.0008 0.68219 0.74355 1.7299 1.1999 3.2597 1.1999h6.2305c1.5298 0 2.5775-0.45637 3.2597-1.1999 0.67868-0.73981 1.0242-1.7027 1.0242-3.0008v-6.1742c0-1.5703-0.34552-2.5018-1.0242-3.2416-0.68219-0.74355-1.7299-1.1999-3.2597-1.1999h-4.8456zm-0.00103 0.26406h6.2326c1.4772 0 2.437 0.43133 3.0644 1.1152 0.63411 0.69126 0.95341 1.5307 0.95341 3.0623v6.1742c0 1.2512-0.32181 2.1335-0.95341 2.822-0.6274 0.68381-1.5871 1.1136-3.0644 1.1136h-6.2326c-1.4772 0-2.437-0.42978-3.0644-1.1136-0.62537-0.68172-0.97253-1.6747-0.97253-2.822v-6.4145c0-1.1472 0.34717-2.1403 0.97253-2.822 0.6274-0.68381 1.5871-1.1152 3.0644-1.1152z" fill="url(#linearGradient7)"/>
      <path d="m5.3603 1.0583c-1.5298 0-2.5775 0.45637-3.2597 1.1999-0.67868 0.73981-1.0423 1.8002-1.0423 3.0008v6.415c0 1.2006 0.36361 2.2609 1.0423 3.0008 0.68219 0.74355 1.7299 1.1999 3.2597 1.1999h6.2305c1.5298 0 2.5775-0.45637 3.2597-1.1999 0.67868-0.73981 1.0242-1.7027 1.0242-3.0008v-6.1742c0-1.5703-0.34552-2.5018-1.0242-3.2416-0.68219-0.74355-1.7299-1.1999-3.2597-1.1999h-4.8456zm-0.00103 0.26406h6.2326c1.4772 0 2.437 0.43133 3.0644 1.1152 0.63411 0.69126 0.95341 1.5307 0.95341 3.0623v6.1742c0 1.2512-0.32181 2.1335-0.95341 2.822-0.6274 0.68381-1.5871 1.1136-3.0644 1.1136h-6.2326c-1.4772 0-2.437-0.42978-3.0644-1.1136-0.62537-0.68172-0.97253-1.6747-0.97253-2.822v-6.4145c0-1.1472 0.34717-2.1403 0.97253-2.822 0.6274-0.68381 1.5871-1.1152 3.0644-1.1152z" fill="url(#linearGradient8)" stroke-width="1.0001"/>
    </g>
  </g>
  <g transform="matrix(2.098274, 0, 0, 2.098274, -53.590432, -24.692936)">
    <rect x="33.791" y="17.519" width="14" height="6" rx="2.5" fill="#BBE2FE" style="stroke-width: 1;"/>
    <path d="M 46.845 19.019 L 34.736 19.019 C 32.915 19.019 31.514 20.628 31.765 22.431 L 32.541 28.019 L 49.041 28.019 L 49.817 22.431 C 50.067 20.628 48.666 19.019 46.845 19.019 Z" fill="url(#paint0_linear_9_2)" style="stroke-width: 1;"/>
    <path d="M 46.845 19.019 L 34.736 19.019 C 32.915 19.019 31.514 20.628 31.765 22.431 L 32.541 28.019 L 49.041 28.019 L 49.817 22.431 C 50.067 20.628 48.666 19.019 46.845 19.019 Z" fill="url(#paint1_linear_9_2)" style="stroke-width: 1;"/>
    <path d="M 49.785 33.082 L 49.041 28.019 L 32.541 28.019 L 31.796 33.082 C 31.53 34.893 32.934 36.519 34.764 36.519 L 46.817 36.519 C 48.648 36.519 50.052 34.893 49.785 33.082 Z" fill="url(#paint2_linear_9_2)" style="stroke-width: 1;"/>
    <path d="M 38.398 32.223 C 37.878 32.223 37.438 32.147 37.078 31.995 C 36.722 31.839 36.416 31.619 36.16 31.335 C 35.904 31.047 35.714 30.741 35.59 30.417 C 35.47 30.093 35.41 29.931 35.41 29.931 L 36.472 29.559 C 36.472 29.559 36.518 29.677 36.61 29.913 C 36.702 30.149 36.83 30.363 36.994 30.555 C 37.162 30.743 37.358 30.887 37.582 30.987 C 37.806 31.087 38.082 31.137 38.41 31.137 C 38.926 31.137 39.35 30.989 39.682 30.693 C 40.014 30.397 40.18 30.027 40.18 29.583 C 40.18 29.095 40.022 28.721 39.706 28.461 C 39.39 28.201 38.946 28.071 38.374 28.071 L 37.696 28.071 L 37.696 27.003 L 38.308 27.003 C 38.784 27.003 39.16 26.883 39.436 26.643 C 39.712 26.399 39.85 26.053 39.85 25.605 C 39.85 25.213 39.716 24.897 39.448 24.657 C 39.18 24.417 38.818 24.297 38.362 24.297 C 38.102 24.297 37.878 24.337 37.69 24.417 C 37.506 24.497 37.344 24.611 37.204 24.759 C 37.064 24.907 36.948 25.077 36.856 25.269 C 36.764 25.457 36.718 25.551 36.718 25.551 L 35.668 25.155 C 35.668 25.155 35.732 25.015 35.86 24.735 C 35.988 24.451 36.17 24.191 36.406 23.955 C 36.646 23.719 36.928 23.539 37.252 23.415 C 37.576 23.287 37.96 23.223 38.404 23.223 C 39.256 23.223 39.906 23.443 40.354 23.883 C 40.806 24.323 41.032 24.877 41.032 25.545 C 41.032 26.037 40.908 26.443 40.66 26.763 C 40.416 27.079 40.068 27.307 39.616 27.447 L 39.616 27.483 C 40.172 27.623 40.602 27.871 40.906 28.227 C 41.214 28.579 41.368 29.045 41.368 29.625 C 41.368 30.353 41.098 30.969 40.558 31.473 C 40.018 31.973 39.298 32.223 38.398 32.223 Z M 44.198 32.019 L 44.198 25.029 L 42.494 26.289 L 41.882 25.413 L 44.6 23.427 L 45.362 23.427 L 45.362 32.019 L 44.198 32.019 Z" fill="white" style="stroke-width: 1;"/>
  </g>
</svg>