<?xml version="1.0" encoding="utf-8"?>
<svg width="64" height="64" version="1.1" xmlns="http://www.w3.org/2000/svg">
  <defs>
    <filter id="filter8" x="-.012" y="-.012" width="1.024" height="1.024" color-interpolation-filters="sRGB">
      <feGaussianBlur stdDeviation="0.074081873"/>
    </filter>
    <linearGradient id="linearGradient7" x1="2.5981" x2="10.583" y1="2.8356" y2="11.312" gradientUnits="userSpaceOnUse" href="#linearGradient6"/>
    <linearGradient id="linearGradient6">
      <stop stop-color="#ffffff" offset="0"/>
      <stop stop-color="#ffffff" stop-opacity="0" offset="1"/>
    </linearGradient>
    <linearGradient id="linearGradient8" x1="15.081" x2="12.7" y1="14.816" y2="12.171" gradientUnits="userSpaceOnUse" href="#linearGradient6"/>
    <linearGradient id="linearGradient3" x1="8.4665" x2="8.4665" y1="1.0583" y2="15.875" gradientTransform="matrix(3.7796, 0, 0, 3.7796, -0.000145, -0.000283)" gradientUnits="userSpaceOnUse">
      <stop stop-color="#323131" offset="0"/>
      <stop stop-color="#141414" offset="1"/>
    </linearGradient>
  </defs>
  <g>
    <path d="M 20.26 4.001 C 14.478 4.001 10.517 5.725 7.939 8.535 C 5.374 11.332 4 15.339 4 19.876 L 4 44.124 C 4 48.662 5.373 52.67 7.939 55.465 C 10.517 58.276 14.478 60 20.26 60 L 43.809 60 C 49.591 60 53.551 58.276 56.13 55.465 C 58.695 52.669 60 49.03 60 44.124 L 60 20.787 C 60 14.852 58.695 11.331 56.13 8.535 C 53.551 5.725 49.591 4.001 43.809 4.001 L 25.494 4.001 L 20.26 4.001 Z" fill="url(#linearGradient3)" stroke-width="3.7796"/>
    <g transform="matrix(3.7796, 0, 0, 3.7796, 0.000051, 0.000349)" filter="url(#filter8)" opacity=".35">
      <path d="m5.3603 1.0583c-1.5298 0-2.5775 0.45637-3.2597 1.1999-0.67868 0.73981-1.0423 1.8002-1.0423 3.0008v6.415c0 1.2006 0.36361 2.2609 1.0423 3.0008 0.68219 0.74355 1.7299 1.1999 3.2597 1.1999h6.2305c1.5298 0 2.5775-0.45637 3.2597-1.1999 0.67868-0.73981 1.0242-1.7027 1.0242-3.0008v-6.1742c0-1.5703-0.34552-2.5018-1.0242-3.2416-0.68219-0.74355-1.7299-1.1999-3.2597-1.1999h-4.8456zm-0.00103 0.26406h6.2326c1.4772 0 2.437 0.43133 3.0644 1.1152 0.63411 0.69126 0.95341 1.5307 0.95341 3.0623v6.1742c0 1.2512-0.32181 2.1335-0.95341 2.822-0.6274 0.68381-1.5871 1.1136-3.0644 1.1136h-6.2326c-1.4772 0-2.437-0.42978-3.0644-1.1136-0.62537-0.68172-0.97253-1.6747-0.97253-2.822v-6.4145c0-1.1472 0.34717-2.1403 0.97253-2.822 0.6274-0.68381 1.5871-1.1152 3.0644-1.1152z" fill="url(#linearGradient7)"/>
      <path d="m5.3603 1.0583c-1.5298 0-2.5775 0.45637-3.2597 1.1999-0.67868 0.73981-1.0423 1.8002-1.0423 3.0008v6.415c0 1.2006 0.36361 2.2609 1.0423 3.0008 0.68219 0.74355 1.7299 1.1999 3.2597 1.1999h6.2305c1.5298 0 2.5775-0.45637 3.2597-1.1999 0.67868-0.73981 1.0242-1.7027 1.0242-3.0008v-6.1742c0-1.5703-0.34552-2.5018-1.0242-3.2416-0.68219-0.74355-1.7299-1.1999-3.2597-1.1999h-4.8456zm-0.00103 0.26406h6.2326c1.4772 0 2.437 0.43133 3.0644 1.1152 0.63411 0.69126 0.95341 1.5307 0.95341 3.0623v6.1742c0 1.2512-0.32181 2.1335-0.95341 2.822-0.6274 0.68381-1.5871 1.1136-3.0644 1.1136h-6.2326c-1.4772 0-2.437-0.42978-3.0644-1.1136-0.62537-0.68172-0.97253-1.6747-0.97253-2.822v-6.4145c0-1.1472 0.34717-2.1403 0.97253-2.822 0.6274-0.68381 1.5871-1.1152 3.0644-1.1152z" fill="url(#linearGradient8)" stroke-width="1.0001"/>
    </g>
  </g>
  <path d="M 31.999 10.474 L 31.996 10.474 C 31.775 10.474 31.555 10.519 31.35 10.609 C 26.556 12.722 21.76 14.839 16.966 16.955 C 16.264 17.257 15.874 18.014 16.037 18.76 L 21.679 45.032 C 21.757 45.385 21.95 45.705 22.23 45.936 L 30.984 53.16 C 31.573 53.645 32.421 53.648 33.013 53.171 L 41.982 45.94 C 42.272 45.705 42.472 45.379 42.547 45.014 L 47.966 18.751 C 48.12 18.01 47.735 17.262 47.043 16.956 L 32.644 10.607 C 32.44 10.519 32.224 10.474 32.001 10.474 L 31.999 10.474 Z M 31.999 11.101 L 31.999 11.107 C 32.207 11.107 32.407 11.148 32.599 11.233 L 45.909 17.098 C 46.548 17.382 46.902 18.071 46.763 18.756 L 41.752 43.036 C 41.685 43.373 41.501 43.677 41.235 43.893 L 32.941 50.575 C 32.395 51.016 31.611 51.013 31.067 50.565 L 22.972 43.886 C 22.714 43.672 22.537 43.378 22.468 43.052 L 17.247 18.766 C 17.102 18.076 17.458 17.38 18.101 17.095 L 31.4 11.227 C 31.589 11.143 31.793 11.1 31.999 11.101 M 31.919 14.607 L 28.916 19.806 L 28.912 19.806 L 31.085 40.078 L 32.003 40.812 L 32.921 40.078 L 34.925 19.808 L 31.919 14.607 Z M 26.625 39.644 L 25.577 41.559 L 26.625 43.479 L 30.742 42.797 L 31.585 41.559 L 30.742 40.356 L 26.625 39.644 Z M 37.381 39.644 L 33.264 40.356 L 32.421 41.559 L 33.264 42.797 L 37.381 43.479 L 38.429 41.559 L 37.381 39.644 Z M 32.003 42.313 L 31.088 43.11 L 30.584 46.998 L 31.999 47.985 L 33.422 46.998 L 32.893 43.11 L 32.003 42.313 Z" style="stroke-width: 1; fill: rgb(255, 255, 255);"/>
</svg>