<?xml version="1.0" encoding="utf-8"?>
<svg width="64" height="64" version="1.1" xmlns="http://www.w3.org/2000/svg">
  <defs>
    <filter id="filter8" x="-.012" y="-.012" width="1.024" height="1.024" color-interpolation-filters="sRGB">
      <feGaussianBlur stdDeviation="0.074081873"/>
    </filter>
    <linearGradient id="linearGradient7" x1="2.5981" x2="10.583" y1="2.8356" y2="11.312" gradientUnits="userSpaceOnUse" href="#linearGradient6"/>
    <linearGradient id="linearGradient6">
      <stop stop-color="#ffffff" offset="0"/>
      <stop stop-color="#ffffff" stop-opacity="0" offset="1"/>
    </linearGradient>
    <linearGradient id="linearGradient8" x1="15.081" x2="12.7" y1="14.816" y2="12.171" gradientUnits="userSpaceOnUse" href="#linearGradient6"/>
    <linearGradient id="linearGradient3" x1="8.4665" x2="8.4665" y1="1.0583" y2="15.875" gradientTransform="matrix(3.7796, 0, 0, 3.7796, -0.000145, -0.000283)" gradientUnits="userSpaceOnUse">
      <stop stop-color="#323131" offset="0"/>
      <stop stop-color="#141414" offset="1"/>
    </linearGradient>
  </defs>
  <g>
    <path d="M 20.26 4.001 C 14.478 4.001 10.517 5.725 7.939 8.535 C 5.374 11.332 4 15.339 4 19.876 L 4 44.124 C 4 48.662 5.373 52.67 7.939 55.465 C 10.517 58.276 14.478 60 20.26 60 L 43.809 60 C 49.591 60 53.551 58.276 56.13 55.465 C 58.695 52.669 60 49.03 60 44.124 L 60 20.787 C 60 14.852 58.695 11.331 56.13 8.535 C 53.551 5.725 49.591 4.001 43.809 4.001 L 25.494 4.001 L 20.26 4.001 Z" fill="url(#linearGradient3)" stroke-width="3.7796"/>
    <g transform="matrix(3.7796, 0, 0, 3.7796, 0.000051, 0.000349)" filter="url(#filter8)" opacity=".35">
      <path d="m5.3603 1.0583c-1.5298 0-2.5775 0.45637-3.2597 1.1999-0.67868 0.73981-1.0423 1.8002-1.0423 3.0008v6.415c0 1.2006 0.36361 2.2609 1.0423 3.0008 0.68219 0.74355 1.7299 1.1999 3.2597 1.1999h6.2305c1.5298 0 2.5775-0.45637 3.2597-1.1999 0.67868-0.73981 1.0242-1.7027 1.0242-3.0008v-6.1742c0-1.5703-0.34552-2.5018-1.0242-3.2416-0.68219-0.74355-1.7299-1.1999-3.2597-1.1999h-4.8456zm-0.00103 0.26406h6.2326c1.4772 0 2.437 0.43133 3.0644 1.1152 0.63411 0.69126 0.95341 1.5307 0.95341 3.0623v6.1742c0 1.2512-0.32181 2.1335-0.95341 2.822-0.6274 0.68381-1.5871 1.1136-3.0644 1.1136h-6.2326c-1.4772 0-2.437-0.42978-3.0644-1.1136-0.62537-0.68172-0.97253-1.6747-0.97253-2.822v-6.4145c0-1.1472 0.34717-2.1403 0.97253-2.822 0.6274-0.68381 1.5871-1.1152 3.0644-1.1152z" fill="url(#linearGradient7)"/>
      <path d="m5.3603 1.0583c-1.5298 0-2.5775 0.45637-3.2597 1.1999-0.67868 0.73981-1.0423 1.8002-1.0423 3.0008v6.415c0 1.2006 0.36361 2.2609 1.0423 3.0008 0.68219 0.74355 1.7299 1.1999 3.2597 1.1999h6.2305c1.5298 0 2.5775-0.45637 3.2597-1.1999 0.67868-0.73981 1.0242-1.7027 1.0242-3.0008v-6.1742c0-1.5703-0.34552-2.5018-1.0242-3.2416-0.68219-0.74355-1.7299-1.1999-3.2597-1.1999h-4.8456zm-0.00103 0.26406h6.2326c1.4772 0 2.437 0.43133 3.0644 1.1152 0.63411 0.69126 0.95341 1.5307 0.95341 3.0623v6.1742c0 1.2512-0.32181 2.1335-0.95341 2.822-0.6274 0.68381-1.5871 1.1136-3.0644 1.1136h-6.2326c-1.4772 0-2.437-0.42978-3.0644-1.1136-0.62537-0.68172-0.97253-1.6747-0.97253-2.822v-6.4145c0-1.1472 0.34717-2.1403 0.97253-2.822 0.6274-0.68381 1.5871-1.1152 3.0644-1.1152z" fill="url(#linearGradient8)" stroke-width="1.0001"/>
    </g>
  </g>
  <g transform="matrix(0.571429, 0, 0, 0.571429, -12.584641, -4.894143)">
    <g transform="matrix(1, 0, 0, 1, 43.023122, 29.565279)">
      <g>
        <linearGradient id="SVGID_1_" gradientUnits="userSpaceOnUse" x1="0.7898" y1="40.0893" x2="33.3172" y2="40.0893">
          <stop offset="0.2581" style="stop-color:#F97A12"/>
          <stop offset="0.4591" style="stop-color:#B07B58"/>
          <stop offset="0.7241" style="stop-color:#577BAE"/>
          <stop offset="0.9105" style="stop-color:#1E7CE5"/>
          <stop offset="1" style="stop-color:#087CFA"/>
        </linearGradient>
        <polygon style="fill:url(#SVGID_1_);" points="17.7,54.6 0.8,41.2 9.2,25.6 33.3,35 &#9;&#9;"/>
        <linearGradient id="SVGID_2_" gradientUnits="userSpaceOnUse" x1="25.7674" y1="24.88" x2="79.424" y2="54.57">
          <stop offset="0" style="stop-color:#F97A12"/>
          <stop offset="0.0718" style="stop-color:#CB7A3E"/>
          <stop offset="0.1541" style="stop-color:#9E7B6A"/>
          <stop offset="0.242" style="stop-color:#757B91"/>
          <stop offset="0.3344" style="stop-color:#537BB1"/>
          <stop offset="0.4324" style="stop-color:#387CCC"/>
          <stop offset="0.5381" style="stop-color:#237CE0"/>
          <stop offset="0.6552" style="stop-color:#147CEF"/>
          <stop offset="0.7925" style="stop-color:#0B7CF7"/>
          <stop offset="1" style="stop-color:#087CFA"/>
        </linearGradient>
        <polygon style="fill:url(#SVGID_2_);" points="70,18.7 68.7,59.2 41.8,70 25.6,59.6 49.3,35 38.9,12.3 48.2,1.1 &#9;&#9;"/>
        <linearGradient id="SVGID_3_" gradientUnits="userSpaceOnUse" x1="63.2277" y1="42.9153" x2="48.2903" y2="-1.7191">
          <stop offset="0" style="stop-color:#FE315D"/>
          <stop offset="0.0784" style="stop-color:#CB417E"/>
          <stop offset="0.1601" style="stop-color:#9E4E9B"/>
          <stop offset="0.2474" style="stop-color:#755BB4"/>
          <stop offset="0.3392" style="stop-color:#5365CA"/>
          <stop offset="0.4365" style="stop-color:#386DDB"/>
          <stop offset="0.5414" style="stop-color:#2374E9"/>
          <stop offset="0.6576" style="stop-color:#1478F3"/>
          <stop offset="0.794" style="stop-color:#0B7BF8"/>
          <stop offset="1" style="stop-color:#087CFA"/>
        </linearGradient>
        <polygon style="fill:url(#SVGID_3_);" points="70,18.7 48.7,43.9 38.9,12.3 48.2,1.1 &#9;&#9;"/>
        <linearGradient id="SVGID_4_" gradientUnits="userSpaceOnUse" x1="10.7204" y1="16.473" x2="55.5237" y2="90.58">
          <stop offset="0" style="stop-color:#FE315D"/>
          <stop offset="0.0402" style="stop-color:#F63462"/>
          <stop offset="0.1037" style="stop-color:#DF3A71"/>
          <stop offset="0.1667" style="stop-color:#C24383"/>
          <stop offset="0.2912" style="stop-color:#AD4A91"/>
          <stop offset="0.5498" style="stop-color:#755BB4"/>
          <stop offset="0.9175" style="stop-color:#1D76ED"/>
          <stop offset="1" style="stop-color:#087CFA"/>
        </linearGradient>
        <polygon style="fill:url(#SVGID_4_);" points="33.7,58.1 5.6,68.3 10.1,52.5 16,33.1 0,27.7 10.1,0 32.1,2.7 53.7,27.4 &#9;&#9;"/>
      </g>
      <g>
        <rect x="13.7" y="13.5" style="fill:#000000;" width="43.2" height="43.2"/>
        <rect x="17.7" y="48.6" style="fill:#FFFFFF;" width="16.2" height="2.7"/>
        <polygon style="fill:#FFFFFF;" points="29.4,22.4 29.4,19.1 20.4,19.1 20.4,22.4 23,22.4 23,33.7 20.4,33.7 20.4,37 29.4,37 &#10;&#9;&#9;&#9;29.4,33.7 26.9,33.7 26.9,22.4 &#9;&#9;"/>
        <path style="fill:#FFFFFF;" d="M38,37.3c-1.4,0-2.6-0.3-3.5-0.8c-0.9-0.5-1.7-1.2-2.3-1.9l2.5-2.8c0.5,0.6,1,1,1.5,1.3 c0.5,0.3,1.1,0.5,1.7,0.5c0.7,0,1.3-0.2,1.8-0.7c0.4-0.5,0.6-1.2,0.6-2.3V19.1h4v11.7c0,1.1-0.1,2-0.4,2.8c-0.3,0.8-0.7,1.4-1.3,2 c-0.5,0.5-1.2,1-2,1.2C39.8,37.1,39,37.3,38,37.3"/>
      </g>
    </g>
  </g>
</svg>