<?xml version="1.0" encoding="utf-8"?>
<svg width="64" height="64" version="1.1" xmlns="http://www.w3.org/2000/svg">
  <defs>
    <filter id="filter8" x="-.012" y="-.012" width="1.024" height="1.024" color-interpolation-filters="sRGB">
      <feGaussianBlur stdDeviation="0.074081873"/>
    </filter>
    <linearGradient id="linearGradient7" x1="2.5981" x2="10.583" y1="2.8356" y2="11.312" gradientUnits="userSpaceOnUse" href="#linearGradient6"/>
    <linearGradient id="linearGradient6">
      <stop stop-color="#ffffff" offset="0"/>
      <stop stop-color="#ffffff" stop-opacity="0" offset="1"/>
    </linearGradient>
    <linearGradient id="linearGradient8" x1="15.081" x2="12.7" y1="14.816" y2="12.171" gradientUnits="userSpaceOnUse" href="#linearGradient6"/>
    <linearGradient id="linearGradient3" x1="8.4665" x2="8.4665" y1="1.0583" y2="15.875" gradientTransform="matrix(3.7796, 0, 0, 3.7796, -0.000145, -0.000283)" gradientUnits="userSpaceOnUse">
      <stop stop-color="#323131" offset="0"/>
      <stop stop-color="#141414" offset="1"/>
    </linearGradient>
  </defs>
  <g>
    <path d="M 20.26 4.001 C 14.478 4.001 10.517 5.725 7.939 8.535 C 5.374 11.332 4 15.339 4 19.876 L 4 44.124 C 4 48.662 5.373 52.67 7.939 55.465 C 10.517 58.276 14.478 60 20.26 60 L 43.809 60 C 49.591 60 53.551 58.276 56.13 55.465 C 58.695 52.669 60 49.03 60 44.124 L 60 20.787 C 60 14.852 58.695 11.331 56.13 8.535 C 53.551 5.725 49.591 4.001 43.809 4.001 L 25.494 4.001 L 20.26 4.001 Z" fill="url(#linearGradient3)" stroke-width="3.7796"/>
    <g transform="matrix(3.7796, 0, 0, 3.7796, 0.000051, 0.000349)" filter="url(#filter8)" opacity=".35">
      <path d="m5.3603 1.0583c-1.5298 0-2.5775 0.45637-3.2597 1.1999-0.67868 0.73981-1.0423 1.8002-1.0423 3.0008v6.415c0 1.2006 0.36361 2.2609 1.0423 3.0008 0.68219 0.74355 1.7299 1.1999 3.2597 1.1999h6.2305c1.5298 0 2.5775-0.45637 3.2597-1.1999 0.67868-0.73981 1.0242-1.7027 1.0242-3.0008v-6.1742c0-1.5703-0.34552-2.5018-1.0242-3.2416-0.68219-0.74355-1.7299-1.1999-3.2597-1.1999h-4.8456zm-0.00103 0.26406h6.2326c1.4772 0 2.437 0.43133 3.0644 1.1152 0.63411 0.69126 0.95341 1.5307 0.95341 3.0623v6.1742c0 1.2512-0.32181 2.1335-0.95341 2.822-0.6274 0.68381-1.5871 1.1136-3.0644 1.1136h-6.2326c-1.4772 0-2.437-0.42978-3.0644-1.1136-0.62537-0.68172-0.97253-1.6747-0.97253-2.822v-6.4145c0-1.1472 0.34717-2.1403 0.97253-2.822 0.6274-0.68381 1.5871-1.1152 3.0644-1.1152z" fill="url(#linearGradient7)"/>
      <path d="m5.3603 1.0583c-1.5298 0-2.5775 0.45637-3.2597 1.1999-0.67868 0.73981-1.0423 1.8002-1.0423 3.0008v6.415c0 1.2006 0.36361 2.2609 1.0423 3.0008 0.68219 0.74355 1.7299 1.1999 3.2597 1.1999h6.2305c1.5298 0 2.5775-0.45637 3.2597-1.1999 0.67868-0.73981 1.0242-1.7027 1.0242-3.0008v-6.1742c0-1.5703-0.34552-2.5018-1.0242-3.2416-0.68219-0.74355-1.7299-1.1999-3.2597-1.1999h-4.8456zm-0.00103 0.26406h6.2326c1.4772 0 2.437 0.43133 3.0644 1.1152 0.63411 0.69126 0.95341 1.5307 0.95341 3.0623v6.1742c0 1.2512-0.32181 2.1335-0.95341 2.822-0.6274 0.68381-1.5871 1.1136-3.0644 1.1136h-6.2326c-1.4772 0-2.437-0.42978-3.0644-1.1136-0.62537-0.68172-0.97253-1.6747-0.97253-2.822v-6.4145c0-1.1472 0.34717-2.1403 0.97253-2.822 0.6274-0.68381 1.5871-1.1152 3.0644-1.1152z" fill="url(#linearGradient8)" stroke-width="1.0001"/>
    </g>
  </g>
  <g transform="matrix(0.543704, 0, 0, 0.563658, -6.774085, 2.359314)">
    <circle style="fill:#f6c177;fill-opacity:1;stroke-width:.542636" cx="49.706" cy="67.495" r="5.926" transform="rotate(-15)"/>
    <path style="fill:#eb6f92;fill-opacity:1;stroke-width:1.16141" d="M62.855 66.488a11.807 8.77 75 0 0 4.322 16.129l8.151 6.46 3.83-9.67a11.807 8.77 75 0 0-4.323-16.127 11.807 8.77 75 0 0-11.98 3.208ZM78.06 59.34a11.807 8.77 3.621 0 0 16.664 1.054l8.724-5.661-7.94-6.717a11.807 8.77 3.621 0 0-16.663-1.053 11.807 8.77 3.621 0 0-.786 12.376Zm-2.712-17.497a8.77 11.807 17.744 0 0 5.089-15.904l-3.362-9.842-8.451 6.062a8.77 11.807 17.744 0 0-5.088 15.902 8.77 11.807 17.744 0 0 11.811 3.782zM58.514 39.73a11.807 8.77 35.551 0 0-13.586-9.71l-10.398.192 3.187 9.9A11.807 8.77 35.551 0 0 51.3 49.818a11.807 8.77 35.551 0 0 7.212-10.088zM51.39 55.29a8.77 11.807 52.628 0 0-13.27 10.136l-2.871 9.996 10.4-.14a8.77 11.807 52.628 0 0 13.267-10.134 8.77 11.807 52.628 0 0-7.526-9.857z"/>
    <path style="fill:#8c4257;fill-opacity:1;stroke-width:.983178" d="M226.936 18.156v7.658h7.66v-7.658Zm0 15.319v7.634h-7.659v7.66h7.659v.022h22.978v7.637h7.658V48.77h-7.658v-7.637h-15.318v-7.658zm22.978 22.953h-7.66v7.658h7.66zm-30.637-.024v7.66h7.659v-7.66zm7.659 7.66v15.319h-7.659v7.658h15.319V64.064Z" transform="translate(-164.695 -3.108) scale(1.0591)"/>
    <path style="fill:#eb6f92;fill-opacity:1;stroke-width:.983178" d="M219.277 18.133v22.976h7.659v-7.634h7.66v-7.66h-7.66v-7.682zm7.659 30.637v15.294h-7.659v15.319h7.659V64.086h15.318v-7.658h7.66V48.77h-15.318z" transform="translate(-164.695 -3.108) scale(1.0591)"/>
    <path style="fill:#f6c177;fill-opacity:1;stroke-width:.983178" d="M219.277 48.769h7.659v7.659h-7.659z" transform="translate(-164.695 -3.108) scale(1.0591)"/>
  </g>
  <path style="opacity: 1; fill: rgb(255, 255, 255); fill-opacity: 1; stroke-width: 2.05;" d="M 29.723 11.434 L 30.305 11.434 L 30.305 52.572 L 29.723 52.572 L 29.723 11.434 Z"/>
</svg>