<?xml version="1.0" encoding="utf-8"?>
<svg width="64" height="64" version="1.1" xmlns="http://www.w3.org/2000/svg">
  <defs>
    <filter id="filter8" x="-.012" y="-.012" width="1.024" height="1.024" color-interpolation-filters="sRGB">
      <feGaussianBlur stdDeviation="0.074081873"/>
    </filter>
    <linearGradient id="linearGradient7" x1="2.5981" x2="10.583" y1="2.8356" y2="11.312" gradientUnits="userSpaceOnUse" href="#linearGradient6"/>
    <linearGradient id="linearGradient6">
      <stop stop-color="#ffffff" offset="0"/>
      <stop stop-color="#ffffff" stop-opacity="0" offset="1"/>
    </linearGradient>
    <linearGradient id="linearGradient8" x1="15.081" x2="12.7" y1="14.816" y2="12.171" gradientUnits="userSpaceOnUse" href="#linearGradient6"/>
    <linearGradient id="linearGradient3" x1="8.4665" x2="8.4665" y1="1.0583" y2="15.875" gradientTransform="matrix(3.7796, 0, 0, 3.7796, -0.000145, -0.000283)" gradientUnits="userSpaceOnUse">
      <stop stop-color="#323131" offset="0"/>
      <stop stop-color="#141414" offset="1"/>
    </linearGradient>
    <linearGradient id="b" x1="30" x2="30" y1="54" y2="9" gradientUnits="userSpaceOnUse" gradientTransform="matrix(1, 0, 0, 1, 0.220434, -0.200176)">
      <stop offset="0" stop-color="#fff"/>
      <stop offset="1" stop-color="#f5f5f5"/>
    </linearGradient>
  </defs>
  <path fill="url(#b)" d="M 17.221 6.8 C 11.681 6.8 7.221 11.26 7.221 16.8 L 7.221 46.8 C 7.209 51.928 11.088 56.229 16.19 56.747 C 16.77 56.727 17.323 56.71 17.639 56.741 L 17.641 56.741 C 18.031 56.781 18.428 56.801 18.831 56.8 L 47.221 56.8 C 52.761 56.8 57.221 52.34 57.221 46.8 L 57.221 29.148 C 57.221 23.791 40.256 6.8 34.899 6.8 L 18.831 6.8 L 17.221 6.8 Z" style="stroke-width: 1;"/>
  <g>
    <path d="M 20.26 4.001 C 14.478 4.001 10.517 5.725 7.939 8.535 C 5.374 11.332 4 15.339 4 19.876 L 4 44.124 C 4 48.662 5.373 52.67 7.939 55.465 C 10.517 58.276 14.478 60 20.26 60 L 43.809 60 C 49.591 60 53.551 58.276 56.13 55.465 C 58.695 52.669 60 49.03 60 44.124 L 60 20.787 C 60 14.852 58.695 11.331 56.13 8.535 C 53.551 5.725 49.591 4.001 43.809 4.001 L 25.494 4.001 L 20.26 4.001 Z" fill="url(#linearGradient3)" stroke-width="3.7796"/>
    <g transform="matrix(3.7796, 0, 0, 3.7796, 0.000051, 0.000349)" filter="url(#filter8)" opacity=".35">
      <path d="m5.3603 1.0583c-1.5298 0-2.5775 0.45637-3.2597 1.1999-0.67868 0.73981-1.0423 1.8002-1.0423 3.0008v6.415c0 1.2006 0.36361 2.2609 1.0423 3.0008 0.68219 0.74355 1.7299 1.1999 3.2597 1.1999h6.2305c1.5298 0 2.5775-0.45637 3.2597-1.1999 0.67868-0.73981 1.0242-1.7027 1.0242-3.0008v-6.1742c0-1.5703-0.34552-2.5018-1.0242-3.2416-0.68219-0.74355-1.7299-1.1999-3.2597-1.1999h-4.8456zm-0.00103 0.26406h6.2326c1.4772 0 2.437 0.43133 3.0644 1.1152 0.63411 0.69126 0.95341 1.5307 0.95341 3.0623v6.1742c0 1.2512-0.32181 2.1335-0.95341 2.822-0.6274 0.68381-1.5871 1.1136-3.0644 1.1136h-6.2326c-1.4772 0-2.437-0.42978-3.0644-1.1136-0.62537-0.68172-0.97253-1.6747-0.97253-2.822v-6.4145c0-1.1472 0.34717-2.1403 0.97253-2.822 0.6274-0.68381 1.5871-1.1152 3.0644-1.1152z" fill="url(#linearGradient7)"/>
      <path d="m5.3603 1.0583c-1.5298 0-2.5775 0.45637-3.2597 1.1999-0.67868 0.73981-1.0423 1.8002-1.0423 3.0008v6.415c0 1.2006 0.36361 2.2609 1.0423 3.0008 0.68219 0.74355 1.7299 1.1999 3.2597 1.1999h6.2305c1.5298 0 2.5775-0.45637 3.2597-1.1999 0.67868-0.73981 1.0242-1.7027 1.0242-3.0008v-6.1742c0-1.5703-0.34552-2.5018-1.0242-3.2416-0.68219-0.74355-1.7299-1.1999-3.2597-1.1999h-4.8456zm-0.00103 0.26406h6.2326c1.4772 0 2.437 0.43133 3.0644 1.1152 0.63411 0.69126 0.95341 1.5307 0.95341 3.0623v6.1742c0 1.2512-0.32181 2.1335-0.95341 2.822-0.6274 0.68381-1.5871 1.1136-3.0644 1.1136h-6.2326c-1.4772 0-2.437-0.42978-3.0644-1.1136-0.62537-0.68172-0.97253-1.6747-0.97253-2.822v-6.4145c0-1.1472 0.34717-2.1403 0.97253-2.822 0.6274-0.68381 1.5871-1.1152 3.0644-1.1152z" fill="url(#linearGradient8)" stroke-width="1.0001"/>
    </g>
  </g>
  <g fill="#fafafa" id="g6540" transform="matrix(2.4375, 0, 0, 2.4375, -6.999966, -14.312169)" style="fill-rule: evenodd; stroke-linecap: square;">
    <rect x="8" y="13" width="7" height="1" ry="0.5" id="rect6528"/>
    <rect x="8" y="15" width="7" height="1" ry="0.5" id="rect6530"/>
    <rect x="8" y="17" width="7" height="1" ry="0.5" id="rect6532"/>
    <rect x="8" y="20" width="16" height="1" ry="0.5" id="rect6534"/>
    <rect x="8" y="22" width="16" height="1" ry="0.5" id="rect6536"/>
    <rect x="8" y="24" width="7" height="1" ry="0.5" id="rect6538"/>
  </g>
  <path d="M 36.875 17.375 C 35.525 17.375 34.438 18.462 34.438 19.813 L 34.438 27.125 C 34.438 28.476 35.525 29.563 36.875 29.563 L 49.063 29.563 C 50.413 29.563 51.5 28.476 51.5 27.125 L 51.5 19.813 C 51.5 18.462 50.413 17.375 49.063 17.375 L 36.875 17.375 Z M 47.844 19.813 C 48.517 19.813 49.063 20.358 49.063 21.032 C 49.063 21.705 48.517 22.25 47.844 22.25 C 47.171 22.25 46.625 21.705 46.625 21.032 C 46.625 20.358 47.171 19.813 47.844 19.813 Z M 40.131 21.103 C 40.473 21.14 40.793 21.293 41.036 21.536 L 46.625 27.125 L 36.875 27.125 L 38.541 22.127 C 38.764 21.454 39.427 21.028 40.131 21.103 L 40.131 21.103 Z" id="path6542" style="stroke-width: 2.438; fill-rule: evenodd; stroke-linecap: square; fill: rgb(91, 131, 204);"/>
</svg>