<?xml version="1.0" encoding="utf-8"?>
<svg width="64" height="64" version="1.1" xmlns="http://www.w3.org/2000/svg">
  <defs>
    <filter id="filter8" x="-.012" y="-.012" width="1.024" height="1.024" color-interpolation-filters="sRGB">
      <feGaussianBlur stdDeviation="0.074081873"/>
    </filter>
    <linearGradient id="linearGradient7" x1="2.5981" x2="10.583" y1="2.8356" y2="11.312" gradientUnits="userSpaceOnUse" href="#linearGradient6"/>
    <linearGradient id="linearGradient6">
      <stop stop-color="#ffffff" offset="0"/>
      <stop stop-color="#ffffff" stop-opacity="0" offset="1"/>
    </linearGradient>
    <linearGradient id="linearGradient8" x1="15.081" x2="12.7" y1="14.816" y2="12.171" gradientUnits="userSpaceOnUse" href="#linearGradient6"/>
    <linearGradient id="linearGradient3" x1="8.4665" x2="8.4665" y1="1.0583" y2="15.875" gradientTransform="matrix(3.7796, 0, 0, 3.7796, -0.000145, -0.000283)" gradientUnits="userSpaceOnUse">
      <stop stop-color="#323131" offset="0"/>
      <stop stop-color="#141414" offset="1"/>
    </linearGradient>
  </defs>
  <g>
    <path d="M 20.26 4.001 C 14.478 4.001 10.517 5.725 7.939 8.535 C 5.374 11.332 4 15.339 4 19.876 L 4 44.124 C 4 48.662 5.373 52.67 7.939 55.465 C 10.517 58.276 14.478 60 20.26 60 L 43.809 60 C 49.591 60 53.551 58.276 56.13 55.465 C 58.695 52.669 60 49.03 60 44.124 L 60 20.787 C 60 14.852 58.695 11.331 56.13 8.535 C 53.551 5.725 49.591 4.001 43.809 4.001 L 25.494 4.001 L 20.26 4.001 Z" fill="url(#linearGradient3)" stroke-width="3.7796"/>
    <g transform="matrix(3.7796, 0, 0, 3.7796, 0.000051, 0.000349)" filter="url(#filter8)" opacity=".35">
      <path d="m5.3603 1.0583c-1.5298 0-2.5775 0.45637-3.2597 1.1999-0.67868 0.73981-1.0423 1.8002-1.0423 3.0008v6.415c0 1.2006 0.36361 2.2609 1.0423 3.0008 0.68219 0.74355 1.7299 1.1999 3.2597 1.1999h6.2305c1.5298 0 2.5775-0.45637 3.2597-1.1999 0.67868-0.73981 1.0242-1.7027 1.0242-3.0008v-6.1742c0-1.5703-0.34552-2.5018-1.0242-3.2416-0.68219-0.74355-1.7299-1.1999-3.2597-1.1999h-4.8456zm-0.00103 0.26406h6.2326c1.4772 0 2.437 0.43133 3.0644 1.1152 0.63411 0.69126 0.95341 1.5307 0.95341 3.0623v6.1742c0 1.2512-0.32181 2.1335-0.95341 2.822-0.6274 0.68381-1.5871 1.1136-3.0644 1.1136h-6.2326c-1.4772 0-2.437-0.42978-3.0644-1.1136-0.62537-0.68172-0.97253-1.6747-0.97253-2.822v-6.4145c0-1.1472 0.34717-2.1403 0.97253-2.822 0.6274-0.68381 1.5871-1.1152 3.0644-1.1152z" fill="url(#linearGradient7)"/>
      <path d="m5.3603 1.0583c-1.5298 0-2.5775 0.45637-3.2597 1.1999-0.67868 0.73981-1.0423 1.8002-1.0423 3.0008v6.415c0 1.2006 0.36361 2.2609 1.0423 3.0008 0.68219 0.74355 1.7299 1.1999 3.2597 1.1999h6.2305c1.5298 0 2.5775-0.45637 3.2597-1.1999 0.67868-0.73981 1.0242-1.7027 1.0242-3.0008v-6.1742c0-1.5703-0.34552-2.5018-1.0242-3.2416-0.68219-0.74355-1.7299-1.1999-3.2597-1.1999h-4.8456zm-0.00103 0.26406h6.2326c1.4772 0 2.437 0.43133 3.0644 1.1152 0.63411 0.69126 0.95341 1.5307 0.95341 3.0623v6.1742c0 1.2512-0.32181 2.1335-0.95341 2.822-0.6274 0.68381-1.5871 1.1136-3.0644 1.1136h-6.2326c-1.4772 0-2.437-0.42978-3.0644-1.1136-0.62537-0.68172-0.97253-1.6747-0.97253-2.822v-6.4145c0-1.1472 0.34717-2.1403 0.97253-2.822 0.6274-0.68381 1.5871-1.1152 3.0644-1.1152z" fill="url(#linearGradient8)" stroke-width="1.0001"/>
    </g>
  </g>
  <path d="M 15.375 17.75 C 14.059 17.75 13 18.81 13 20.125 L 13 36.75 C 13 38.066 14.059 39.125 15.375 39.125 L 29.625 39.125 L 29.625 36.75 L 24.875 36.75 L 24.875 34.375 L 29.625 34.375 L 29.625 32 L 24.875 32 L 24.875 29.625 L 43.875 29.625 L 43.875 20.125 C 43.875 18.81 42.816 17.75 41.5 17.75 L 15.375 17.75 Z M 15.375 20.125 L 22.5 20.125 L 22.5 22.5 L 15.375 22.5 L 15.375 20.125 Z M 24.875 20.125 L 32 20.125 L 32 22.5 L 24.875 22.5 L 24.875 20.125 Z M 34.375 20.125 L 41.5 20.125 L 41.5 22.5 L 34.375 22.5 L 34.375 20.125 Z M 15.375 24.875 L 22.5 24.875 L 22.5 27.25 L 15.375 27.25 L 15.375 24.875 Z M 24.875 24.875 L 32 24.875 L 32 27.25 L 24.875 27.25 L 24.875 24.875 Z M 34.375 24.875 L 41.5 24.875 L 41.5 27.25 L 34.375 27.25 L 34.375 24.875 Z M 15.375 29.625 L 22.5 29.625 L 22.5 32 L 15.375 32 L 15.375 29.625 Z M 15.375 34.375 L 22.5 34.375 L 22.5 36.75 L 15.375 36.75 L 15.375 34.375 Z" fill="#fafafa" id="path3775-9" style="stroke-width: 2.375; fill-rule: evenodd; stroke-linecap: square;"/>
  <path d="M 32 29.625 C 30.684 29.625 29.625 30.685 29.625 32 L 29.625 43.875 C 29.625 45.191 30.684 46.25 32 46.25 L 48.625 46.25 C 49.941 46.25 51 45.191 51 43.875 L 51 32 C 51 30.685 49.941 29.625 48.625 29.625 L 32 29.625 Z M 36.75 32 L 39.125 32 L 39.125 43.875 L 36.75 43.875 L 36.75 32 Z M 32 34.375 L 34.375 34.375 L 34.375 43.875 L 32 43.875 L 32 34.375 Z M 46.25 36.75 L 48.625 36.75 L 48.625 43.875 L 46.25 43.875 L 46.25 36.75 Z M 41.5 39.125 L 43.875 39.125 L 43.875 43.875 L 41.5 43.875 L 41.5 39.125 Z" id="path3777-3" style="stroke-width: 2.375; fill-rule: evenodd; stroke-linecap: square; fill: rgb(121, 217, 60);"/>
</svg>