<?xml version="1.0" encoding="utf-8"?>
<svg width="64" height="64" version="1.1" xmlns="http://www.w3.org/2000/svg" xmlns:bx="https://boxy-svg.com">
  <defs>
    <filter id="filter8" x="-.012" y="-.012" width="1.024" height="1.024" color-interpolation-filters="sRGB">
      <feGaussianBlur stdDeviation="0.074081873"/>
    </filter>
    <linearGradient id="linearGradient7" x1="2.5981" x2="10.583" y1="2.8356" y2="11.312" gradientUnits="userSpaceOnUse" href="#linearGradient6"/>
    <linearGradient id="linearGradient6">
      <stop stop-color="#ffffff" offset="0"/>
      <stop stop-color="#ffffff" stop-opacity="0" offset="1"/>
    </linearGradient>
    <linearGradient id="linearGradient8" x1="15.081" x2="12.7" y1="14.816" y2="12.171" gradientUnits="userSpaceOnUse" href="#linearGradient6"/>
    <linearGradient id="linearGradient3" x1="8.4665" x2="8.4665" y1="1.0583" y2="15.875" gradientTransform="matrix(3.7796, 0, 0, 3.7796, -0.000145, -0.000283)" gradientUnits="userSpaceOnUse">
      <stop stop-color="#323131" offset="0"/>
      <stop stop-color="#141414" offset="1"/>
    </linearGradient>
    <filter id="drop-shadow-filter-0" bx:preset="drop-shadow 1 1 2 0 1 rgba(0,0,0,0.3)" color-interpolation-filters="sRGB" x="-50%" y="-50%" width="200%" height="200%">
      <feGaussianBlur in="SourceAlpha" stdDeviation="0"/>
      <feOffset dx="1" dy="2"/>
      <feComponentTransfer result="offsetblur">
        <feFuncA id="spread-ctrl" type="linear" slope="2"/>
      </feComponentTransfer>
      <feFlood flood-color="rgba(0,0,0,0.3)"/>
      <feComposite in2="offsetblur" operator="in"/>
      <feMerge>
        <feMergeNode/>
        <feMergeNode in="SourceGraphic"/>
      </feMerge>
    </filter>
  </defs>
  <g>
    <path d="M 20.26 4.001 C 14.478 4.001 10.517 5.725 7.939 8.535 C 5.374 11.332 4 15.339 4 19.876 L 4 44.124 C 4 48.662 5.373 52.67 7.939 55.465 C 10.517 58.276 14.478 60 20.26 60 L 43.809 60 C 49.591 60 53.551 58.276 56.13 55.465 C 58.695 52.669 60 49.03 60 44.124 L 60 20.787 C 60 14.852 58.695 11.331 56.13 8.535 C 53.551 5.725 49.591 4.001 43.809 4.001 L 25.494 4.001 L 20.26 4.001 Z" fill="url(#linearGradient3)" stroke-width="3.7796"/>
    <g transform="matrix(3.7796, 0, 0, 3.7796, 0.000051, 0.000349)" filter="url(#filter8)" opacity=".35">
      <path d="m5.3603 1.0583c-1.5298 0-2.5775 0.45637-3.2597 1.1999-0.67868 0.73981-1.0423 1.8002-1.0423 3.0008v6.415c0 1.2006 0.36361 2.2609 1.0423 3.0008 0.68219 0.74355 1.7299 1.1999 3.2597 1.1999h6.2305c1.5298 0 2.5775-0.45637 3.2597-1.1999 0.67868-0.73981 1.0242-1.7027 1.0242-3.0008v-6.1742c0-1.5703-0.34552-2.5018-1.0242-3.2416-0.68219-0.74355-1.7299-1.1999-3.2597-1.1999h-4.8456zm-0.00103 0.26406h6.2326c1.4772 0 2.437 0.43133 3.0644 1.1152 0.63411 0.69126 0.95341 1.5307 0.95341 3.0623v6.1742c0 1.2512-0.32181 2.1335-0.95341 2.822-0.6274 0.68381-1.5871 1.1136-3.0644 1.1136h-6.2326c-1.4772 0-2.437-0.42978-3.0644-1.1136-0.62537-0.68172-0.97253-1.6747-0.97253-2.822v-6.4145c0-1.1472 0.34717-2.1403 0.97253-2.822 0.6274-0.68381 1.5871-1.1152 3.0644-1.1152z" fill="url(#linearGradient7)"/>
      <path d="m5.3603 1.0583c-1.5298 0-2.5775 0.45637-3.2597 1.1999-0.67868 0.73981-1.0423 1.8002-1.0423 3.0008v6.415c0 1.2006 0.36361 2.2609 1.0423 3.0008 0.68219 0.74355 1.7299 1.1999 3.2597 1.1999h6.2305c1.5298 0 2.5775-0.45637 3.2597-1.1999 0.67868-0.73981 1.0242-1.7027 1.0242-3.0008v-6.1742c0-1.5703-0.34552-2.5018-1.0242-3.2416-0.68219-0.74355-1.7299-1.1999-3.2597-1.1999h-4.8456zm-0.00103 0.26406h6.2326c1.4772 0 2.437 0.43133 3.0644 1.1152 0.63411 0.69126 0.95341 1.5307 0.95341 3.0623v6.1742c0 1.2512-0.32181 2.1335-0.95341 2.822-0.6274 0.68381-1.5871 1.1136-3.0644 1.1136h-6.2326c-1.4772 0-2.437-0.42978-3.0644-1.1136-0.62537-0.68172-0.97253-1.6747-0.97253-2.822v-6.4145c0-1.1472 0.34717-2.1403 0.97253-2.822 0.6274-0.68381 1.5871-1.1152 3.0644-1.1152z" fill="url(#linearGradient8)" stroke-width="1.0001"/>
    </g>
  </g>
  <g fill="#ffffff" transform="matrix(0.758799, 0, 0, 0.758799, -7.974637, -8.376124)" style="filter: url(&quot;#drop-shadow-filter-0&quot;);">
    <linearGradient id="a" gradientTransform="matrix(-25.841507, 30.223927, 30.223927, 25.841507, -8699.464446, 39405.388139)" gradientUnits="userSpaceOnUse" x1="-895.969971" x2="-894.969971" y1="-475.619995" y2="-475.619995">
      <stop offset="0" stop-color="#251480"/>
      <stop offset="0.0005" stop-color="#251480"/>
      <stop offset="1" stop-color="#e96bc3"/>
    </linearGradient>
    <linearGradient id="b" gradientTransform="matrix(28.880224, -31.555521, -31.555521, -28.880224, 10894.105797, -41932.078378)" gradientUnits="userSpaceOnUse" x1="-895.969971" x2="-894.969971" y1="-475.619995" y2="-475.619995">
      <stop offset="0" stop-color="#ffbe00"/>
      <stop offset="0.0005" stop-color="#ffbe00"/>
      <stop offset="1" stop-color="#f39060"/>
    </linearGradient>
    <g>
      <path d="M 76.693 52.047 C 74.324 55.17 70.66 56.999 66.787 56.999 C 65.71 56.999 64.522 56.894 63.446 56.569 C 60.215 55.708 57.522 53.663 55.907 50.753 C 54.292 47.846 53.863 44.509 54.722 41.278 C 56.122 36.325 60.325 32.77 65.385 32.231 L 65.599 32.34 L 65.599 32.555 C 64.633 33.846 63.984 35.137 63.556 36.648 C 61.831 43 65.599 49.676 71.952 51.401 C 73.462 51.723 74.968 51.939 76.478 51.723 L 76.693 51.83 L 76.693 52.047 Z" fill="url(#a)" style="stroke-width: 1.318;"/>
      <path d="M 37.888 69.265 L 36.697 71.409 C 36.459 71.725 36.139 71.888 35.823 71.888 C 35.664 71.888 35.504 71.806 35.344 71.725 C 34.946 71.409 34.788 70.854 35.027 70.375 L 36.219 68.23 C 36.535 67.833 37.094 67.675 37.569 67.915 C 38.048 68.15 38.205 68.786 37.888 69.265 Z M 31.134 55.832 C 31.451 55.435 32.007 55.277 32.486 55.516 L 34.63 56.708 C 35.027 57.025 35.186 57.584 34.946 58.058 C 34.709 58.378 34.391 58.537 34.075 58.537 C 33.915 58.537 33.753 58.456 33.596 58.378 L 31.451 57.187 C 31.054 56.947 30.896 56.311 31.134 55.832 Z M 44.481 54.005 L 45.674 51.859 C 45.994 51.462 46.549 51.304 47.027 51.544 C 47.425 51.859 47.584 52.416 47.343 52.894 L 46.152 55.038 C 45.912 55.357 45.597 55.516 45.276 55.516 C 45.118 55.516 44.961 55.435 44.803 55.357 C 44.324 55.119 44.166 54.563 44.481 54.005 Z M 51.159 67.436 C 50.92 67.751 50.602 67.915 50.282 67.915 C 50.125 67.915 49.967 67.833 49.807 67.751 L 47.66 66.56 C 47.263 66.244 47.105 65.688 47.343 65.211 C 47.66 64.813 48.219 64.654 48.694 64.894 L 50.839 66.086 C 51.317 66.402 51.475 66.957 51.159 67.436 Z M 34.709 66.56 L 32.562 67.751 C 32.403 67.833 32.245 67.915 32.087 67.915 C 31.691 67.915 31.371 67.751 31.213 67.436 C 30.896 66.957 31.054 66.325 31.532 66.086 L 33.596 64.971 C 34.075 64.654 34.709 64.813 34.946 65.291 C 35.186 65.688 35.027 66.325 34.709 66.56 Z M 35.027 52.894 C 34.709 52.416 34.869 51.782 35.344 51.544 C 35.823 51.224 36.459 51.386 36.697 51.859 L 37.888 54.005 C 38.205 54.483 38.048 55.119 37.569 55.357 C 37.412 55.435 37.254 55.516 37.094 55.516 C 36.697 55.516 36.377 55.357 36.219 55.038 L 35.027 52.894 Z M 47.742 56.708 L 49.886 55.516 C 50.364 55.199 51 55.357 51.237 55.832 C 51.556 56.311 51.397 56.947 50.92 57.187 L 48.776 58.378 C 48.616 58.456 48.455 58.537 48.297 58.537 C 47.9 58.537 47.584 58.378 47.425 58.058 C 47.185 57.584 47.343 56.947 47.742 56.708 Z M 47.343 70.375 C 47.66 70.854 47.503 71.49 47.027 71.725 C 46.867 71.806 46.707 71.888 46.549 71.888 C 46.152 71.888 45.836 71.725 45.674 71.409 L 44.481 69.265 C 44.166 68.786 44.324 68.15 44.803 67.915 C 45.276 67.593 45.912 67.751 46.152 68.23 L 47.343 70.375 Z M 33.04 62.587 L 29.623 62.587 C 29.068 62.587 28.67 62.19 28.67 61.634 C 28.67 61.079 29.068 60.681 29.623 60.681 L 33.04 60.681 C 33.596 60.681 33.993 61.079 33.993 61.634 C 33.993 62.19 33.518 62.587 33.04 62.587 Z M 40.193 53.448 L 40.193 50.031 C 40.193 49.476 40.589 49.078 41.145 49.078 C 41.701 49.078 42.097 49.476 42.097 50.031 L 42.097 53.448 C 42.097 54.005 41.701 54.405 41.145 54.405 C 40.67 54.405 40.193 54.005 40.193 53.448 Z M 53.701 61.634 C 53.701 62.19 53.304 62.587 52.748 62.587 L 49.331 62.587 C 48.776 62.587 48.378 62.19 48.378 61.634 C 48.378 61.079 48.776 60.681 49.331 60.681 L 52.748 60.681 C 53.304 60.681 53.781 61.079 53.701 61.634 Z M 42.179 69.821 L 42.179 73.237 C 42.179 73.793 41.782 74.191 41.226 74.191 C 40.67 74.191 40.273 73.793 40.273 73.237 L 40.273 69.821 C 40.273 69.265 40.67 68.866 41.226 68.866 C 41.701 68.866 42.179 69.265 42.179 69.821 Z M 46.469 61.634 C 46.469 64.496 44.084 66.88 41.226 66.88 C 38.363 66.88 35.981 64.496 35.981 61.634 C 35.981 58.777 38.363 56.392 41.226 56.392 C 44.084 56.392 46.469 58.777 46.469 61.634 Z" fill="url(#b)" style="stroke-width: 1.318;"/>
    </g>
  </g>
</svg>