<?xml version="1.0" encoding="utf-8"?>
<svg width="64" height="64" version="1.1" xmlns="http://www.w3.org/2000/svg">
  <defs>
    <filter id="filter8" x="-.012" y="-.012" width="1.024" height="1.024" color-interpolation-filters="sRGB">
      <feGaussianBlur stdDeviation="0.074081873"/>
    </filter>
    <linearGradient id="linearGradient7" x1="2.5981" x2="10.583" y1="2.8356" y2="11.312" gradientUnits="userSpaceOnUse" href="#linearGradient6"/>
    <linearGradient id="linearGradient6">
      <stop stop-color="#ffffff" offset="0"/>
      <stop stop-color="#ffffff" stop-opacity="0" offset="1"/>
    </linearGradient>
    <linearGradient id="linearGradient8" x1="15.081" x2="12.7" y1="14.816" y2="12.171" gradientUnits="userSpaceOnUse" href="#linearGradient6"/>
    <linearGradient id="linearGradient3" x1="8.4665" x2="8.4665" y1="1.0583" y2="15.875" gradientTransform="matrix(3.7796, 0, 0, 3.7796, -0.000145, -0.000283)" gradientUnits="userSpaceOnUse">
      <stop stop-color="#323131" offset="0"/>
      <stop stop-color="#141414" offset="1"/>
    </linearGradient>
  </defs>
  <g>
    <path d="M 20.26 4.001 C 14.478 4.001 10.517 5.725 7.939 8.535 C 5.374 11.332 4 15.339 4 19.876 L 4 44.124 C 4 48.662 5.373 52.67 7.939 55.465 C 10.517 58.276 14.478 60 20.26 60 L 43.809 60 C 49.591 60 53.551 58.276 56.13 55.465 C 58.695 52.669 60 49.03 60 44.124 L 60 20.787 C 60 14.852 58.695 11.331 56.13 8.535 C 53.551 5.725 49.591 4.001 43.809 4.001 L 25.494 4.001 L 20.26 4.001 Z" fill="url(#linearGradient3)" stroke-width="3.7796"/>
    <g transform="matrix(3.7796, 0, 0, 3.7796, 0.000051, 0.000349)" filter="url(#filter8)" opacity=".35">
      <path d="m5.3603 1.0583c-1.5298 0-2.5775 0.45637-3.2597 1.1999-0.67868 0.73981-1.0423 1.8002-1.0423 3.0008v6.415c0 1.2006 0.36361 2.2609 1.0423 3.0008 0.68219 0.74355 1.7299 1.1999 3.2597 1.1999h6.2305c1.5298 0 2.5775-0.45637 3.2597-1.1999 0.67868-0.73981 1.0242-1.7027 1.0242-3.0008v-6.1742c0-1.5703-0.34552-2.5018-1.0242-3.2416-0.68219-0.74355-1.7299-1.1999-3.2597-1.1999h-4.8456zm-0.00103 0.26406h6.2326c1.4772 0 2.437 0.43133 3.0644 1.1152 0.63411 0.69126 0.95341 1.5307 0.95341 3.0623v6.1742c0 1.2512-0.32181 2.1335-0.95341 2.822-0.6274 0.68381-1.5871 1.1136-3.0644 1.1136h-6.2326c-1.4772 0-2.437-0.42978-3.0644-1.1136-0.62537-0.68172-0.97253-1.6747-0.97253-2.822v-6.4145c0-1.1472 0.34717-2.1403 0.97253-2.822 0.6274-0.68381 1.5871-1.1152 3.0644-1.1152z" fill="url(#linearGradient7)"/>
      <path d="m5.3603 1.0583c-1.5298 0-2.5775 0.45637-3.2597 1.1999-0.67868 0.73981-1.0423 1.8002-1.0423 3.0008v6.415c0 1.2006 0.36361 2.2609 1.0423 3.0008 0.68219 0.74355 1.7299 1.1999 3.2597 1.1999h6.2305c1.5298 0 2.5775-0.45637 3.2597-1.1999 0.67868-0.73981 1.0242-1.7027 1.0242-3.0008v-6.1742c0-1.5703-0.34552-2.5018-1.0242-3.2416-0.68219-0.74355-1.7299-1.1999-3.2597-1.1999h-4.8456zm-0.00103 0.26406h6.2326c1.4772 0 2.437 0.43133 3.0644 1.1152 0.63411 0.69126 0.95341 1.5307 0.95341 3.0623v6.1742c0 1.2512-0.32181 2.1335-0.95341 2.822-0.6274 0.68381-1.5871 1.1136-3.0644 1.1136h-6.2326c-1.4772 0-2.437-0.42978-3.0644-1.1136-0.62537-0.68172-0.97253-1.6747-0.97253-2.822v-6.4145c0-1.1472 0.34717-2.1403 0.97253-2.822 0.6274-0.68381 1.5871-1.1152 3.0644-1.1152z" fill="url(#linearGradient8)" stroke-width="1.0001"/>
    </g>
  </g>
  <linearGradient id="b" gradientUnits="userSpaceOnUse" x1="82.547302" x2="75.456398" y1="85.636398" y2="52.909" gradientTransform="matrix(0.408516, 0, 0, 0.408516, 7.780178, 6.429162)">
    <stop offset="0" stop-color="#b0b0b0"/>
    <stop offset="1" stop-color="#e4e4e4"/>
  </linearGradient>
  <g transform="matrix(1.121924, 0, 0, 1.121924, -6.060671, -1.119686)">
    <path d="M 50.674 38.796 C 51.12 38.874 51.546 38.577 51.603 38.13 C 51.905 35.805 51.744 33.44 51.128 31.173 C 50.441 28.642 49.205 26.295 47.505 24.295 C 45.807 22.297 43.688 20.7 41.301 19.615 C 38.914 18.528 36.317 17.984 33.694 18.017 C 31.072 18.051 28.49 18.664 26.132 19.809 C 23.773 20.955 21.697 22.608 20.05 24.649 C 18.403 26.69 17.227 29.07 16.606 31.618 C 16.049 33.9 15.949 36.268 16.311 38.585 C 16.38 39.03 16.812 39.316 17.256 39.227 L 22.642 38.132 C 23.084 38.043 23.366 37.612 23.31 37.163 C 23.151 35.877 23.226 34.57 23.534 33.308 C 23.905 31.779 24.612 30.351 25.6 29.127 C 26.588 27.902 27.834 26.911 29.248 26.223 C 30.663 25.535 32.213 25.168 33.786 25.147 C 35.36 25.127 36.919 25.454 38.35 26.105 C 39.783 26.756 41.054 27.715 42.073 28.915 C 43.093 30.113 43.835 31.522 44.247 33.04 C 44.587 34.296 44.695 35.6 44.569 36.89 C 44.524 37.339 44.818 37.763 45.262 37.842 L 50.674 38.796 Z M 50.674 38.796" fill="#3584e4" style="stroke-width: 0.409;"/>
    <path d="M 50.674 38.796 C 51.12 38.874 51.546 38.577 51.603 38.13 C 51.941 35.517 51.696 32.858 50.882 30.345 C 50.066 27.831 48.705 25.535 46.899 23.617 C 46.589 23.288 46.071 23.298 45.756 23.623 L 41.933 27.571 C 41.618 27.895 41.63 28.411 41.93 28.749 C 42.905 29.848 43.643 31.139 44.098 32.544 C 44.553 33.948 44.713 35.427 44.569 36.89 C 44.524 37.339 44.818 37.763 45.262 37.842 L 50.674 38.796 Z M 50.674 38.796" fill="#ed333b" style="stroke-width: 0.409;"/>
    <g fill="#ffffff" transform="matrix(0.408516, 0, 0, 0.408516, 7.780178, 6.429163)">
      <path d="m 33.914062 41.914062 c 0.429688 -0.425781 1.117188 -0.425781 1.542969 0 l 3.085938 3.085938 c 0.425781 0.425781 0.425781 1.117188 0 1.542969 s -1.117188 0.425781 -1.542969 0 l -3.085938 -3.085938 c -0.425781 -0.425781 -0.425781 -1.117187 0 -1.542969 z m 0 0"/>
      <path d="m 89.457031 46.542969 c -0.425781 -0.425781 -0.425781 -1.117188 0 -1.542969 l 3.085938 -3.085938 c 0.425781 -0.425781 1.117187 -0.425781 1.542969 0 c 0.425781 0.429688 0.425781 1.117188 0 1.542969 l -3.085938 3.085938 c -0.425781 0.425781 -1.117188 0.425781 -1.542969 0 z m 0 0"/>
      <path d="m 47.722656 32.691406 c 0.554688 -0.230468 1.191406 0.035156 1.421875 0.59375 l 1.671875 4.03125 c 0.230469 0.554688 -0.035156 1.191406 -0.589844 1.421875 c -0.558593 0.230469 -1.195312 -0.03125 -1.425781 -0.589843 l -1.671875 -4.03125 c -0.230468 -0.554688 0.035156 -1.195313 0.59375 -1.425782 z m 0 0"/>
      <path d="m 97.261719 58.222656 c -0.230469 -0.554687 0.035156 -1.195312 0.589843 -1.425781 l 4.03125 -1.667969 c 0.558594 -0.230468 1.195313 0.03125 1.425782 0.589844 c 0.230468 0.554688 -0.03125 1.195312 -0.589844 1.425781 l -4.03125 1.667969 c -0.554688 0.230469 -1.195312 -0.03125 -1.425781 -0.589844 z m 0 0"/>
      <path d="m 80.285156 32.691406 c 0.554688 0.230469 0.820313 0.871094 0.589844 1.425782 l -1.671875 4.03125 c -0.230469 0.558593 -0.867187 0.820312 -1.425781 0.589843 c -0.554688 -0.230469 -0.820313 -0.867187 -0.589844 -1.421875 l 1.671875 -4.03125 c 0.230469 -0.558594 0.867187 -0.824218 1.425781 -0.59375 z m 0 0"/>
      <path d="m 24.695312 55.71875 c 0.230469 -0.558594 0.871094 -0.820312 1.425782 -0.589844 l 4.03125 1.667969 c 0.558594 0.230469 0.820312 0.871094 0.589844 1.425781 c -0.230469 0.558594 -0.867188 0.820313 -1.421876 0.589844 l -4.03125 -1.667969 c -0.558593 -0.230469 -0.824218 -0.871093 -0.59375 -1.425781 z m 0 0"/>
      <path d="m 64 29.453125 c 0.605469 0 1.09375 0.488281 1.09375 1.09375 v 4.363281 c 0 0.601563 -0.488281 1.089844 -1.09375 1.089844 c -0.601562 0 -1.089844 -0.488281 -1.089844 -1.089844 v -4.363281 c 0 -0.605469 0.488282 -1.09375 1.089844 -1.09375 z m 0 0"/>
    </g>
    <path d="M 35.794 37.058 C 35.397 37.668 34.707 38.07 33.925 38.07 C 32.695 38.07 31.698 37.072 31.698 35.842 C 31.698 35.118 32.044 34.473 32.58 34.066 C 32.649 33.986 32.727 33.91 32.81 33.836 L 46.915 21.705 C 47.178 21.479 47.574 21.493 47.82 21.739 C 48.064 21.983 48.081 22.372 47.859 22.637 L 35.928 36.911 C 35.885 36.962 35.84 37.012 35.794 37.058 Z M 35.794 37.058" fill="url(#b)" fill-rule="evenodd" style="stroke-width: 0.409;"/>
    <path d="M 48.63 35.842 C 48.63 35.596 48.831 35.397 49.077 35.397 L 50.86 35.397 C 51.105 35.397 51.305 35.596 51.305 35.842 C 51.305 36.088 51.105 36.287 50.86 36.287 L 49.077 36.287 C 48.831 36.287 48.63 36.088 48.63 35.842 Z M 48.63 35.842" fill="#ffffff" style="stroke-width: 0.409;"/>
    <path d="M 16.544 35.842 C 16.544 35.596 16.744 35.397 16.989 35.397 L 18.772 35.397 C 19.019 35.397 19.219 35.596 19.219 35.842 C 19.219 36.088 19.019 36.287 18.772 36.287 L 16.989 36.287 C 16.744 36.287 16.544 36.088 16.544 35.842 Z M 16.544 35.842" fill="#ffffff" style="stroke-width: 0.409;"/>
    <path d="M 33.925 34.95 C 33.432 34.95 33.033 35.351 33.033 35.842 C 33.033 36.334 33.432 36.734 33.925 36.734 C 34.417 36.734 34.816 36.334 34.816 35.842 C 34.816 35.351 34.417 34.95 33.925 34.95 Z M 33.925 34.95" fill="#68676b" style="stroke-width: 0.409;"/>
  </g>
</svg>