<?xml version="1.0" encoding="utf-8"?>
<svg width="64" height="64" version="1.1" xmlns="http://www.w3.org/2000/svg">
  <defs>
    <filter id="filter8" x="-.012" y="-.012" width="1.024" height="1.024" color-interpolation-filters="sRGB">
      <feGaussianBlur stdDeviation="0.074081873"/>
    </filter>
    <linearGradient id="linearGradient7" x1="2.5981" x2="10.583" y1="2.8356" y2="11.312" gradientUnits="userSpaceOnUse" href="#linearGradient6"/>
    <linearGradient id="linearGradient6">
      <stop stop-color="#ffffff" offset="0"/>
      <stop stop-color="#ffffff" stop-opacity="0" offset="1"/>
    </linearGradient>
    <linearGradient id="linearGradient8" x1="15.081" x2="12.7" y1="14.816" y2="12.171" gradientUnits="userSpaceOnUse" href="#linearGradient6"/>
    <linearGradient id="linearGradient3" x1="8.4665" x2="8.4665" y1="1.0583" y2="15.875" gradientTransform="matrix(3.7796, 0, 0, 3.7796, -0.000145, -0.000283)" gradientUnits="userSpaceOnUse">
      <stop stop-color="#323131" offset="0"/>
      <stop stop-color="#141414" offset="1"/>
    </linearGradient>
    <linearGradient id="linearGradient57" gradientUnits="userSpaceOnUse" x1="24" y1="223" x2="104" y2="223" href="#linearGradient22" gradientTransform="matrix(0.435294, 0, 0, 0.435294, 4.141203, -68.205224)"/>
    <linearGradient id="linearGradient22">
      <stop style="stop-color:#3d3846;stop-opacity:1;" offset="0" id="stop22"/>
      <stop style="stop-color:#675d75;stop-opacity:1;" offset="0.06" id="stop24"/>
      <stop style="stop-color:#3d3846;stop-opacity:1;" offset="0.118" id="stop25"/>
      <stop style="stop-opacity: 1; stop-color: rgb(68, 62, 80);" offset="0.204" id="stop26"/>
      <stop style="stop-color:#3d3846;stop-opacity:1;" offset="0.3438" id="stop28"/>
      <stop style="stop-color:#27242c;stop-opacity:1;" offset="0.5986" id="stop29"/>
      <stop style="stop-color:#524c5e;stop-opacity:1;" offset="0.7754" id="stop30"/>
      <stop style="stop-color:#3d3846;stop-opacity:1;" offset="0.8638" id="stop31"/>
      <stop style="stop-color:#5f586e;stop-opacity:1;" offset="0.9301" id="stop32"/>
      <stop style="stop-color:#3d3846;stop-opacity:1;" offset="1" id="stop23"/>
    </linearGradient>
    <linearGradient id="linearGradient58" gradientUnits="userSpaceOnUse" x1="36.05806" y1="266.75" x2="92.000488" y2="266.75" href="#linearGradient33" gradientTransform="matrix(0.435294, 0, 0, 0.435294, 4.141203, -68.205224)"/>
    <linearGradient id="linearGradient33">
      <stop style="stop-color:#2f2b35;stop-opacity:1;" offset="0" id="stop33"/>
      <stop style="stop-color:#5c5569;stop-opacity:1;" offset="0.025" id="stop36"/>
      <stop style="stop-color:#2f2b35;stop-opacity:1;" offset="0.0465" id="stop35"/>
      <stop style="stop-opacity: 1; stop-color: rgb(83, 76, 94);" offset="0.951" id="stop37"/>
      <stop style="stop-color:#544d60;stop-opacity:1;" offset="0.9729" id="stop38"/>
      <stop style="stop-color:#2f2b35;stop-opacity:1;" offset="1" id="stop34"/>
    </linearGradient>
    <linearGradient id="linearGradient59" gradientUnits="userSpaceOnUse" x1="69" y1="197" x2="61.5" y2="262" href="#linearGradient40" gradientTransform="matrix(0.435294, 0, 0, -0.435294, 4.141143, 130.506353)"/>
    <linearGradient id="linearGradient40">
      <stop style="stop-color:#a3a2aa;stop-opacity:1;" offset="0" id="stop39"/>
      <stop style="stop-color:#cbcace;stop-opacity:0.49678612;" offset="1" id="stop40"/>
    </linearGradient>
    <linearGradient id="linearGradient60" gradientUnits="userSpaceOnUse" x1="69" y1="197" x2="61.5" y2="262" href="#linearGradient19" gradientTransform="matrix(0.435294, 0, 0, 0.435294, 4.141203, -72.122865)"/>
    <linearGradient id="linearGradient19">
      <stop style="stop-color:#a3a2aa;stop-opacity:1;" offset="0" id="stop19"/>
      <stop style="stop-opacity: 1; stop-color: rgb(158, 155, 168);" offset="1" id="stop20"/>
    </linearGradient>
  </defs>
  <g>
    <path d="M 20.26 4.001 C 14.478 4.001 10.517 5.725 7.939 8.535 C 5.374 11.332 4 15.339 4 19.876 L 4 44.124 C 4 48.662 5.373 52.67 7.939 55.465 C 10.517 58.276 14.478 60 20.26 60 L 43.809 60 C 49.591 60 53.551 58.276 56.13 55.465 C 58.695 52.669 60 49.03 60 44.124 L 60 20.787 C 60 14.852 58.695 11.331 56.13 8.535 C 53.551 5.725 49.591 4.001 43.809 4.001 L 25.494 4.001 L 20.26 4.001 Z" fill="url(#linearGradient3)" stroke-width="3.7796"/>
    <g transform="matrix(3.7796, 0, 0, 3.7796, 0.000051, 0.000349)" filter="url(#filter8)" opacity=".35">
      <path d="m5.3603 1.0583c-1.5298 0-2.5775 0.45637-3.2597 1.1999-0.67868 0.73981-1.0423 1.8002-1.0423 3.0008v6.415c0 1.2006 0.36361 2.2609 1.0423 3.0008 0.68219 0.74355 1.7299 1.1999 3.2597 1.1999h6.2305c1.5298 0 2.5775-0.45637 3.2597-1.1999 0.67868-0.73981 1.0242-1.7027 1.0242-3.0008v-6.1742c0-1.5703-0.34552-2.5018-1.0242-3.2416-0.68219-0.74355-1.7299-1.1999-3.2597-1.1999h-4.8456zm-0.00103 0.26406h6.2326c1.4772 0 2.437 0.43133 3.0644 1.1152 0.63411 0.69126 0.95341 1.5307 0.95341 3.0623v6.1742c0 1.2512-0.32181 2.1335-0.95341 2.822-0.6274 0.68381-1.5871 1.1136-3.0644 1.1136h-6.2326c-1.4772 0-2.437-0.42978-3.0644-1.1136-0.62537-0.68172-0.97253-1.6747-0.97253-2.822v-6.4145c0-1.1472 0.34717-2.1403 0.97253-2.822 0.6274-0.68381 1.5871-1.1152 3.0644-1.1152z" fill="url(#linearGradient7)"/>
      <path d="m5.3603 1.0583c-1.5298 0-2.5775 0.45637-3.2597 1.1999-0.67868 0.73981-1.0423 1.8002-1.0423 3.0008v6.415c0 1.2006 0.36361 2.2609 1.0423 3.0008 0.68219 0.74355 1.7299 1.1999 3.2597 1.1999h6.2305c1.5298 0 2.5775-0.45637 3.2597-1.1999 0.67868-0.73981 1.0242-1.7027 1.0242-3.0008v-6.1742c0-1.5703-0.34552-2.5018-1.0242-3.2416-0.68219-0.74355-1.7299-1.1999-3.2597-1.1999h-4.8456zm-0.00103 0.26406h6.2326c1.4772 0 2.437 0.43133 3.0644 1.1152 0.63411 0.69126 0.95341 1.5307 0.95341 3.0623v6.1742c0 1.2512-0.32181 2.1335-0.95341 2.822-0.6274 0.68381-1.5871 1.1136-3.0644 1.1136h-6.2326c-1.4772 0-2.437-0.42978-3.0644-1.1136-0.62537-0.68172-0.97253-1.6747-0.97253-2.822v-6.4145c0-1.1472 0.34717-2.1403 0.97253-2.822 0.6274-0.68381 1.5871-1.1152 3.0644-1.1152z" fill="url(#linearGradient8)" stroke-width="1.0001"/>
    </g>
  </g>
  <path id="path43" style="opacity: 1; fill: rgb(61, 56, 70); fill-opacity: 0.115983; stroke-width: 1.088; stroke-linecap: square; stroke-linejoin: round; display: inline;" d="M 17.853 15.807 C 16.713 15.807 15.581 16.276 14.775 17.082 C 13.969 17.888 13.5 19.02 13.5 20.159 L 13.5 30.387 C 13.5 31.938 14.781 33.218 16.331 33.218 C 17.883 33.218 19.088 31.968 19.235 30.498 C 19.458 28.251 20.131 26.852 21.272 25.935 C 22.414 25.017 24.177 24.512 26.776 24.512 L 27.429 24.512 L 27.429 43.012 L 19.812 43.012 C 19.211 43.012 18.724 43.5 18.724 44.101 L 18.724 50.63 C 18.724 51.77 19.76 52.807 20.9 52.807 L 43.1 52.807 C 44.24 52.807 45.276 51.77 45.276 50.63 L 45.276 44.318 C 45.277 43.728 44.806 43.245 44.215 43.23 L 36.571 43.04 L 36.571 24.512 L 37.224 24.512 C 39.823 24.512 41.586 25.017 42.728 25.935 C 43.869 26.852 44.542 28.251 44.766 30.498 C 44.912 31.969 46.12 33.218 47.672 33.218 C 47.673 33.218 47.673 33.218 47.673 33.218 C 49.223 33.217 50.501 31.936 50.5 30.387 L 50.5 30.386 L 50.5 20.159 C 50.5 19.02 50.031 17.888 49.225 17.082 C 48.419 16.276 47.287 15.807 46.147 15.807 L 17.853 15.807 Z"/>
  <path id="path44" style="opacity: 1; fill: url(&quot;#linearGradient57&quot;); fill-opacity: 1; stroke-width: 1.088; stroke-linecap: square; stroke-linejoin: round; display: inline;" d="M 14.588 15.807 L 14.588 29.299 C 14.588 30.261 15.369 31.042 16.331 31.042 C 17.292 31.042 18.056 30.259 18.152 29.301 C 18.634 24.447 21.298 22.336 26.777 22.336 L 28.517 22.336 L 28.517 40.618 L 19.812 43.012 L 19.812 49.542 C 19.812 50.143 20.299 50.63 20.9 50.63 L 43.1 50.63 C 43.701 50.63 44.188 50.143 44.188 49.542 L 44.188 43.23 L 35.483 40.618 L 35.483 22.336 L 37.223 22.336 C 42.702 22.336 45.366 24.447 45.848 29.301 C 45.944 30.259 46.709 31.042 47.672 31.042 C 48.634 31.041 49.413 30.261 49.412 29.299 L 49.412 15.807 L 45.929 15.807 L 44.188 15.807 L 26.777 15.807 L 19.812 15.807 L 18.071 15.807 L 14.588 15.807 Z"/>
  <path id="path45" style="opacity: 1; fill: url(&quot;#linearGradient58&quot;); fill-opacity: 1; stroke-width: 1.088; stroke-linecap: square; stroke-linejoin: round; display: inline;" d="M 28.517 40.618 L 19.812 43.012 L 19.812 49.542 C 19.812 50.143 20.299 50.63 20.9 50.63 L 43.1 50.63 C 43.701 50.63 44.188 50.143 44.188 49.542 L 44.188 43.23 L 35.483 40.618 L 28.517 40.618 Z"/>
  <path id="path46" style="opacity: 1; fill: url(&quot;#linearGradient59&quot;); fill-opacity: 1; stroke-width: 1.088; stroke-linecap: square; stroke-linejoin: round; transform-box: fill-box; transform-origin: 50% 50%; display: inline;" d="M 16.765 45.189 C 15.563 45.189 14.588 44.214 14.588 43.012 L 14.588 34.727 C 14.588 33.774 15.361 33 16.315 33 L 16.344 33 C 17.298 33 18.057 33.776 18.151 34.725 C 18.628 39.591 21.292 41.706 26.777 41.706 L 28.517 41.706 L 28.517 21.682 C 28.517 21.663 28.518 21.644 28.517 21.625 C 28.483 16.976 24.271 16.511 20.9 16.464 C 20.299 16.456 19.812 15.972 19.812 15.371 L 19.812 14.935 C 19.812 14.334 20.299 13.847 20.9 13.847 L 43.1 13.847 C 43.701 13.847 44.188 14.334 44.188 14.935 L 44.188 15.371 C 44.188 15.972 43.701 16.456 43.1 16.464 C 39.729 16.511 35.517 16.977 35.483 21.625 C 35.482 21.644 35.483 21.663 35.483 21.682 L 35.483 41.706 L 37.223 41.706 C 42.708 41.706 45.372 39.591 45.85 34.725 C 45.943 33.776 46.702 33 47.656 33 L 47.685 33 C 48.639 33 49.412 33.774 49.412 34.727 L 49.412 43.012 C 49.412 44.214 48.437 45.189 47.235 45.189 L 16.765 45.189 Z" transform="matrix(-1, 0, 0, -1, -0.00002, 0)"/>
  <path id="path47" style="opacity: 1; fill: url(&quot;#linearGradient60&quot;); fill-opacity: 1; stroke-width: 1.088; stroke-linecap: square; stroke-linejoin: round; display: inline;" d="M 16.765 13.194 C 15.563 13.194 14.588 14.169 14.588 15.371 L 14.588 23.656 C 14.588 24.61 15.361 25.383 16.315 25.383 L 16.344 25.383 C 17.298 25.383 18.057 24.607 18.151 23.658 C 18.628 18.792 21.292 16.677 26.777 16.677 L 28.517 16.677 L 28.517 36.701 C 28.517 36.72 28.518 36.739 28.517 36.758 C 28.483 41.407 24.271 41.872 20.9 41.919 C 20.299 41.927 19.812 42.411 19.812 43.012 L 19.812 43.448 C 19.812 44.049 20.299 44.536 20.9 44.536 L 43.1 44.536 C 43.701 44.536 44.188 44.049 44.188 43.448 L 44.188 43.012 C 44.188 42.411 43.701 41.927 43.1 41.919 C 39.729 41.872 35.517 41.406 35.483 36.758 C 35.482 36.739 35.483 36.72 35.483 36.701 L 35.483 16.677 L 37.223 16.677 C 42.708 16.677 45.372 18.792 45.85 23.658 C 45.943 24.607 46.702 25.383 47.656 25.383 L 47.685 25.383 C 48.639 25.383 49.412 24.61 49.412 23.656 L 49.412 15.371 C 49.412 14.169 48.437 13.194 47.235 13.194 L 16.765 13.194 Z"/>
</svg>