<?xml version="1.0" encoding="utf-8"?>
<svg width="64" height="64" version="1.1" xmlns="http://www.w3.org/2000/svg">
  <defs>
    <filter id="filter8" x="-.012" y="-.012" width="1.024" height="1.024" color-interpolation-filters="sRGB">
      <feGaussianBlur stdDeviation="0.074081873"/>
    </filter>
    <linearGradient id="linearGradient7" x1="2.5981" x2="10.583" y1="2.8356" y2="11.312" gradientUnits="userSpaceOnUse" href="#linearGradient6"/>
    <linearGradient id="linearGradient6">
      <stop stop-color="#ffffff" offset="0"/>
      <stop stop-color="#ffffff" stop-opacity="0" offset="1"/>
    </linearGradient>
    <linearGradient id="linearGradient8" x1="15.081" x2="12.7" y1="14.816" y2="12.171" gradientUnits="userSpaceOnUse" href="#linearGradient6"/>
    <linearGradient id="linearGradient3" x1="8.4665" x2="8.4665" y1="1.0583" y2="15.875" gradientTransform="matrix(3.7796, 0, 0, 3.7796, -0.000145, -0.000283)" gradientUnits="userSpaceOnUse">
      <stop stop-color="#323131" offset="0"/>
      <stop stop-color="#141414" offset="1"/>
    </linearGradient>
  </defs>
  <g>
    <path d="M 20.26 4.001 C 14.478 4.001 10.517 5.725 7.939 8.535 C 5.374 11.332 4 15.339 4 19.876 L 4 44.124 C 4 48.662 5.373 52.67 7.939 55.465 C 10.517 58.276 14.478 60 20.26 60 L 43.809 60 C 49.591 60 53.551 58.276 56.13 55.465 C 58.695 52.669 60 49.03 60 44.124 L 60 20.787 C 60 14.852 58.695 11.331 56.13 8.535 C 53.551 5.725 49.591 4.001 43.809 4.001 L 25.494 4.001 L 20.26 4.001 Z" fill="url(#linearGradient3)" stroke-width="3.7796"/>
    <g transform="matrix(3.7796, 0, 0, 3.7796, 0.000051, 0.000349)" filter="url(#filter8)" opacity=".35">
      <path d="m5.3603 1.0583c-1.5298 0-2.5775 0.45637-3.2597 1.1999-0.67868 0.73981-1.0423 1.8002-1.0423 3.0008v6.415c0 1.2006 0.36361 2.2609 1.0423 3.0008 0.68219 0.74355 1.7299 1.1999 3.2597 1.1999h6.2305c1.5298 0 2.5775-0.45637 3.2597-1.1999 0.67868-0.73981 1.0242-1.7027 1.0242-3.0008v-6.1742c0-1.5703-0.34552-2.5018-1.0242-3.2416-0.68219-0.74355-1.7299-1.1999-3.2597-1.1999h-4.8456zm-0.00103 0.26406h6.2326c1.4772 0 2.437 0.43133 3.0644 1.1152 0.63411 0.69126 0.95341 1.5307 0.95341 3.0623v6.1742c0 1.2512-0.32181 2.1335-0.95341 2.822-0.6274 0.68381-1.5871 1.1136-3.0644 1.1136h-6.2326c-1.4772 0-2.437-0.42978-3.0644-1.1136-0.62537-0.68172-0.97253-1.6747-0.97253-2.822v-6.4145c0-1.1472 0.34717-2.1403 0.97253-2.822 0.6274-0.68381 1.5871-1.1152 3.0644-1.1152z" fill="url(#linearGradient7)"/>
      <path d="m5.3603 1.0583c-1.5298 0-2.5775 0.45637-3.2597 1.1999-0.67868 0.73981-1.0423 1.8002-1.0423 3.0008v6.415c0 1.2006 0.36361 2.2609 1.0423 3.0008 0.68219 0.74355 1.7299 1.1999 3.2597 1.1999h6.2305c1.5298 0 2.5775-0.45637 3.2597-1.1999 0.67868-0.73981 1.0242-1.7027 1.0242-3.0008v-6.1742c0-1.5703-0.34552-2.5018-1.0242-3.2416-0.68219-0.74355-1.7299-1.1999-3.2597-1.1999h-4.8456zm-0.00103 0.26406h6.2326c1.4772 0 2.437 0.43133 3.0644 1.1152 0.63411 0.69126 0.95341 1.5307 0.95341 3.0623v6.1742c0 1.2512-0.32181 2.1335-0.95341 2.822-0.6274 0.68381-1.5871 1.1136-3.0644 1.1136h-6.2326c-1.4772 0-2.437-0.42978-3.0644-1.1136-0.62537-0.68172-0.97253-1.6747-0.97253-2.822v-6.4145c0-1.1472 0.34717-2.1403 0.97253-2.822 0.6274-0.68381 1.5871-1.1152 3.0644-1.1152z" fill="url(#linearGradient8)" stroke-width="1.0001"/>
    </g>
  </g>
  <g transform="matrix(1, 0, 0, 1, -147.627962, -37.6204)">
    <g transform="matrix(0.481926, 0, 0, 0.481926, 136.580492, 49.790463)">
      <path d="M 121.48 42.148 L 106.168 42.148 C 103.218 42.148 100.824 44.542 100.824 47.492 L 100.824 62.804 C 100.824 65.753 103.218 68.148 106.168 68.148 L 121.48 68.148 C 124.429 68.148 126.824 65.753 126.824 62.804 L 126.824 47.492 C 126.824 44.542 124.429 42.148 121.48 42.148 Z M 121.48 42.148" fill="#99c1f1" style="stroke-width: 1;"/>
      <path d="M 121.476 42.148 C 124.441 42.148 126.824 44.531 126.824 47.492 L 126.824 49.492 C 126.824 46.531 124.441 44.148 121.476 44.148 L 106.168 44.148 C 103.207 44.148 100.824 46.531 100.824 49.492 L 100.824 47.492 C 100.824 44.531 103.207 42.148 106.168 42.148 L 121.476 42.148 Z M 121.476 42.148" fill="#62a0ea" style="stroke-width: 1;"/>
      <path d="M 127.824 42.027 C 127.027 42.027 126.265 42.343 125.703 42.906 L 113.824 54.785 L 109.945 50.906 C 108.773 49.734 106.875 49.734 105.703 50.906 C 104.531 52.078 104.531 53.976 105.703 55.148 L 111.703 61.148 C 112.875 62.32 114.773 62.32 115.945 61.148 L 129.945 47.148 C 131.117 45.976 131.117 44.078 129.945 42.906 C 129.382 42.343 128.621 42.027 127.824 42.027 Z M 127.824 42.027" fill="#1c71d8" style="stroke-width: 1;"/>
      <g fill-rule="evenodd" transform="matrix(1, 0, 0, 1, 23.823758, -27.852108)">
        <path d="m 37 70 h 18 c 7.179688 0 13 5.820312 13 13 s -5.820312 13 -13 13 h -18 c -7.179688 0 -13 -5.820312 -13 -13 s 5.820312 -13 13 -13 z m 0 0" fill="#3584e4"/>
        <path d="m 64 83 c 0 4.96875 -4.03125 9 -9 9 s -9 -4.03125 -9 -9 s 4.03125 -9 9 -9 s 9 4.03125 9 9 z m 0 0" fill="#ffffff"/>
        <path d="m 37 70 c -7.203125 0 -13 5.796875 -13 13 c 0 0.335938 0.015625 0.667969 0.042969 1 c 0.507812 -6.730469 6.09375 -12 12.957031 -12 h 18 c 6.863281 0 12.449219 5.269531 12.957031 12 c 0.027344 -0.332031 0.042969 -0.664062 0.042969 -1 c 0 -7.203125 -5.796875 -13 -13 -13 z m 0 0" fill="#1c71d8"/>
        <path d="m 28 47 h 72 c 2.210938 0 4 1.789062 4 4 s -1.789062 4 -4 4 h -72 c -2.210938 0 -4 -1.789062 -4 -4 s 1.789062 -4 4 -4 z m 0 0" fill="#d1d1d1"/>
        <path d="m 28 47 h 38 c 2.210938 0 4 1.789062 4 4 s -1.789062 4 -4 4 h -38 c -2.210938 0 -4 -1.789062 -4 -4 s 1.789062 -4 4 -4 z m 0 0" fill="#767676"/>
        <path d="m 71 42 c 4.417969 0 8 3.582031 8 8 v 3 c 0 4.417969 -3.582031 8 -8 8 s -8 -3.582031 -8 -8 v -3 c 0 -4.417969 3.582031 -8 8 -8 z m 0 0" fill="#ababab"/>
        <path d="m 79 50 c 0 4.417969 -3.582031 8 -8 8 s -8 -3.582031 -8 -8 s 3.582031 -8 8 -8 s 8 3.582031 8 8 z m 0 0" fill="#c0c0c0"/>
      </g>
    </g>
  </g>
</svg>