<?xml version="1.0" encoding="utf-8"?>
<svg width="64" height="64" version="1.1" xmlns="http://www.w3.org/2000/svg">
  <defs>
    <filter id="filter8" x="-.012" y="-.012" width="1.024" height="1.024" color-interpolation-filters="sRGB">
      <feGaussianBlur stdDeviation="0.074081873"/>
    </filter>
    <linearGradient id="linearGradient7" x1="2.5981" x2="10.583" y1="2.8356" y2="11.312" gradientUnits="userSpaceOnUse" href="#linearGradient6"/>
    <linearGradient id="linearGradient6">
      <stop stop-color="#ffffff" offset="0"/>
      <stop stop-color="#ffffff" stop-opacity="0" offset="1"/>
    </linearGradient>
    <linearGradient id="linearGradient8" x1="15.081" x2="12.7" y1="14.816" y2="12.171" gradientUnits="userSpaceOnUse" href="#linearGradient6"/>
    <linearGradient id="linearGradient3" x1="8.4665" x2="8.4665" y1="1.0583" y2="15.875" gradientTransform="matrix(3.7796, 0, 0, 3.7796, -0.000145, -0.000283)" gradientUnits="userSpaceOnUse">
      <stop stop-color="#323131" offset="0"/>
      <stop stop-color="#141414" offset="1"/>
    </linearGradient>
  </defs>
  <g>
    <path d="M 20.26 4.001 C 14.478 4.001 10.517 5.725 7.939 8.535 C 5.374 11.332 4 15.339 4 19.876 L 4 44.124 C 4 48.662 5.373 52.67 7.939 55.465 C 10.517 58.276 14.478 60 20.26 60 L 43.809 60 C 49.591 60 53.551 58.276 56.13 55.465 C 58.695 52.669 60 49.03 60 44.124 L 60 20.787 C 60 14.852 58.695 11.331 56.13 8.535 C 53.551 5.725 49.591 4.001 43.809 4.001 L 25.494 4.001 L 20.26 4.001 Z" fill="url(#linearGradient3)" stroke-width="3.7796"/>
    <g transform="matrix(3.7796, 0, 0, 3.7796, 0.000051, 0.000349)" filter="url(#filter8)" opacity=".35">
      <path d="m5.3603 1.0583c-1.5298 0-2.5775 0.45637-3.2597 1.1999-0.67868 0.73981-1.0423 1.8002-1.0423 3.0008v6.415c0 1.2006 0.36361 2.2609 1.0423 3.0008 0.68219 0.74355 1.7299 1.1999 3.2597 1.1999h6.2305c1.5298 0 2.5775-0.45637 3.2597-1.1999 0.67868-0.73981 1.0242-1.7027 1.0242-3.0008v-6.1742c0-1.5703-0.34552-2.5018-1.0242-3.2416-0.68219-0.74355-1.7299-1.1999-3.2597-1.1999h-4.8456zm-0.00103 0.26406h6.2326c1.4772 0 2.437 0.43133 3.0644 1.1152 0.63411 0.69126 0.95341 1.5307 0.95341 3.0623v6.1742c0 1.2512-0.32181 2.1335-0.95341 2.822-0.6274 0.68381-1.5871 1.1136-3.0644 1.1136h-6.2326c-1.4772 0-2.437-0.42978-3.0644-1.1136-0.62537-0.68172-0.97253-1.6747-0.97253-2.822v-6.4145c0-1.1472 0.34717-2.1403 0.97253-2.822 0.6274-0.68381 1.5871-1.1152 3.0644-1.1152z" fill="url(#linearGradient7)"/>
      <path d="m5.3603 1.0583c-1.5298 0-2.5775 0.45637-3.2597 1.1999-0.67868 0.73981-1.0423 1.8002-1.0423 3.0008v6.415c0 1.2006 0.36361 2.2609 1.0423 3.0008 0.68219 0.74355 1.7299 1.1999 3.2597 1.1999h6.2305c1.5298 0 2.5775-0.45637 3.2597-1.1999 0.67868-0.73981 1.0242-1.7027 1.0242-3.0008v-6.1742c0-1.5703-0.34552-2.5018-1.0242-3.2416-0.68219-0.74355-1.7299-1.1999-3.2597-1.1999h-4.8456zm-0.00103 0.26406h6.2326c1.4772 0 2.437 0.43133 3.0644 1.1152 0.63411 0.69126 0.95341 1.5307 0.95341 3.0623v6.1742c0 1.2512-0.32181 2.1335-0.95341 2.822-0.6274 0.68381-1.5871 1.1136-3.0644 1.1136h-6.2326c-1.4772 0-2.437-0.42978-3.0644-1.1136-0.62537-0.68172-0.97253-1.6747-0.97253-2.822v-6.4145c0-1.1472 0.34717-2.1403 0.97253-2.822 0.6274-0.68381 1.5871-1.1152 3.0644-1.1152z" fill="url(#linearGradient8)" stroke-width="1.0001"/>
    </g>
  </g>
  <g transform="matrix(0.8125, 0, 0, 0.8125, -36.507828, -1.20987)">
    <circle style="opacity: 0.2; stroke-width: 1;" cx="92.944" cy="57.41" r="8"/>
    <circle cx="92.944" cy="56.41" r="8" style="fill: rgb(255, 157, 4); stroke-width: 1;"/>
    <path style="fill: rgb(255, 255, 255); stroke-width: 1;" d="M 88.944 58.628 L 88.944 60.41 L 90.726 60.41 L 95.227 55.909 L 93.445 54.127 L 88.944 58.628 Z M 96.803 54.338 C 96.991 54.15 96.991 53.853 96.803 53.665 L 95.689 52.551 C 95.501 52.362 95.204 52.362 95.015 52.551 L 94.084 53.488 L 95.866 55.27 L 96.803 54.338 Z"/>
  </g>
  <g transform="matrix(1.722222, 0, 0, 1.722222, -125.290506, -7.978469)">
    <path d="M 95.33 15.789 L 95.33 18.789 L 93.33 18.789 L 93.33 20.789 L 95.33 20.789 L 95.33 24.906 C 95.33 27.729 96.33 28.789 98.123 28.789 L 100.33 28.789 L 100.33 26.789 L 98.346 26.789 C 97.381 26.789 97.33 26.118 97.33 24.707 L 97.33 20.789 L 100.33 20.789 L 100.33 18.789 L 97.33 18.789 L 97.33 15.789 L 95.33 15.789 Z M 87.356 15.81 C 83.385 15.81 82.33 18.053 82.33 22.289 C 82.33 26.524 83.367 28.816 87.356 28.816 L 88.489 28.816 L 90.139 31.638 L 92.051 30.933 L 90.492 28.109 C 91.977 27.403 92.33 25.112 92.33 22.289 C 92.33 18.053 91.326 15.81 87.356 15.81 Z M 87.338 17.789 C 89.76 17.789 90.33 19.546 90.33 22.443 C 90.33 25.34 89.779 26.789 87.338 26.789 C 84.898 26.789 84.33 25.34 84.33 22.443 C 84.33 19.546 84.916 17.789 87.338 17.789 Z" style="opacity: 0.2; stroke-width: 1;"/>
    <path d="M 95.33 14.789 L 95.33 17.789 L 93.33 17.789 L 93.33 19.789 L 95.33 19.789 L 95.33 23.906 C 95.33 26.729 96.33 27.789 98.123 27.789 L 100.33 27.789 L 100.33 25.789 L 98.346 25.789 C 97.381 25.789 97.33 25.118 97.33 23.707 L 97.33 19.789 L 100.33 19.789 L 100.33 17.789 L 97.33 17.789 L 97.33 14.789 L 95.33 14.789 Z M 87.356 14.81 C 83.385 14.81 82.33 17.053 82.33 21.289 C 82.33 25.524 83.367 27.816 87.356 27.816 L 88.489 27.816 L 90.139 30.638 L 92.051 29.933 L 90.492 27.109 C 91.977 26.403 92.33 24.112 92.33 21.289 C 92.33 17.053 91.326 14.81 87.356 14.81 Z M 87.338 16.789 C 89.76 16.789 90.33 18.546 90.33 21.443 C 90.33 24.34 89.779 25.789 87.338 25.789 C 84.898 25.789 84.33 24.34 84.33 21.443 C 84.33 18.546 84.916 16.789 87.338 16.789 Z" style="fill: rgb(255, 255, 255); stroke-width: 1;"/>
  </g>
</svg>