<?xml version="1.0" encoding="utf-8"?>
<svg width="64" height="64" version="1.1" xmlns="http://www.w3.org/2000/svg">
  <defs>
    <filter id="filter8" x="-.012" y="-.012" width="1.024" height="1.024" color-interpolation-filters="sRGB">
      <feGaussianBlur stdDeviation="0.074081873"/>
    </filter>
    <linearGradient id="linearGradient7" x1="2.5981" x2="10.583" y1="2.8356" y2="11.312" gradientUnits="userSpaceOnUse" href="#linearGradient6"/>
    <linearGradient id="linearGradient6">
      <stop stop-color="#ffffff" offset="0"/>
      <stop stop-color="#ffffff" stop-opacity="0" offset="1"/>
    </linearGradient>
    <linearGradient id="linearGradient8" x1="15.081" x2="12.7" y1="14.816" y2="12.171" gradientUnits="userSpaceOnUse" href="#linearGradient6"/>
    <linearGradient id="linearGradient3" x1="8.4665" x2="8.4665" y1="1.0583" y2="15.875" gradientTransform="matrix(3.7796, 0, 0, 3.7796, -0.000145, -0.000283)" gradientUnits="userSpaceOnUse">
      <stop stop-color="#323131" offset="0"/>
      <stop stop-color="#141414" offset="1"/>
    </linearGradient>
  </defs>
  <g>
    <path d="M 20.26 4.001 C 14.478 4.001 10.517 5.725 7.939 8.535 C 5.374 11.332 4 15.339 4 19.876 L 4 44.124 C 4 48.662 5.373 52.67 7.939 55.465 C 10.517 58.276 14.478 60 20.26 60 L 43.809 60 C 49.591 60 53.551 58.276 56.13 55.465 C 58.695 52.669 60 49.03 60 44.124 L 60 20.787 C 60 14.852 58.695 11.331 56.13 8.535 C 53.551 5.725 49.591 4.001 43.809 4.001 L 25.494 4.001 L 20.26 4.001 Z" fill="url(#linearGradient3)" stroke-width="3.7796"/>
    <g transform="matrix(3.7796, 0, 0, 3.7796, 0.000051, 0.000349)" filter="url(#filter8)" opacity=".35">
      <path d="m5.3603 1.0583c-1.5298 0-2.5775 0.45637-3.2597 1.1999-0.67868 0.73981-1.0423 1.8002-1.0423 3.0008v6.415c0 1.2006 0.36361 2.2609 1.0423 3.0008 0.68219 0.74355 1.7299 1.1999 3.2597 1.1999h6.2305c1.5298 0 2.5775-0.45637 3.2597-1.1999 0.67868-0.73981 1.0242-1.7027 1.0242-3.0008v-6.1742c0-1.5703-0.34552-2.5018-1.0242-3.2416-0.68219-0.74355-1.7299-1.1999-3.2597-1.1999h-4.8456zm-0.00103 0.26406h6.2326c1.4772 0 2.437 0.43133 3.0644 1.1152 0.63411 0.69126 0.95341 1.5307 0.95341 3.0623v6.1742c0 1.2512-0.32181 2.1335-0.95341 2.822-0.6274 0.68381-1.5871 1.1136-3.0644 1.1136h-6.2326c-1.4772 0-2.437-0.42978-3.0644-1.1136-0.62537-0.68172-0.97253-1.6747-0.97253-2.822v-6.4145c0-1.1472 0.34717-2.1403 0.97253-2.822 0.6274-0.68381 1.5871-1.1152 3.0644-1.1152z" fill="url(#linearGradient7)"/>
      <path d="m5.3603 1.0583c-1.5298 0-2.5775 0.45637-3.2597 1.1999-0.67868 0.73981-1.0423 1.8002-1.0423 3.0008v6.415c0 1.2006 0.36361 2.2609 1.0423 3.0008 0.68219 0.74355 1.7299 1.1999 3.2597 1.1999h6.2305c1.5298 0 2.5775-0.45637 3.2597-1.1999 0.67868-0.73981 1.0242-1.7027 1.0242-3.0008v-6.1742c0-1.5703-0.34552-2.5018-1.0242-3.2416-0.68219-0.74355-1.7299-1.1999-3.2597-1.1999h-4.8456zm-0.00103 0.26406h6.2326c1.4772 0 2.437 0.43133 3.0644 1.1152 0.63411 0.69126 0.95341 1.5307 0.95341 3.0623v6.1742c0 1.2512-0.32181 2.1335-0.95341 2.822-0.6274 0.68381-1.5871 1.1136-3.0644 1.1136h-6.2326c-1.4772 0-2.437-0.42978-3.0644-1.1136-0.62537-0.68172-0.97253-1.6747-0.97253-2.822v-6.4145c0-1.1472 0.34717-2.1403 0.97253-2.822 0.6274-0.68381 1.5871-1.1152 3.0644-1.1152z" fill="url(#linearGradient8)" stroke-width="1.0001"/>
    </g>
  </g>
  <linearGradient id="a" gradientUnits="userSpaceOnUse" x1="36" x2="60" y1="68" y2="68" gradientTransform="matrix(1, 0, 0, 1, -18.54035, -28.95702)">
    <stop offset="0" stop-color="#ed336c"/>
    <stop offset="1" stop-color="#ffa348"/>
  </linearGradient>
  <linearGradient id="b" gradientTransform="matrix(0, 1, -1, 0, 125.459652, -60.957021)" gradientUnits="userSpaceOnUse" x1="72" x2="96" y1="68" y2="68">
    <stop offset="0" stop-color="#404ce6"/>
    <stop offset="1" stop-color="#c061cb"/>
  </linearGradient>
  <linearGradient id="c" gradientUnits="userSpaceOnUse" x1="68.84919" x2="95.257637" y1="84" y2="84" gradientTransform="matrix(1, 0, 0, 1, -18.54035, -28.95702)">
    <stop offset="0" stop-color="#33d1c6"/>
    <stop offset="1" stop-color="#1c25d8"/>
  </linearGradient>
  <g transform="matrix(0.711538, 0, 0, 0.711538, 0.076595, 3.692452)">
    <path d="M 25.46 27.043 L 33.46 27.043 C 37.878 27.043 41.46 30.625 41.46 35.043 L 41.46 43.043 C 41.46 47.461 37.878 51.043 33.46 51.043 L 25.46 51.043 C 21.042 51.043 17.46 47.461 17.46 43.043 L 17.46 35.043 C 17.46 30.625 21.042 27.043 25.46 27.043 Z M 25.46 27.043" fill="url(#a)" style="stroke-width: 1;"/>
    <path d="M 57.46 35.043 C 50.831 35.043 45.46 29.672 45.46 23.043 C 45.46 16.414 50.831 11.043 57.46 11.043 C 64.089 11.043 69.46 16.414 69.46 23.043 C 69.46 29.672 64.089 35.043 57.46 35.043 Z M 57.46 35.043" fill="url(#b)" style="stroke-width: 1;"/>
    <path d="M 64.249 42.02 L 46.671 52.066 C 45.6 52.676 44.94 53.813 44.94 55.043 C 44.94 56.273 45.6 57.41 46.671 58.02 L 64.249 68.066 C 65.327 68.684 66.651 68.676 67.725 68.055 C 68.799 67.43 69.46 66.285 69.46 65.043 L 69.46 45.043 C 69.46 43.801 68.799 42.656 67.725 42.031 C 66.651 41.41 65.327 41.402 64.249 42.02 Z M 64.249 42.02" fill="url(#c)" style="stroke-width: 1;"/>
  </g>
</svg>