<?xml version="1.0" encoding="utf-8"?>
<svg width="64" height="64" version="1.1" xmlns="http://www.w3.org/2000/svg">
  <defs>
    <filter id="filter8" x="-.012" y="-.012" width="1.024" height="1.024" color-interpolation-filters="sRGB">
      <feGaussianBlur stdDeviation="0.074081873"/>
    </filter>
    <linearGradient id="linearGradient7" x1="2.5981" x2="10.583" y1="2.8356" y2="11.312" gradientUnits="userSpaceOnUse" href="#linearGradient6"/>
    <linearGradient id="linearGradient6">
      <stop stop-color="#ffffff" offset="0"/>
      <stop stop-color="#ffffff" stop-opacity="0" offset="1"/>
    </linearGradient>
    <linearGradient id="linearGradient8" x1="15.081" x2="12.7" y1="14.816" y2="12.171" gradientUnits="userSpaceOnUse" href="#linearGradient6"/>
    <linearGradient id="linearGradient3" x1="8.4665" x2="8.4665" y1="1.0583" y2="15.875" gradientTransform="matrix(3.7796, 0, 0, 3.7796, -0.000145, -0.000283)" gradientUnits="userSpaceOnUse">
      <stop stop-color="#323131" offset="0"/>
      <stop stop-color="#141414" offset="1"/>
    </linearGradient>
    <filter id="b" width="1.286" height="1.299" x="-.143" y="-.149" color-interpolation-filters="sRGB">
      <feGaussianBlur stdDeviation=".716"/>
    </filter>
    <linearGradient id="c" x1="146.18" x2="639.59" y1="155.65" y2="615.87" gradientTransform="matrix(0.017207, 0, 0, 0.017207, 2.017552, 1.997764)" gradientUnits="userSpaceOnUse">
      <stop offset="0" stop-color="#1b91f3"/>
      <stop offset="1" stop-color="#0b68cb"/>
    </linearGradient>
    <radialGradient id="d" cx="0" cy="0" r="1" gradientTransform="matrix(2.029871, 4.672173, -4.47572, 1.94452, 4.517944, 7.40306)" gradientUnits="userSpaceOnUse">
      <stop offset="0.53" stop-color="#0b4186" stop-opacity="0"/>
      <stop offset="1" stop-color="#0b4186" stop-opacity=".45"/>
    </radialGradient>
    <radialGradient id="e" cx="0" cy="0" r="1" gradientTransform="matrix(-0.670402, -0.858198, 1.420143, -1.109378, 8.621957, 5.310629)" gradientUnits="userSpaceOnUse">
      <stop offset="0" stop-color="#a69bf6" stop-opacity="0"/>
      <stop offset="1" stop-color="#f4a1f6" stop-opacity=".639"/>
    </radialGradient>
    <linearGradient id="f" x1="283.48" x2="461.02" y1="273.46" y2="75.818" gradientTransform="matrix(0.017207, 0, 0, 0.017207, 2.017552, 1.997764)" gradientUnits="userSpaceOnUse">
      <stop offset="0" stop-color="#0f5db0"/>
      <stop offset="1" stop-color="#0f5db0" stop-opacity="0"/>
    </linearGradient>
    <radialGradient id="g" cx="0" cy="0" r="1" gradientTransform="matrix(3.451009, -7.158637, 8.842998, 4.262987, 6.194555, 11.483851)" gradientUnits="userSpaceOnUse">
      <stop offset="0.02" stop-color="#094188"/>
      <stop offset="0.97" stop-color="#0b4186" stop-opacity="0"/>
    </radialGradient>
    <linearGradient id="h" x1="594.62" x2="512.08" y1="416.56" y2="619.25" gradientTransform="matrix(0.017207, 0, 0, 0.017207, 2.017552, 1.997764)" gradientUnits="userSpaceOnUse">
      <stop offset="0" stop-color="#a69bf6" stop-opacity="0"/>
      <stop offset="1" stop-color="#f4a1f6" stop-opacity=".667"/>
    </linearGradient>
    <linearGradient id="i" x1="82.716" x2="140.4" y1="234.79" y2="546.58" gradientTransform="matrix(0.017207, 0, 0, 0.017207, 2.017552, 1.997764)" gradientUnits="userSpaceOnUse">
      <stop offset="0.492" stop-color="#f4a1f6" stop-opacity=".665"/>
      <stop offset="1" stop-color="#a69bf6" stop-opacity="0"/>
    </linearGradient>
    <linearGradient id="j" x1="374.7" x2="374.7" y1="273.95" y2="569.95" gradientTransform="matrix(0.017207, 0, 0, 0.017207, 2.017552, 1.997764)" gradientUnits="userSpaceOnUse">
      <stop offset="0" stop-color="#fff"/>
      <stop offset="0.91" stop-color="#bee1fe"/>
      <stop offset="1" stop-color="#96cefd"/>
    </linearGradient>
    <mask id="k" width="345" height="276" x="202" y="297" maskUnits="userSpaceOnUse">
      <path fill="#fff" d="M546.84 362.97c0 77.57-77.07 140.45-172.13 140.45-4.59 0-12.3-1.18-15.11 3.4-2.81 4.56 3.38 11.6 6.95 15.63 37.16 42.04 91.07 47.33 105.22 48.72l2.23.22c-124.88 12.08-271.38-67.7-271.42-206.37a121.96 121.96 0 0 1 18.53-65.32l134.08 121.78c9.54 8.66 25.61 8.66 35.15 0l136.62-124.09c12.7 19.58 19.88 41.9 19.88 65.58"/>
    </mask>
    <linearGradient id="l" x1="380.24" x2="380.24" y1="441.45" y2="565.45" gradientUnits="userSpaceOnUse">
      <stop offset="0" stop-color="#bce0fd"/>
      <stop offset="1" stop-color="#88ccfc"/>
    </linearGradient>
    <filter id="m" width="341.88" height="198.42" x="201.48" y="276.16" color-interpolation-filters="sRGB" filterUnits="userSpaceOnUse">
      <feFlood flood-opacity="0" result="BackgroundImageFix"/>
      <feBlend in="SourceGraphic" in2="BackgroundImageFix" result="shape"/>
      <feGaussianBlur result="effect1_foregroundBlur_106_1002" stdDeviation="16"/>
    </filter>
  </defs>
  <g transform="matrix(1, 0, 0, 1, 0, -0.000298)">
    <path d="M 20.26 4.001 C 14.478 4.001 10.517 5.725 7.939 8.535 C 5.374 11.332 4 15.339 4 19.876 L 4 44.124 C 4 48.662 5.373 52.67 7.939 55.465 C 10.517 58.276 14.478 60 20.26 60 L 43.809 60 C 49.591 60 53.551 58.276 56.13 55.465 C 58.695 52.669 60 49.03 60 44.124 L 60 20.787 C 60 14.852 58.695 11.331 56.13 8.535 C 53.551 5.725 49.591 4.001 43.809 4.001 L 25.494 4.001 L 20.26 4.001 Z" fill="url(#linearGradient3)" stroke-width="3.7796"/>
    <g transform="matrix(3.7796, 0, 0, 3.7796, 0.000051, 0.000349)" filter="url(#filter8)" opacity=".35">
      <path d="m5.3603 1.0583c-1.5298 0-2.5775 0.45637-3.2597 1.1999-0.67868 0.73981-1.0423 1.8002-1.0423 3.0008v6.415c0 1.2006 0.36361 2.2609 1.0423 3.0008 0.68219 0.74355 1.7299 1.1999 3.2597 1.1999h6.2305c1.5298 0 2.5775-0.45637 3.2597-1.1999 0.67868-0.73981 1.0242-1.7027 1.0242-3.0008v-6.1742c0-1.5703-0.34552-2.5018-1.0242-3.2416-0.68219-0.74355-1.7299-1.1999-3.2597-1.1999h-4.8456zm-0.00103 0.26406h6.2326c1.4772 0 2.437 0.43133 3.0644 1.1152 0.63411 0.69126 0.95341 1.5307 0.95341 3.0623v6.1742c0 1.2512-0.32181 2.1335-0.95341 2.822-0.6274 0.68381-1.5871 1.1136-3.0644 1.1136h-6.2326c-1.4772 0-2.437-0.42978-3.0644-1.1136-0.62537-0.68172-0.97253-1.6747-0.97253-2.822v-6.4145c0-1.1472 0.34717-2.1403 0.97253-2.822 0.6274-0.68381 1.5871-1.1152 3.0644-1.1152z" fill="url(#linearGradient7)"/>
      <path d="m5.3603 1.0583c-1.5298 0-2.5775 0.45637-3.2597 1.1999-0.67868 0.73981-1.0423 1.8002-1.0423 3.0008v6.415c0 1.2006 0.36361 2.2609 1.0423 3.0008 0.68219 0.74355 1.7299 1.1999 3.2597 1.1999h6.2305c1.5298 0 2.5775-0.45637 3.2597-1.1999 0.67868-0.73981 1.0242-1.7027 1.0242-3.0008v-6.1742c0-1.5703-0.34552-2.5018-1.0242-3.2416-0.68219-0.74355-1.7299-1.1999-3.2597-1.1999h-4.8456zm-0.00103 0.26406h6.2326c1.4772 0 2.437 0.43133 3.0644 1.1152 0.63411 0.69126 0.95341 1.5307 0.95341 3.0623v6.1742c0 1.2512-0.32181 2.1335-0.95341 2.822-0.6274 0.68381-1.5871 1.1136-3.0644 1.1136h-6.2326c-1.4772 0-2.437-0.42978-3.0644-1.1136-0.62537-0.68172-0.97253-1.6747-0.97253-2.822v-6.4145c0-1.1472 0.34717-2.1403 0.97253-2.822 0.6274-0.68381 1.5871-1.1152 3.0644-1.1152z" fill="url(#linearGradient8)" stroke-width="1.0001"/>
    </g>
  </g>
  <g transform="matrix(3.483633, 0, 0, 3.483633, 2.489518, 2.204715)">
    <path d="M11.146 3.487c-1.68 0-3.328.645-3.706 1.968h-.003c-.955.392-1.066 1.27-.91 1.752v.014a2.7 2.7 0 0 0-.474.422c.014.002.004 0 0 0h-.007c.058-.973-.277-2.636-1.27-2.961l-.023-.005c-.053-.004-.1.04-.107.096-.115.963-.365 1.297-.633 1.657-.252.338-.46.71-.58 1.107-.07.239-.108.487-.103.744a5.5 5.5 0 0 1-.353-.956c-.015-.056-.097-.176-.167-.136-.065.036-.114.137-.149.242a6 6 0 0 0-.202 1.551v.028l.005.147a5.8 5.8 0 0 0 .558 2.326 6 6 0 0 0 1.173 1.685c.687.7 1.411 1.11 1.957 1.344a5.9 5.9 0 0 0 2.315.478 6 6 0 0 0 4.247-1.76 6 6 0 0 0 .702-7.655q.421-.008.84.064a3.64 3.64 0 0 0-1.441-.953 4.3 4.3 0 0 1 1.249-.248c-.715-.583-1.757-.95-2.918-.95" filter="url(#b)" opacity=".15"/>
    <path fill="url(#c)" d="M 7.437 4.665 C 7.817 3.339 9.47 2.691 11.154 2.691 C 12.318 2.691 13.363 3.06 14.079 3.645 C 13.652 3.665 13.23 3.748 12.827 3.893 C 13.378 4.091 13.873 4.419 14.271 4.849 C 13.993 4.801 13.711 4.78 13.429 4.786 C 16.059 8.605 13.568 13.839 8.946 14.208 C 8.787 14.22 8.627 14.227 8.467 14.227 C 5.191 14.227 2.443 11.484 2.443 8.202 C 2.443 7.684 2.512 7.149 2.645 6.646 C 2.68 6.542 2.729 6.441 2.794 6.403 C 2.876 6.357 2.949 6.495 2.962 6.539 C 3.049 6.87 3.167 7.19 3.315 7.499 C 3.303 6.811 3.597 6.184 4 5.643 C 4.27 5.281 4.52 4.947 4.635 3.98 C 4.643 3.916 4.704 3.87 4.767 3.889 C 5.644 4.177 6.112 5.637 6.04 6.858 C 6.523 6.928 6.522 6.421 6.522 6.421 C 6.367 5.946 6.471 5.06 7.435 4.665 L 7.437 4.665 Z"/>
    <path fill="url(#d)" d="M 14.294 6.667 C 14.441 9.98 11.716 12.837 8.395 12.837 C 5.309 12.836 2.744 10.46 2.508 7.383 C 2.466 7.669 2.445 7.957 2.443 8.246 C 2.466 11.51 5.208 14.225 8.467 14.225 C 12.418 14.226 15.3 10.487 14.294 6.667" opacity=".9"/>
    <path fill="url(#e)" d="M 8.32 5.103 C 8.255 4.988 7.955 4.819 7.825 4.789 C 8.32 3.201 10.845 2.714 12.391 2.994 C 13.034 3.111 13.836 3.462 14.079 3.645 C 13.363 3.059 12.317 2.69 11.154 2.69 C 9.47 2.69 7.816 3.337 7.437 4.665 L 7.435 4.665 C 6.47 5.06 6.366 5.946 6.522 6.421 C 6.67 5.853 7.378 5.156 8.32 5.103" style="mix-blend-mode:normal"/>
    <path fill="url(#f)" d="M 10.071 4.007 C 8.718 4.274 8.276 4.361 7.823 4.791 C 8.331 3.445 9.63 3.172 11.177 3.785 C 10.809 3.861 10.44 3.935 10.071 4.007"/>
    <path fill="url(#g)" d="M 2.77 6.461 C 2.4 7.975 2.685 9.754 4.365 11.248 C 3.866 10.7 3.255 8.681 4.601 7.239 C 4.693 7.141 4.848 7.213 4.854 7.346 C 4.965 10.344 7.383 12.174 10.172 11.832 C 9.308 11.784 6.45 10.783 8.577 10.387 C 9.687 10.18 11.43 9.856 11.43 8.292 C 11.43 5.759 9.471 5.017 8.282 5.128 C 7.469 5.203 6.745 5.719 6.522 6.42 C 6.608 6.698 6.267 6.891 6.039 6.858 C 6.112 5.637 5.644 4.177 4.766 3.889 C 4.704 3.868 4.642 3.915 4.635 3.979 C 4.52 4.945 4.27 5.281 4 5.642 C 3.597 6.184 3.302 6.811 3.315 7.498 C 3.168 7.19 3.05 6.869 2.962 6.539 C 2.951 6.502 2.898 6.398 2.832 6.394 C 2.797 6.39 2.779 6.424 2.771 6.461 L 2.77 6.461 Z"/>
    <path fill="url(#h)" d="M 7.83 10.541 C 9.465 11.869 12.756 10.873 12.756 7.644 C 11.428 9.657 9.736 11.045 7.83 10.541" style="mix-blend-mode:normal"/>
    <path fill="url(#i)" d="M 4.601 7.239 C 4.631 7.204 4.677 7.188 4.722 7.195 C 3.516 8.666 4.488 11.249 5.156 11.884 C 5.194 11.99 4.523 11.441 4.431 11.312 C 3.923 10.881 3.195 8.746 4.602 7.24" style="mix-blend-mode:normal"/>
    <path fill="url(#j)" d="M 8.467 10.662 C 10.103 10.662 11.43 9.58 11.43 8.245 C 11.43 6.909 10.103 5.828 8.467 5.828 C 7.071 5.828 5.503 6.736 5.504 8.28 C 5.504 10.667 8.026 12.04 10.175 11.832 C 10.014 11.814 9.007 11.76 8.326 10.99 C 8.265 10.92 8.159 10.799 8.207 10.721 C 8.255 10.642 8.388 10.662 8.467 10.662"/>
    <path fill="#fff" d="M11.107 7.146 8.765 9.387a.55.55 0 0 1-.647.024L5.821 7.155a2.4 2.4 0 0 1 .22-.3l.242.226A47 47 0 0 0 8.06 8.689c.31.265.406.26.71 0a115 115 0 0 0 2.11-1.846q.124.143.226.303z" opacity=".6"/>
    <g mask="url(#k)" transform="matrix(0.01721, 0, 0, 0.01721, 2.017, 1.998)">
      <path fill="url(#l)" d="M162.7 200.98h435.07v394.47H162.7z" opacity=".7"/>
      <g filter="url(#m)">
        <path fill="#458fcd" fill-rule="evenodd" d="M334.74 422.3c-25.35-26.38-101.27-114.03-101.27-114.03l5.87.26L358.2 397.3c8.9 6.47 21.6 6.4 30.42-.15l116.55-88.5 6.18-.49s-73.44 85.57-101.57 113.76-49.69 26.76-75.04.38" clip-rule="evenodd"/>
      </g>
    </g>
    <path fill="#fff" d="M8.882 4.618c.317-.1.29-.413.29-.413s-.16-.187-.473-.084c-.294.097-.34.307-.34.307s.16.305.523.19"/>
  </g>
</svg>