<?xml version="1.0" encoding="utf-8"?>
<svg width="64" height="64" version="1.1" xmlns="http://www.w3.org/2000/svg">
  <defs>
    <filter id="filter8" x="-.012" y="-.012" width="1.024" height="1.024" color-interpolation-filters="sRGB">
      <feGaussianBlur stdDeviation="0.074081873"/>
    </filter>
    <linearGradient id="linearGradient7" x1="2.5981" x2="10.583" y1="2.8356" y2="11.312" gradientUnits="userSpaceOnUse" href="#linearGradient6"/>
    <linearGradient id="linearGradient6">
      <stop stop-color="#ffffff" offset="0"/>
      <stop stop-color="#ffffff" stop-opacity="0" offset="1"/>
    </linearGradient>
    <linearGradient id="linearGradient8" x1="15.081" x2="12.7" y1="14.816" y2="12.171" gradientUnits="userSpaceOnUse" href="#linearGradient6"/>
    <linearGradient id="linearGradient3" x1="8.4665" x2="8.4665" y1="1.0583" y2="15.875" gradientTransform="scale(3.7796)" gradientUnits="userSpaceOnUse">
      <stop stop-color="#323131" offset="0"/>
      <stop stop-color="#141414" offset="1"/>
    </linearGradient>
  </defs>
  <path d="m20.26 4.0003c-5.782 0-9.7427 1.7243-12.321 4.5348-2.5651 2.7962-3.9387 6.8037-3.9387 11.341v24.248c0 4.5378 1.3734 8.5453 3.9387 11.341 2.5784 2.8103 6.5391 4.5348 12.321 4.5348h23.549c5.782 0 9.7427-1.7243 12.321-4.5348 2.5651-2.7962 3.8703-6.4352 3.8703-11.341v-23.337c0-5.9351-1.305-9.4562-3.8703-12.252-2.5784-2.8103-6.5391-4.5348-12.321-4.5348h-18.315z" fill="url(#linearGradient3)" stroke-width="3.7796"/>
  <g transform="matrix(3.7796,0,0,3.7796,-1.5792e-4,3.4932e-4)" filter="url(#filter8)" opacity=".35">
    <path d="m5.3603 1.0583c-1.5298 0-2.5775 0.45637-3.2597 1.1999-0.67868 0.73981-1.0423 1.8002-1.0423 3.0008v6.415c0 1.2006 0.36361 2.2609 1.0423 3.0008 0.68219 0.74355 1.7299 1.1999 3.2597 1.1999h6.2305c1.5298 0 2.5775-0.45637 3.2597-1.1999 0.67868-0.73981 1.0242-1.7027 1.0242-3.0008v-6.1742c0-1.5703-0.34552-2.5018-1.0242-3.2416-0.68219-0.74355-1.7299-1.1999-3.2597-1.1999h-4.8456zm-0.00103 0.26406h6.2326c1.4772 0 2.437 0.43133 3.0644 1.1152 0.63411 0.69126 0.95341 1.5307 0.95341 3.0623v6.1742c0 1.2512-0.32181 2.1335-0.95341 2.822-0.6274 0.68381-1.5871 1.1136-3.0644 1.1136h-6.2326c-1.4772 0-2.437-0.42978-3.0644-1.1136-0.62537-0.68172-0.97253-1.6747-0.97253-2.822v-6.4145c0-1.1472 0.34717-2.1403 0.97253-2.822 0.6274-0.68381 1.5871-1.1152 3.0644-1.1152z" fill="url(#linearGradient7)"/>
    <path d="m5.3603 1.0583c-1.5298 0-2.5775 0.45637-3.2597 1.1999-0.67868 0.73981-1.0423 1.8002-1.0423 3.0008v6.415c0 1.2006 0.36361 2.2609 1.0423 3.0008 0.68219 0.74355 1.7299 1.1999 3.2597 1.1999h6.2305c1.5298 0 2.5775-0.45637 3.2597-1.1999 0.67868-0.73981 1.0242-1.7027 1.0242-3.0008v-6.1742c0-1.5703-0.34552-2.5018-1.0242-3.2416-0.68219-0.74355-1.7299-1.1999-3.2597-1.1999h-4.8456zm-0.00103 0.26406h6.2326c1.4772 0 2.437 0.43133 3.0644 1.1152 0.63411 0.69126 0.95341 1.5307 0.95341 3.0623v6.1742c0 1.2512-0.32181 2.1335-0.95341 2.822-0.6274 0.68381-1.5871 1.1136-3.0644 1.1136h-6.2326c-1.4772 0-2.437-0.42978-3.0644-1.1136-0.62537-0.68172-0.97253-1.6747-0.97253-2.822v-6.4145c0-1.1472 0.34717-2.1403 0.97253-2.822 0.6274-0.68381 1.5871-1.1152 3.0644-1.1152z" fill="url(#linearGradient8)" stroke-width="1.0001"/>
  </g>
  <g transform="matrix(0.005576, 0, 0, -0.005576, -3.231682, 51.176469)" fill="#000000" stroke="none">
    <path d="M6255 6844 c-540 -35 -1107 -229 -1555 -532 -473 -320 -848 -752 -1091 -1256 -133 -276 -216 -536 -273 -856 -43 -240 -52 -602 -22 -880 40 -374 177 -822 362 -1188 l53 -103 -123 -367 c-68 -202 -191 -570 -274 -818 -84 -249 -152 -459 -152 -469 0 -9 13 -22 29 -28 26 -10 29 -14 24 -45 -6 -32 -5 -34 18 -27 41 13 936 298 1314 420 198 63 368 115 378 115 9 0 52 -17 95 -39 366 -184 756 -294 1171 -332 164 -14 498 -7 659 16 954 132 1766 659 2266 1468 163 264 318 632 401 952 79 307 117 688 96 982 -54 781 -356 1473 -881 2017 -509 527 -1157 853 -1895 952 -108 14 -482 26 -600 18z m391 -684 c357 -29 650 -108 959 -259 419 -206 770 -514 1030 -906 200 -301 323 -625 371 -979 23 -168 23 -508 0 -680 -163 -1209 -1161 -2141 -2372 -2217 -427 -26 -824 44 -1212 214 -107 47 -284 143 -339 183 -17 13 -39 24 -49 24 -9 0 -222 -65 -472 -145 -250 -80 -456 -145 -457 -143 -2 2 62 197 141 433 79 237 144 442 144 458 0 16 -18 53 -44 90 -418 599 -554 1426 -351 2127 45 152 82 245 155 390 200 391 505 732 880 982 473 316 1064 472 1616 428z" style="fill: rgb(37, 211, 102);"/>
    <path d="M5323 5236 c-23 -7 -56 -23 -75 -34 -51 -32 -199 -190 -245 -262 -147 -229 -180 -534 -92 -832 67 -225 149 -397 299 -629 190 -292 313 -450 510 -653 296 -305 545 -476 927 -635 282 -118 490 -185 607 -197 81 -8 258 20 362 58 144 52 309 168 373 262 64 96 130 313 138 457 l6 95 -31 36 c-22 24 -112 78 -294 176 -432 232 -487 254 -555 218 -17 -8 -81 -73 -141 -143 -178 -207 -215 -243 -245 -243 -38 0 -287 127 -403 205 -135 92 -223 166 -334 281 -132 137 -275 333 -355 486 l-18 36 72 79 c95 101 134 162 172 268 39 108 37 141 -20 290 -51 133 -92 243 -163 434 -58 157 -101 221 -161 240 -57 17 -287 22 -334 7z" style="fill: rgb(37, 211, 102);"/>
  </g>
</svg>